{"glyphs":{"0":{"ha":807,"x_min":99,"x_max":708,"o":"m 404 -11 q 192 24 253 -11 q 115 151 131 58 q 99 478 99 244 q 115 804 99 711 q 192 932 131 897 q 404 967 253 967 q 617 932 557 967 q 693 806 678 897 q 708 478 708 714 q 692 151 708 244 q 615 24 676 58 q 404 -11 554 -11 m 404 63 q 563 84 521 63 q 616 183 604 106 q 628 478 628 261 q 616 772 628 694 q 563 872 604 850 q 404 893 521 893 q 245 872 288 893 q 191 772 203 850 q 179 478 179 694 q 191 183 179 261 q 245 84 203 106 q 404 63 288 63 z "},"1":{"ha":447,"x_min":53,"x_max":306,"o":"m 225 0 l 225 856 l 53 767 l 53 846 l 244 956 l 306 956 l 306 0 l 225 0 z "},"2":{"ha":728,"x_min":88,"x_max":640,"o":"m 167 74 l 640 74 l 640 0 l 88 0 l 88 104 q 94 276 88 225 q 128 359 100 326 q 225 425 156 392 l 457 540 q 540 607 519 571 q 560 718 560 643 q 542 830 560 793 q 480 880 524 867 q 349 893 436 893 q 103 878 250 893 l 103 946 q 227 961 151 956 q 369 967 303 967 q 516 951 460 967 q 606 885 572 936 q 640 731 640 833 q 626 606 640 653 q 581 529 613 558 q 493 471 550 500 l 233 344 q 178 289 190 322 q 169 237 171 267 q 167 153 167 207 l 167 74 z "},"3":{"ha":711,"x_min":67,"x_max":618,"o":"m 307 -11 q 187 -5 254 -11 q 67 10 119 1 l 67 79 q 301 63 204 63 q 434 76 385 63 q 510 130 483 89 q 536 251 536 171 q 497 403 536 358 q 367 447 458 447 l 207 447 l 207 521 l 367 521 q 482 561 438 521 q 526 706 526 601 q 502 826 526 786 q 428 880 478 867 q 289 893 379 893 q 181 888 243 893 q 71 876 119 883 l 71 946 q 190 960 124 954 q 308 967 257 967 q 488 941 424 967 q 581 861 553 915 q 608 715 608 807 q 572 561 608 614 q 465 492 536 508 l 465 486 q 579 419 540 472 q 618 256 618 367 q 594 106 618 163 q 501 19 569 49 q 307 -11 433 -11 z "},"4":{"ha":771,"x_min":58,"x_max":710,"o":"m 503 0 l 503 233 l 58 233 l 58 300 l 378 956 l 468 956 l 147 307 l 504 307 l 515 686 l 585 686 l 585 307 l 710 307 l 710 233 l 585 233 l 585 0 l 503 0 z "},"5":{"ha":736,"x_min":100,"x_max":651,"o":"m 100 79 q 335 63 240 63 q 483 82 433 63 q 551 147 532 101 q 569 278 569 192 q 549 413 569 371 q 477 470 529 456 q 314 485 425 485 q 108 465 233 485 l 108 956 l 590 956 l 590 882 l 188 882 l 188 544 q 372 558 264 558 q 552 529 492 558 q 632 444 613 500 q 651 289 651 388 q 626 110 651 174 q 534 17 600 46 q 342 -11 468 -11 q 218 -6 286 -11 q 100 10 150 0 l 100 79 z "},"6":{"ha":783,"x_min":99,"x_max":711,"o":"m 418 -11 q 267 1 324 -11 q 174 48 211 13 q 118 151 138 83 q 103 264 107 190 q 99 467 99 338 q 103 667 99 590 q 124 794 108 744 q 222 930 153 893 q 432 967 292 967 q 542 960 476 967 q 667 944 607 954 l 667 876 q 447 893 546 893 q 269 863 324 893 q 198 753 215 833 q 181 490 181 672 l 188 490 q 264 542 211 522 q 428 561 317 561 q 599 543 542 561 q 684 469 657 525 q 711 297 711 414 q 689 107 711 171 q 605 16 667 43 q 418 -11 543 -11 m 408 63 q 550 76 506 63 q 613 133 594 90 q 631 271 631 175 q 614 419 631 375 q 554 475 597 463 q 408 488 511 488 q 260 472 307 488 q 198 421 213 456 q 183 315 183 386 q 203 150 183 203 q 268 80 222 97 q 408 63 314 63 z "},"7":{"ha":671,"x_min":49,"x_max":610,"o":"m 172 0 l 521 882 l 49 882 l 49 956 l 610 956 l 610 890 l 261 0 l 172 0 z "},"8":{"ha":817,"x_min":93,"x_max":724,"o":"m 408 -11 q 210 17 278 -11 q 117 102 142 46 q 93 256 93 158 q 110 382 93 336 q 158 450 126 428 q 244 485 190 472 l 244 490 q 135 559 169 506 q 100 715 100 613 q 127 862 100 808 q 221 941 154 915 q 408 967 288 967 q 595 941 529 967 q 688 862 661 915 q 715 715 715 808 q 681 558 715 611 q 572 490 647 506 l 572 485 q 658 450 626 472 q 707 382 690 428 q 724 256 724 336 q 699 102 724 158 q 607 17 675 46 q 408 -11 539 -11 m 408 519 q 549 535 501 519 q 616 590 597 551 q 635 706 635 629 q 617 822 635 783 q 551 877 599 861 q 408 893 503 893 q 266 877 314 893 q 200 822 218 861 q 182 706 182 783 q 201 590 182 629 q 267 535 219 551 q 408 519 315 519 m 408 63 q 551 77 503 63 q 621 132 600 92 q 642 253 642 172 q 623 379 642 339 q 556 433 604 419 q 408 447 508 447 q 260 433 308 447 q 194 379 213 419 q 175 253 175 339 q 196 132 175 172 q 265 77 217 92 q 408 63 314 63 z "},"9":{"ha":783,"x_min":74,"x_max":685,"o":"m 353 -11 q 240 -5 306 -11 q 118 11 175 1 l 118 79 q 336 63 235 63 q 514 92 460 63 q 586 203 568 122 q 604 465 604 283 l 596 465 q 521 414 574 433 q 357 394 468 394 q 185 413 243 394 q 101 486 128 431 q 74 658 74 542 q 96 849 74 785 q 180 940 118 913 q 367 967 242 967 q 517 955 460 967 q 609 911 574 943 q 663 815 644 879 q 681 693 676 768 q 685 489 685 618 q 679 277 685 357 q 656 144 674 197 q 556 22 625 56 q 353 -11 488 -11 m 376 468 q 525 484 478 468 q 586 535 572 500 q 600 640 600 569 q 581 806 600 753 q 516 876 561 858 q 376 893 471 893 q 235 879 279 893 q 172 823 190 865 q 154 685 154 781 q 171 537 154 581 q 231 481 188 493 q 376 468 274 468 z "},"\u0000":{"ha":0,"x_min":0,"x_max":0,"o":""},"\r":{"ha":290,"x_min":0,"x_max":0,"o":""}," ":{"ha":290,"x_min":0,"x_max":0,"o":""},"A":{"ha":819,"x_min":39,"x_max":781,"o":"m 694 0 l 600 283 l 217 283 l 122 0 l 39 0 l 360 956 l 460 956 l 781 0 l 694 0 m 413 854 l 406 854 l 240 357 l 576 357 l 413 854 z "},"Á":{"ha":819,"x_min":39,"x_max":781,"o":"m 694 0 l 600 283 l 217 283 l 122 0 l 39 0 l 360 956 l 460 956 l 781 0 l 694 0 m 413 854 l 406 854 l 240 357 l 576 357 l 413 854 m 364 1042 l 364 1049 l 476 1236 l 564 1236 l 564 1229 l 422 1042 l 364 1042 z "},"Ă":{"ha":819,"x_min":39,"x_max":781,"o":"m 694 0 l 600 283 l 217 283 l 122 0 l 39 0 l 360 956 l 460 956 l 781 0 l 694 0 m 413 854 l 406 854 l 240 357 l 576 357 l 413 854 m 578 1233 q 569 1124 578 1164 q 523 1061 560 1085 q 408 1038 486 1038 q 294 1061 331 1038 q 249 1124 258 1085 q 240 1233 240 1163 l 299 1233 q 304 1149 299 1176 q 333 1106 310 1121 q 408 1090 357 1090 q 484 1106 460 1090 q 514 1149 508 1121 q 519 1233 519 1178 l 578 1233 z "},"Ắ":{"ha":819,"x_min":39,"x_max":781,"o":"m 694 0 l 600 283 l 217 283 l 122 0 l 39 0 l 360 956 l 460 956 l 781 0 l 694 0 m 413 854 l 406 854 l 240 357 l 576 357 l 413 854 m 575 1233 q 566 1124 575 1164 q 520 1061 557 1085 q 406 1038 483 1038 q 292 1061 328 1038 q 247 1124 256 1085 q 238 1233 238 1163 l 296 1233 q 301 1149 296 1176 q 331 1106 307 1121 q 406 1090 354 1090 q 481 1106 457 1090 q 511 1149 506 1121 q 517 1233 517 1178 l 575 1233 m 374 1279 l 374 1286 l 486 1474 l 574 1474 l 574 1467 l 432 1279 l 374 1279 z "},"Ặ":{"ha":819,"x_min":39,"x_max":781,"o":"m 694 0 l 600 283 l 217 283 l 122 0 l 39 0 l 360 956 l 460 956 l 781 0 l 694 0 m 413 854 l 406 854 l 240 357 l 576 357 l 413 854 m 363 -197 l 363 -86 l 457 -86 l 457 -197 l 363 -197 m 578 1233 q 569 1124 578 1164 q 523 1061 560 1085 q 408 1038 486 1038 q 294 1061 331 1038 q 249 1124 258 1085 q 240 1233 240 1163 l 299 1233 q 304 1149 299 1176 q 333 1106 310 1121 q 408 1090 357 1090 q 484 1106 460 1090 q 514 1149 508 1121 q 519 1233 519 1178 l 578 1233 z "},"Ằ":{"ha":819,"x_min":39,"x_max":781,"o":"m 694 0 l 600 283 l 217 283 l 122 0 l 39 0 l 360 956 l 460 956 l 781 0 l 694 0 m 413 854 l 406 854 l 240 357 l 576 357 l 413 854 m 579 1233 q 570 1124 579 1164 q 524 1061 561 1085 q 410 1038 488 1038 q 296 1061 332 1038 q 251 1124 260 1085 q 242 1233 242 1163 l 300 1233 q 306 1149 300 1176 q 335 1106 311 1121 q 410 1090 358 1090 q 485 1106 461 1090 q 515 1149 510 1121 q 521 1233 521 1178 l 579 1233 m 394 1279 l 253 1467 l 253 1474 l 342 1474 l 453 1286 l 453 1279 l 394 1279 z "},"Ẳ":{"ha":819,"x_min":39,"x_max":781,"o":"m 694 0 l 600 283 l 217 283 l 122 0 l 39 0 l 360 956 l 460 956 l 781 0 l 694 0 m 413 854 l 406 854 l 240 357 l 576 357 l 413 854 m 578 1233 q 569 1124 578 1164 q 523 1061 560 1085 q 408 1038 486 1038 q 294 1061 331 1038 q 249 1124 258 1085 q 240 1233 240 1163 l 299 1233 q 304 1149 299 1176 q 333 1106 310 1121 q 408 1090 357 1090 q 484 1106 460 1090 q 514 1149 508 1121 q 519 1233 519 1178 l 578 1233 m 353 1249 q 365 1294 353 1281 q 410 1318 376 1307 l 438 1326 q 493 1348 481 1338 q 506 1385 506 1358 q 496 1419 506 1408 q 465 1433 486 1431 q 396 1436 443 1436 q 264 1429 343 1436 l 264 1481 q 406 1490 339 1490 q 531 1470 496 1490 q 567 1392 567 1450 q 553 1329 567 1350 q 494 1293 540 1308 l 464 1283 q 424 1269 435 1275 q 411 1257 414 1264 q 408 1233 408 1250 l 353 1233 l 353 1249 z "},"Ẵ":{"ha":819,"x_min":39,"x_max":781,"o":"m 694 0 l 600 283 l 217 283 l 122 0 l 39 0 l 360 956 l 460 956 l 781 0 l 694 0 m 413 854 l 406 854 l 240 357 l 576 357 l 413 854 m 575 1233 q 566 1124 575 1164 q 520 1061 557 1085 q 406 1038 483 1038 q 292 1061 328 1038 q 247 1124 256 1085 q 238 1233 238 1163 l 296 1233 q 301 1149 296 1176 q 331 1106 307 1121 q 406 1090 354 1090 q 481 1106 457 1090 q 511 1149 506 1121 q 517 1233 517 1178 l 575 1233 m 628 1476 q 611 1364 628 1394 q 540 1333 594 1333 q 476 1342 508 1333 q 397 1368 443 1351 q 333 1390 358 1382 q 283 1397 307 1397 q 251 1381 258 1397 q 243 1318 243 1364 l 192 1318 q 208 1431 192 1400 q 279 1461 225 1461 q 342 1452 311 1461 q 424 1425 374 1443 q 488 1404 463 1411 q 536 1397 513 1397 q 569 1413 563 1397 q 576 1476 576 1429 l 628 1476 z "},"Ǎ":{"ha":819,"x_min":39,"x_max":781,"o":"m 694 0 l 600 283 l 217 283 l 122 0 l 39 0 l 360 956 l 460 956 l 781 0 l 694 0 m 413 854 l 406 854 l 240 357 l 576 357 l 413 854 m 365 1042 l 238 1225 l 238 1233 l 294 1233 l 410 1092 l 526 1233 l 583 1233 l 583 1225 l 456 1042 l 365 1042 z "},"Â":{"ha":819,"x_min":39,"x_max":781,"o":"m 694 0 l 600 283 l 217 283 l 122 0 l 39 0 l 360 956 l 460 956 l 781 0 l 694 0 m 413 854 l 406 854 l 240 357 l 576 357 l 413 854 m 236 1042 l 236 1049 l 364 1233 l 454 1233 l 582 1049 l 582 1042 l 525 1042 l 408 1182 l 293 1042 l 236 1042 z "},"Ấ":{"ha":819,"x_min":39,"x_max":781,"o":"m 694 0 l 600 283 l 217 283 l 122 0 l 39 0 l 360 956 l 460 956 l 781 0 l 694 0 m 413 854 l 406 854 l 240 357 l 576 357 l 413 854 m 233 1036 l 233 1043 l 361 1228 l 451 1228 l 579 1043 l 579 1036 l 522 1036 l 406 1176 l 290 1036 l 233 1036 m 488 1239 l 488 1246 l 600 1433 l 688 1433 l 688 1426 l 546 1239 l 488 1239 z "},"Ậ":{"ha":819,"x_min":39,"x_max":781,"o":"m 694 0 l 600 283 l 217 283 l 122 0 l 39 0 l 360 956 l 460 956 l 781 0 l 694 0 m 413 854 l 406 854 l 240 357 l 576 357 l 413 854 m 363 -197 l 363 -86 l 457 -86 l 457 -197 l 363 -197 m 236 1042 l 236 1049 l 364 1233 l 454 1233 l 582 1049 l 582 1042 l 525 1042 l 408 1182 l 293 1042 l 236 1042 z "},"Ầ":{"ha":819,"x_min":39,"x_max":781,"o":"m 694 0 l 600 283 l 217 283 l 122 0 l 39 0 l 360 956 l 460 956 l 781 0 l 694 0 m 413 854 l 406 854 l 240 357 l 576 357 l 413 854 m 232 1033 l 232 1040 l 360 1225 l 450 1225 l 578 1040 l 578 1033 l 521 1033 l 404 1174 l 289 1033 l 232 1033 m 525 1235 l 383 1422 l 383 1429 l 472 1429 l 583 1242 l 583 1235 l 525 1235 z "},"Ẩ":{"ha":819,"x_min":39,"x_max":781,"o":"m 694 0 l 600 283 l 217 283 l 122 0 l 39 0 l 360 956 l 460 956 l 781 0 l 694 0 m 413 854 l 406 854 l 240 357 l 576 357 l 413 854 m 236 1033 l 236 1040 l 364 1225 l 454 1225 l 582 1040 l 582 1033 l 525 1033 l 408 1174 l 293 1033 l 236 1033 m 464 1247 q 476 1292 464 1279 q 521 1317 488 1306 l 549 1325 q 604 1347 592 1336 q 617 1383 617 1357 q 607 1418 617 1407 q 576 1432 597 1429 q 507 1435 554 1435 q 375 1428 454 1435 l 375 1479 q 517 1489 450 1489 q 642 1469 607 1489 q 678 1390 678 1449 q 665 1328 678 1349 q 606 1292 651 1307 l 575 1282 q 535 1268 546 1274 q 522 1256 525 1263 q 519 1232 519 1249 l 464 1232 l 464 1247 z "},"Ẫ":{"ha":819,"x_min":39,"x_max":781,"o":"m 694 0 l 600 283 l 217 283 l 122 0 l 39 0 l 360 956 l 460 956 l 781 0 l 694 0 m 413 854 l 406 854 l 240 357 l 576 357 l 413 854 m 233 1033 l 233 1040 l 361 1225 l 451 1225 l 579 1040 l 579 1033 l 522 1033 l 406 1174 l 290 1033 l 233 1033 m 626 1465 q 610 1353 626 1383 q 539 1322 593 1322 q 474 1331 507 1322 q 396 1357 442 1340 q 331 1378 357 1371 q 282 1386 306 1386 q 249 1369 257 1386 q 242 1307 242 1353 l 190 1307 q 207 1419 190 1389 q 278 1450 224 1450 q 341 1441 310 1450 q 422 1414 372 1432 q 486 1393 461 1400 q 535 1386 511 1386 q 568 1402 561 1386 q 575 1465 575 1418 l 626 1465 z "},"Ȁ":{"ha":819,"x_min":39,"x_max":781,"o":"m 694 0 l 600 283 l 217 283 l 122 0 l 39 0 l 360 956 l 460 956 l 781 0 l 694 0 m 413 854 l 406 854 l 240 357 l 576 357 l 413 854 m 335 1044 l 282 1044 l 146 1219 l 146 1226 l 226 1226 l 335 1051 l 335 1044 m 563 1044 l 508 1044 l 372 1219 l 372 1226 l 454 1226 l 563 1051 l 563 1044 z "},"Ä":{"ha":819,"x_min":39,"x_max":781,"o":"m 694 0 l 600 283 l 217 283 l 122 0 l 39 0 l 360 956 l 460 956 l 781 0 l 694 0 m 413 854 l 406 854 l 240 357 l 576 357 l 413 854 m 244 1072 l 244 1169 l 325 1169 l 325 1072 l 244 1072 m 493 1072 l 493 1169 l 574 1169 l 574 1072 l 493 1072 z "},"Ạ":{"ha":819,"x_min":39,"x_max":781,"o":"m 694 0 l 600 283 l 217 283 l 122 0 l 39 0 l 360 956 l 460 956 l 781 0 l 694 0 m 413 854 l 406 854 l 240 357 l 576 357 l 413 854 m 363 -197 l 363 -86 l 457 -86 l 457 -197 l 363 -197 z "},"À":{"ha":819,"x_min":39,"x_max":781,"o":"m 694 0 l 600 283 l 217 283 l 122 0 l 39 0 l 360 956 l 460 956 l 781 0 l 694 0 m 413 854 l 406 854 l 240 357 l 576 357 l 413 854 m 396 1042 l 254 1229 l 254 1236 l 343 1236 l 454 1049 l 454 1042 l 396 1042 z "},"Ả":{"ha":819,"x_min":39,"x_max":781,"o":"m 694 0 l 600 283 l 217 283 l 122 0 l 39 0 l 360 956 l 460 956 l 781 0 l 694 0 m 413 854 l 406 854 l 240 357 l 576 357 l 413 854 m 346 1031 q 358 1076 346 1063 q 403 1100 369 1089 l 431 1108 q 486 1131 474 1119 q 499 1168 499 1142 q 489 1202 499 1192 q 458 1215 479 1213 q 389 1218 436 1218 q 257 1213 351 1218 l 257 1263 q 399 1272 332 1272 q 524 1252 489 1272 q 560 1175 560 1232 q 547 1111 560 1132 q 488 1075 533 1090 l 457 1067 q 418 1053 429 1058 q 404 1040 407 1047 q 401 1015 401 1032 l 346 1015 l 346 1031 z "},"Ȃ":{"ha":819,"x_min":39,"x_max":781,"o":"m 694 0 l 600 283 l 217 283 l 122 0 l 39 0 l 360 956 l 460 956 l 781 0 l 694 0 m 413 854 l 406 854 l 240 357 l 576 357 l 413 854 m 240 1046 q 249 1155 240 1115 q 295 1218 258 1194 q 410 1242 332 1242 q 524 1218 488 1242 q 569 1156 560 1194 q 578 1046 578 1117 l 519 1046 q 514 1131 519 1103 q 485 1174 508 1158 q 410 1189 461 1189 q 334 1174 358 1189 q 304 1130 310 1158 q 299 1046 299 1101 l 240 1046 z "},"Ā":{"ha":819,"x_min":39,"x_max":781,"o":"m 694 0 l 600 283 l 217 283 l 122 0 l 39 0 l 360 956 l 460 956 l 781 0 l 694 0 m 413 854 l 406 854 l 240 357 l 576 357 l 413 854 m 261 1158 l 261 1232 l 556 1232 l 556 1158 l 261 1158 z "},"Ą":{"ha":819,"x_min":39,"x_max":781,"o":"m 682 -154 q 746 -214 682 -214 q 769 -212 758 -214 l 769 -269 q 728 -272 751 -272 q 640 -244 667 -272 q 613 -168 613 -215 q 635 -81 613 -128 q 694 3 658 -35 l 600 283 l 217 283 l 122 0 l 39 0 l 360 956 l 460 956 l 781 0 l 763 0 q 707 -74 732 -29 q 682 -154 682 -118 m 240 357 l 576 357 l 413 854 l 406 854 l 240 357 z "},"Å":{"ha":819,"x_min":39,"x_max":781,"o":"m 781 0 l 694 0 l 600 283 l 217 283 l 122 0 l 39 0 l 351 935 q 290 955 310 940 q 264 994 269 969 q 258 1064 258 1018 q 267 1146 258 1119 q 308 1185 276 1172 q 408 1199 339 1199 q 511 1185 479 1199 q 552 1146 543 1172 q 561 1064 561 1119 q 556 994 561 1018 q 530 955 550 969 q 468 935 510 940 l 781 0 m 318 1064 q 322 1010 318 1026 q 345 988 326 994 q 408 981 364 981 q 472 988 453 981 q 497 1010 492 994 q 501 1064 501 1026 q 497 1117 501 1101 q 472 1141 492 1133 q 408 1149 453 1149 q 345 1141 364 1149 q 322 1117 326 1133 q 318 1064 318 1101 m 240 357 l 576 357 l 413 854 l 406 854 l 240 357 z "},"Ǻ":{"ha":819,"x_min":39,"x_max":781,"o":"m 781 0 l 694 0 l 600 283 l 217 283 l 122 0 l 39 0 l 351 935 q 290 955 310 940 q 264 994 269 969 q 258 1064 258 1018 q 267 1146 258 1119 q 308 1185 276 1172 q 408 1199 339 1199 q 511 1185 479 1199 q 552 1146 543 1172 q 561 1064 561 1119 q 556 994 561 1018 q 530 955 550 969 q 468 935 510 940 l 781 0 m 318 1064 q 322 1010 318 1026 q 345 988 326 994 q 408 981 364 981 q 472 988 453 981 q 497 1010 492 994 q 501 1064 501 1026 q 497 1117 501 1101 q 472 1141 492 1133 q 408 1149 453 1149 q 345 1141 364 1149 q 322 1117 326 1133 q 318 1064 318 1101 m 240 357 l 576 357 l 413 854 l 406 854 l 240 357 m 369 1282 l 369 1289 l 482 1476 l 569 1476 l 569 1469 l 428 1282 l 369 1282 z "},"Ã":{"ha":819,"x_min":39,"x_max":781,"o":"m 694 0 l 600 283 l 217 283 l 122 0 l 39 0 l 360 956 l 460 956 l 781 0 l 694 0 m 413 854 l 406 854 l 240 357 l 576 357 l 413 854 m 628 1200 q 611 1088 628 1118 q 540 1057 594 1057 q 476 1066 508 1057 q 397 1092 443 1075 q 333 1113 358 1106 q 283 1121 307 1121 q 251 1104 258 1121 q 243 1042 243 1088 l 192 1042 q 208 1154 192 1124 q 279 1185 225 1185 q 342 1176 311 1185 q 424 1149 374 1167 q 488 1128 463 1135 q 536 1121 513 1121 q 569 1137 563 1121 q 576 1200 576 1153 l 628 1200 z "},"Æ":{"ha":1133,"x_min":-4,"x_max":1067,"o":"m 651 0 l 583 283 l 200 283 l 79 0 l -4 0 l 410 956 l 1067 956 l 1067 882 l 525 882 l 614 519 l 1011 519 l 1011 446 l 629 446 l 719 74 l 1067 74 l 1067 0 l 651 0 m 451 853 l 444 853 l 231 357 l 568 357 l 451 853 z "},"Ǽ":{"ha":1133,"x_min":-4,"x_max":1067,"o":"m 651 0 l 583 283 l 200 283 l 79 0 l -4 0 l 410 956 l 1067 956 l 1067 882 l 525 882 l 614 519 l 1011 519 l 1011 446 l 629 446 l 719 74 l 1067 74 l 1067 0 l 651 0 m 451 853 l 444 853 l 231 357 l 568 357 l 451 853 m 525 1039 l 525 1046 l 638 1233 l 725 1233 l 725 1226 l 583 1039 l 525 1039 z "},"B":{"ha":819,"x_min":128,"x_max":729,"o":"m 128 956 l 488 956 q 667 894 614 956 q 719 717 719 832 q 683 565 719 621 q 567 492 647 508 l 567 486 q 695 408 661 469 q 729 251 729 347 q 676 69 729 138 q 479 0 624 0 l 128 0 l 128 956 m 467 521 q 594 567 550 521 q 638 701 638 613 q 601 841 638 800 q 467 882 565 882 l 208 882 l 208 521 l 467 521 m 471 72 q 608 116 569 72 q 647 260 647 160 q 606 403 647 360 q 471 447 565 447 l 208 447 l 208 72 l 471 72 z "},"C":{"ha":681,"x_min":99,"x_max":614,"o":"m 614 4 q 523 -7 576 -3 q 426 -11 469 -11 q 213 24 279 -11 q 122 158 146 58 q 99 478 99 257 q 122 797 99 697 q 213 931 146 896 q 426 967 279 967 q 522 961 471 967 q 608 949 574 956 l 608 881 q 444 893 518 893 q 265 867 317 893 q 197 760 214 842 q 181 478 181 679 q 197 195 181 276 q 265 88 214 114 q 444 63 317 63 q 614 75 532 63 l 614 4 z "},"Ć":{"ha":681,"x_min":99,"x_max":614,"o":"m 614 4 q 523 -7 576 -3 q 426 -11 469 -11 q 213 24 279 -11 q 122 158 146 58 q 99 478 99 257 q 122 797 99 697 q 213 931 146 896 q 426 967 279 967 q 522 961 471 967 q 608 949 574 956 l 608 881 q 444 893 518 893 q 265 867 317 893 q 197 760 214 842 q 181 478 181 679 q 197 195 181 276 q 265 88 214 114 q 444 63 317 63 q 614 75 532 63 l 614 4 m 301 1039 l 301 1046 l 414 1233 l 501 1233 l 501 1226 l 360 1039 l 301 1039 z "},"Č":{"ha":681,"x_min":99,"x_max":614,"o":"m 614 4 q 523 -7 576 -3 q 426 -11 469 -11 q 213 24 279 -11 q 122 158 146 58 q 99 478 99 257 q 122 797 99 697 q 213 931 146 896 q 426 967 279 967 q 522 961 471 967 q 608 949 574 956 l 608 881 q 444 893 518 893 q 265 867 317 893 q 197 760 214 842 q 181 478 181 679 q 197 195 181 276 q 265 88 214 114 q 444 63 317 63 q 614 75 532 63 l 614 4 m 296 1042 l 168 1225 l 168 1233 l 225 1233 l 340 1092 l 457 1233 l 514 1233 l 514 1225 l 386 1042 l 296 1042 z "},"Ç":{"ha":681,"x_min":99,"x_max":614,"o":"m 444 63 q 614 75 532 63 l 614 4 q 523 -7 576 -3 q 426 -11 469 -11 q 368 -10 386 -11 l 311 -264 l 232 -264 l 232 -257 l 310 -6 q 175 52 219 7 q 115 194 131 97 q 99 478 99 290 q 122 797 99 697 q 213 931 146 896 q 426 967 279 967 q 522 961 471 967 q 608 949 574 956 l 608 881 q 444 893 518 893 q 265 867 317 893 q 197 760 214 842 q 181 478 181 679 q 197 195 181 276 q 265 88 214 114 q 444 63 317 63 z "},"Ĉ":{"ha":681,"x_min":99,"x_max":614,"o":"m 614 4 q 523 -7 576 -3 q 426 -11 469 -11 q 213 24 279 -11 q 122 158 146 58 q 99 478 99 257 q 122 797 99 697 q 213 931 146 896 q 426 967 279 967 q 522 961 471 967 q 608 949 574 956 l 608 881 q 444 893 518 893 q 265 867 317 893 q 197 760 214 842 q 181 478 181 679 q 197 195 181 276 q 265 88 214 114 q 444 63 317 63 q 614 75 532 63 l 614 4 m 167 1042 l 167 1049 l 294 1233 l 385 1233 l 513 1049 l 513 1042 l 456 1042 l 339 1182 l 224 1042 l 167 1042 z "},"Ċ":{"ha":681,"x_min":99,"x_max":614,"o":"m 614 4 q 523 -7 576 -3 q 426 -11 469 -11 q 213 24 279 -11 q 122 158 146 58 q 99 478 99 257 q 122 797 99 697 q 213 931 146 896 q 426 967 279 967 q 522 961 471 967 q 608 949 574 956 l 608 881 q 444 893 518 893 q 265 867 317 893 q 197 760 214 842 q 181 478 181 679 q 197 195 181 276 q 265 88 214 114 q 444 63 317 63 q 614 75 532 63 l 614 4 m 300 1118 l 300 1215 l 381 1215 l 381 1118 l 300 1118 z "},"D":{"ha":828,"x_min":128,"x_max":729,"o":"m 128 956 l 385 956 q 621 922 551 956 q 710 795 690 888 q 729 478 729 703 q 710 160 729 253 q 621 34 690 68 q 385 0 551 0 l 128 0 l 128 956 m 369 74 q 564 94 513 74 q 631 190 615 114 q 647 478 647 267 q 631 764 647 686 q 563 862 614 842 q 369 882 511 882 l 208 882 l 208 74 l 369 74 z "},"Ǳ":{"ha":1542,"x_min":128,"x_max":1485,"o":"m 128 956 l 385 956 q 621 922 551 956 q 710 795 690 888 q 729 478 729 703 q 710 160 729 253 q 621 34 690 68 q 385 0 551 0 l 128 0 l 128 956 m 369 74 q 564 94 513 74 q 631 190 615 114 q 647 478 647 267 q 631 764 647 686 q 563 862 614 842 q 369 882 511 882 l 208 882 l 208 74 l 369 74 m 889 0 l 889 69 l 1378 882 l 903 882 l 903 956 l 1476 956 l 1476 888 l 988 72 l 1485 72 l 1485 0 l 889 0 z "},"Ǆ":{"ha":1542,"x_min":128,"x_max":1485,"o":"m 128 956 l 385 956 q 621 922 551 956 q 710 795 690 888 q 729 478 729 703 q 710 160 729 253 q 621 34 690 68 q 385 0 551 0 l 128 0 l 128 956 m 369 74 q 564 94 513 74 q 631 190 615 114 q 647 478 647 267 q 631 764 647 686 q 563 862 614 842 q 369 882 511 882 l 208 882 l 208 74 l 369 74 m 889 0 l 889 69 l 1378 882 l 903 882 l 903 956 l 1476 956 l 1476 888 l 988 72 l 1485 72 l 1485 0 l 889 0 m 1142 1042 l 1014 1225 l 1014 1233 l 1071 1233 l 1186 1092 l 1303 1233 l 1360 1233 l 1360 1225 l 1232 1042 l 1142 1042 z "},"Ð":{"ha":828,"x_min":39,"x_max":729,"o":"m 128 449 l 39 449 l 39 521 l 128 521 l 128 956 l 385 956 q 621 922 551 956 q 710 795 690 888 q 729 478 729 703 q 710 160 729 253 q 621 34 690 68 q 385 0 551 0 l 128 0 l 128 449 m 369 74 q 564 94 513 74 q 631 190 615 114 q 647 478 647 267 q 631 764 647 686 q 563 862 614 842 q 369 882 511 882 l 208 882 l 208 521 l 368 521 l 368 449 l 208 449 l 208 74 l 369 74 z "},"Ď":{"ha":828,"x_min":128,"x_max":729,"o":"m 128 956 l 385 956 q 621 922 551 956 q 710 795 690 888 q 729 478 729 703 q 710 160 729 253 q 621 34 690 68 q 385 0 551 0 l 128 0 l 128 956 m 369 74 q 564 94 513 74 q 631 190 615 114 q 647 478 647 267 q 631 764 647 686 q 563 862 614 842 q 369 882 511 882 l 208 882 l 208 74 l 369 74 m 371 1042 l 243 1225 l 243 1233 l 300 1233 l 415 1092 l 532 1233 l 589 1233 l 589 1225 l 461 1042 l 371 1042 z "},"Đ":{"ha":828,"x_min":39,"x_max":729,"o":"m 128 449 l 39 449 l 39 521 l 128 521 l 128 956 l 385 956 q 621 922 551 956 q 710 795 690 888 q 729 478 729 703 q 710 160 729 253 q 621 34 690 68 q 385 0 551 0 l 128 0 l 128 449 m 369 74 q 564 94 513 74 q 631 190 615 114 q 647 478 647 267 q 631 764 647 686 q 563 862 614 842 q 369 882 511 882 l 208 882 l 208 521 l 368 521 l 368 449 l 208 449 l 208 74 l 369 74 z "},"Ḍ":{"ha":828,"x_min":128,"x_max":729,"o":"m 128 956 l 385 956 q 621 922 551 956 q 710 795 690 888 q 729 478 729 703 q 710 160 729 253 q 621 34 690 68 q 385 0 551 0 l 128 0 l 128 956 m 369 74 q 564 94 513 74 q 631 190 615 114 q 647 478 647 267 q 631 764 647 686 q 563 862 614 842 q 369 882 511 882 l 208 882 l 208 74 l 369 74 m 368 -197 l 368 -86 l 463 -86 l 463 -197 l 368 -197 z "},"ǲ":{"ha":1435,"x_min":128,"x_max":1372,"o":"m 128 956 l 385 956 q 621 922 551 956 q 710 795 690 888 q 729 478 729 703 q 710 160 729 253 q 621 34 690 68 q 385 0 551 0 l 128 0 l 128 956 m 369 74 q 564 94 513 74 q 631 190 615 114 q 647 478 647 267 q 631 764 647 686 q 563 862 614 842 q 369 882 511 882 l 208 882 l 208 74 l 369 74 m 890 0 l 890 63 l 1272 640 l 904 640 l 904 708 l 1369 708 l 1369 647 l 988 68 l 1372 68 l 1372 0 l 890 0 z "},"ǅ":{"ha":1435,"x_min":128,"x_max":1372,"o":"m 128 956 l 385 956 q 621 922 551 956 q 710 795 690 888 q 729 478 729 703 q 710 160 729 253 q 621 34 690 68 q 385 0 551 0 l 128 0 l 128 956 m 369 74 q 564 94 513 74 q 631 190 615 114 q 647 478 647 267 q 631 764 647 686 q 563 862 614 842 q 369 882 511 882 l 208 882 l 208 74 l 369 74 m 890 0 l 890 63 l 1272 640 l 904 640 l 904 708 l 1369 708 l 1369 647 l 988 68 l 1372 68 l 1372 0 l 890 0 m 1101 840 l 974 1024 l 974 1032 l 1031 1032 l 1146 890 l 1263 1032 l 1319 1032 l 1319 1024 l 1192 840 l 1101 840 z "},"E":{"ha":718,"x_min":128,"x_max":651,"o":"m 128 0 l 128 956 l 651 956 l 651 882 l 210 882 l 210 519 l 596 519 l 596 447 l 210 447 l 210 74 l 651 74 l 651 0 l 128 0 z "},"É":{"ha":718,"x_min":128,"x_max":651,"o":"m 128 0 l 128 956 l 651 956 l 651 882 l 210 882 l 210 519 l 596 519 l 596 447 l 210 447 l 210 74 l 651 74 l 651 0 l 128 0 m 353 1042 l 353 1049 l 465 1236 l 553 1236 l 553 1229 l 411 1042 l 353 1042 z "},"Ĕ":{"ha":718,"x_min":128,"x_max":651,"o":"m 128 0 l 128 956 l 651 956 l 651 882 l 210 882 l 210 519 l 596 519 l 596 447 l 210 447 l 210 74 l 651 74 l 651 0 l 128 0 m 557 1233 q 548 1124 557 1164 q 502 1061 539 1085 q 388 1038 465 1038 q 274 1061 310 1038 q 228 1124 238 1085 q 219 1233 219 1163 l 278 1233 q 283 1149 278 1176 q 313 1106 289 1121 q 388 1090 336 1090 q 463 1106 439 1090 q 493 1149 488 1121 q 499 1233 499 1178 l 557 1233 z "},"Ě":{"ha":718,"x_min":128,"x_max":651,"o":"m 128 0 l 128 956 l 651 956 l 651 882 l 210 882 l 210 519 l 596 519 l 596 447 l 210 447 l 210 74 l 651 74 l 651 0 l 128 0 m 344 1042 l 217 1225 l 217 1233 l 274 1233 l 389 1092 l 506 1233 l 563 1233 l 563 1225 l 435 1042 l 344 1042 z "},"Ê":{"ha":718,"x_min":128,"x_max":651,"o":"m 128 0 l 128 956 l 651 956 l 651 882 l 210 882 l 210 519 l 596 519 l 596 447 l 210 447 l 210 74 l 651 74 l 651 0 l 128 0 m 219 1042 l 219 1049 l 347 1233 l 438 1233 l 565 1049 l 565 1042 l 508 1042 l 392 1182 l 276 1042 l 219 1042 z "},"Ế":{"ha":718,"x_min":128,"x_max":667,"o":"m 128 0 l 128 956 l 651 956 l 651 882 l 210 882 l 210 519 l 596 519 l 596 447 l 210 447 l 210 74 l 651 74 l 651 0 l 128 0 m 213 1036 l 213 1043 l 340 1228 l 431 1228 l 558 1043 l 558 1036 l 501 1036 l 385 1176 l 269 1036 l 213 1036 m 467 1239 l 467 1246 l 579 1433 l 667 1433 l 667 1426 l 525 1239 l 467 1239 z "},"Ệ":{"ha":718,"x_min":128,"x_max":651,"o":"m 128 0 l 128 956 l 651 956 l 651 882 l 210 882 l 210 519 l 596 519 l 596 447 l 210 447 l 210 74 l 651 74 l 651 0 l 128 0 m 342 -197 l 342 -86 l 436 -86 l 436 -197 l 342 -197 m 215 1042 l 215 1049 l 343 1233 l 433 1233 l 561 1049 l 561 1042 l 504 1042 l 388 1182 l 272 1042 l 215 1042 z "},"Ề":{"ha":718,"x_min":128,"x_max":651,"o":"m 128 0 l 128 956 l 651 956 l 651 882 l 210 882 l 210 519 l 596 519 l 596 447 l 210 447 l 210 74 l 651 74 l 651 0 l 128 0 m 211 1033 l 211 1040 l 339 1225 l 429 1225 l 557 1040 l 557 1033 l 500 1033 l 383 1174 l 268 1033 l 211 1033 m 504 1235 l 363 1422 l 363 1429 l 451 1429 l 563 1242 l 563 1235 l 504 1235 z "},"Ể":{"ha":718,"x_min":128,"x_max":657,"o":"m 128 0 l 128 956 l 651 956 l 651 882 l 210 882 l 210 519 l 596 519 l 596 447 l 210 447 l 210 74 l 651 74 l 651 0 l 128 0 m 215 1033 l 215 1040 l 343 1225 l 433 1225 l 561 1040 l 561 1033 l 504 1033 l 388 1174 l 272 1033 l 215 1033 m 443 1247 q 455 1292 443 1279 q 500 1317 467 1306 l 528 1325 q 583 1347 571 1336 q 596 1383 596 1357 q 586 1418 596 1407 q 555 1432 576 1429 q 486 1435 533 1435 q 354 1428 433 1435 l 354 1479 q 496 1489 429 1489 q 622 1469 586 1489 q 657 1390 657 1449 q 644 1328 657 1349 q 585 1292 631 1307 l 554 1282 q 515 1268 525 1274 q 501 1256 504 1263 q 499 1232 499 1249 l 443 1232 l 443 1247 z "},"Ễ":{"ha":718,"x_min":128,"x_max":651,"o":"m 128 0 l 128 956 l 651 956 l 651 882 l 210 882 l 210 519 l 596 519 l 596 447 l 210 447 l 210 74 l 651 74 l 651 0 l 128 0 m 213 1033 l 213 1040 l 340 1225 l 431 1225 l 558 1040 l 558 1033 l 501 1033 l 385 1174 l 269 1033 l 213 1033 m 606 1465 q 589 1353 606 1383 q 518 1322 572 1322 q 453 1331 486 1322 q 375 1357 421 1340 q 310 1378 336 1371 q 261 1386 285 1386 q 228 1369 236 1386 q 221 1307 221 1353 l 169 1307 q 186 1419 169 1389 q 257 1450 203 1450 q 320 1441 289 1450 q 401 1414 351 1432 q 465 1393 440 1400 q 514 1386 490 1386 q 547 1402 540 1386 q 554 1465 554 1418 l 606 1465 z "},"Ȅ":{"ha":718,"x_min":125,"x_max":651,"o":"m 128 0 l 128 956 l 651 956 l 651 882 l 210 882 l 210 519 l 596 519 l 596 447 l 210 447 l 210 74 l 651 74 l 651 0 l 128 0 m 314 1044 l 261 1044 l 125 1219 l 125 1226 l 206 1226 l 314 1051 l 314 1044 m 542 1044 l 488 1044 l 351 1219 l 351 1226 l 433 1226 l 542 1051 l 542 1044 z "},"Ë":{"ha":718,"x_min":128,"x_max":651,"o":"m 128 0 l 128 956 l 651 956 l 651 882 l 210 882 l 210 519 l 596 519 l 596 447 l 210 447 l 210 74 l 651 74 l 651 0 l 128 0 m 231 1072 l 231 1169 l 311 1169 l 311 1072 l 231 1072 m 479 1072 l 479 1169 l 560 1169 l 560 1072 l 479 1072 z "},"Ė":{"ha":718,"x_min":128,"x_max":651,"o":"m 128 0 l 128 956 l 651 956 l 651 882 l 210 882 l 210 519 l 596 519 l 596 447 l 210 447 l 210 74 l 651 74 l 651 0 l 128 0 m 349 1118 l 349 1215 l 429 1215 l 429 1118 l 349 1118 z "},"Ẹ":{"ha":718,"x_min":128,"x_max":651,"o":"m 128 0 l 128 956 l 651 956 l 651 882 l 210 882 l 210 519 l 596 519 l 596 447 l 210 447 l 210 74 l 651 74 l 651 0 l 128 0 m 342 -197 l 342 -86 l 436 -86 l 436 -197 l 342 -197 z "},"È":{"ha":718,"x_min":128,"x_max":651,"o":"m 128 0 l 128 956 l 651 956 l 651 882 l 210 882 l 210 519 l 596 519 l 596 447 l 210 447 l 210 74 l 651 74 l 651 0 l 128 0 m 381 1042 l 239 1229 l 239 1236 l 328 1236 l 439 1049 l 439 1042 l 381 1042 z "},"Ẻ":{"ha":718,"x_min":128,"x_max":651,"o":"m 128 0 l 128 956 l 651 956 l 651 882 l 210 882 l 210 519 l 596 519 l 596 447 l 210 447 l 210 74 l 651 74 l 651 0 l 128 0 m 325 1031 q 337 1076 325 1063 q 382 1100 349 1089 l 410 1108 q 465 1131 453 1119 q 478 1168 478 1142 q 468 1202 478 1192 q 437 1215 458 1213 q 368 1218 415 1218 q 236 1213 331 1218 l 236 1263 q 378 1272 311 1272 q 503 1252 468 1272 q 539 1175 539 1232 q 526 1111 539 1132 q 467 1075 513 1090 l 436 1067 q 397 1053 408 1058 q 383 1040 386 1047 q 381 1015 381 1032 l 325 1015 l 325 1031 z "},"Ȇ":{"ha":718,"x_min":128,"x_max":651,"o":"m 128 0 l 128 956 l 651 956 l 651 882 l 210 882 l 210 519 l 596 519 l 596 447 l 210 447 l 210 74 l 651 74 l 651 0 l 128 0 m 219 1046 q 228 1155 219 1115 q 274 1218 238 1194 q 389 1242 311 1242 q 503 1218 467 1242 q 548 1156 539 1194 q 557 1046 557 1117 l 499 1046 q 493 1131 499 1103 q 464 1174 488 1158 q 389 1189 440 1189 q 313 1174 338 1189 q 283 1130 289 1158 q 278 1046 278 1101 l 219 1046 z "},"Ē":{"ha":718,"x_min":128,"x_max":651,"o":"m 128 0 l 128 956 l 651 956 l 651 882 l 210 882 l 210 519 l 596 519 l 596 447 l 210 447 l 210 74 l 651 74 l 651 0 l 128 0 m 240 1158 l 240 1232 l 535 1232 l 535 1158 l 240 1158 z "},"Ę":{"ha":718,"x_min":128,"x_max":651,"o":"m 606 -272 q 517 -244 546 -272 q 489 -172 489 -217 q 514 -83 489 -128 q 581 0 539 -39 l 128 0 l 128 956 l 651 956 l 651 882 l 210 882 l 210 519 l 596 519 l 596 446 l 210 446 l 210 74 l 651 74 l 651 0 q 588 -72 617 -26 q 558 -156 558 -117 q 574 -197 558 -181 q 622 -214 589 -214 q 646 -212 636 -214 l 646 -269 q 606 -272 621 -272 z "},"Ẽ":{"ha":718,"x_min":128,"x_max":651,"o":"m 128 0 l 128 956 l 651 956 l 651 882 l 210 882 l 210 519 l 596 519 l 596 447 l 210 447 l 210 74 l 651 74 l 651 0 l 128 0 m 606 1233 q 589 1121 606 1151 q 518 1090 572 1090 q 453 1099 486 1090 q 375 1125 421 1108 q 310 1147 336 1139 q 261 1154 285 1154 q 228 1138 236 1154 q 221 1075 221 1121 l 169 1075 q 186 1188 169 1157 q 257 1218 203 1218 q 320 1209 289 1218 q 401 1182 351 1200 q 465 1161 440 1168 q 514 1154 490 1154 q 547 1170 540 1154 q 554 1233 554 1186 l 606 1233 z "},"F":{"ha":675,"x_min":128,"x_max":628,"o":"m 128 0 l 128 956 l 628 956 l 628 882 l 210 882 l 210 499 l 583 499 l 583 426 l 210 426 l 210 0 l 128 0 z "},"G":{"ha":811,"x_min":99,"x_max":703,"o":"m 421 426 l 421 499 l 703 499 l 703 14 q 574 -4 647 3 q 443 -11 500 -11 q 223 24 293 -11 q 126 160 153 60 q 99 478 99 261 q 126 794 99 693 q 224 931 153 894 q 444 967 294 967 q 580 959 507 967 q 700 940 653 951 l 700 872 q 588 887 650 881 q 488 893 526 893 q 285 872 343 893 q 204 767 228 851 q 181 478 181 683 q 198 203 181 286 q 268 91 215 121 q 443 61 321 61 q 535 65 482 61 q 624 75 588 69 l 624 426 l 421 426 z "},"Ǵ":{"ha":811,"x_min":99,"x_max":703,"o":"m 421 426 l 421 499 l 703 499 l 703 14 q 574 -4 647 3 q 443 -11 500 -11 q 223 24 293 -11 q 126 160 153 60 q 99 478 99 261 q 126 794 99 693 q 224 931 153 894 q 444 967 294 967 q 580 959 507 967 q 700 940 653 951 l 700 872 q 588 887 650 881 q 488 893 526 893 q 285 872 343 893 q 204 767 228 851 q 181 478 181 683 q 198 203 181 286 q 268 91 215 121 q 443 61 321 61 q 535 65 482 61 q 624 75 588 69 l 624 426 l 421 426 m 367 1039 l 367 1046 l 479 1233 l 567 1233 l 567 1226 l 425 1039 l 367 1039 z "},"Ğ":{"ha":811,"x_min":99,"x_max":703,"o":"m 421 426 l 421 499 l 703 499 l 703 14 q 574 -4 647 3 q 443 -11 500 -11 q 223 24 293 -11 q 126 160 153 60 q 99 478 99 261 q 126 794 99 693 q 224 931 153 894 q 444 967 294 967 q 580 959 507 967 q 700 940 653 951 l 700 872 q 588 887 650 881 q 488 893 526 893 q 285 872 343 893 q 204 767 228 851 q 181 478 181 683 q 198 203 181 286 q 268 91 215 121 q 443 61 321 61 q 535 65 482 61 q 624 75 588 69 l 624 426 l 421 426 m 574 1233 q 565 1124 574 1164 q 519 1061 556 1085 q 404 1038 482 1038 q 290 1061 326 1038 q 245 1124 254 1085 q 236 1233 236 1163 l 294 1233 q 300 1149 294 1176 q 329 1106 306 1121 q 404 1090 353 1090 q 480 1106 456 1090 q 510 1149 504 1121 q 515 1233 515 1178 l 574 1233 z "},"Ǧ":{"ha":811,"x_min":99,"x_max":703,"o":"m 421 426 l 421 499 l 703 499 l 703 14 q 574 -4 647 3 q 443 -11 500 -11 q 223 24 293 -11 q 126 160 153 60 q 99 478 99 261 q 126 794 99 693 q 224 931 153 894 q 444 967 294 967 q 580 959 507 967 q 700 940 653 951 l 700 872 q 588 887 650 881 q 488 893 526 893 q 285 872 343 893 q 204 767 228 851 q 181 478 181 683 q 198 203 181 286 q 268 91 215 121 q 443 61 321 61 q 535 65 482 61 q 624 75 588 69 l 624 426 l 421 426 m 361 1042 l 233 1225 l 233 1233 l 290 1233 l 406 1092 l 522 1233 l 579 1233 l 579 1225 l 451 1042 l 361 1042 z "},"Ĝ":{"ha":811,"x_min":99,"x_max":703,"o":"m 421 426 l 421 499 l 703 499 l 703 14 q 574 -4 647 3 q 443 -11 500 -11 q 223 24 293 -11 q 126 160 153 60 q 99 478 99 261 q 126 794 99 693 q 224 931 153 894 q 444 967 294 967 q 580 959 507 967 q 700 940 653 951 l 700 872 q 588 887 650 881 q 488 893 526 893 q 285 872 343 893 q 204 767 228 851 q 181 478 181 683 q 198 203 181 286 q 268 91 215 121 q 443 61 321 61 q 535 65 482 61 q 624 75 588 69 l 624 426 l 421 426 m 232 1042 l 232 1049 l 360 1233 l 450 1233 l 578 1049 l 578 1042 l 521 1042 l 404 1182 l 289 1042 l 232 1042 z "},"Ģ":{"ha":811,"x_min":99,"x_max":703,"o":"m 421 426 l 421 499 l 703 499 l 703 14 q 574 -4 647 3 q 443 -11 500 -11 q 223 24 293 -11 q 126 160 153 60 q 99 478 99 261 q 126 794 99 693 q 224 931 153 894 q 444 967 294 967 q 580 959 507 967 q 700 940 653 951 l 700 872 q 588 887 650 881 q 488 893 526 893 q 285 872 343 893 q 204 767 228 851 q 181 478 181 683 q 198 203 181 286 q 268 91 215 121 q 443 61 321 61 q 535 65 482 61 q 624 75 588 69 l 624 426 l 421 426 m 343 -300 q 401 -284 389 -300 q 414 -218 414 -268 l 414 -194 l 375 -194 l 375 -86 l 468 -86 l 468 -193 q 458 -285 468 -254 q 423 -328 449 -315 q 343 -340 397 -340 l 343 -300 z "},"Ġ":{"ha":811,"x_min":99,"x_max":703,"o":"m 421 426 l 421 499 l 703 499 l 703 14 q 574 -4 647 3 q 443 -11 500 -11 q 223 24 293 -11 q 126 160 153 60 q 99 478 99 261 q 126 794 99 693 q 224 931 153 894 q 444 967 294 967 q 580 959 507 967 q 700 940 653 951 l 700 872 q 588 887 650 881 q 488 893 526 893 q 285 872 343 893 q 204 767 228 851 q 181 478 181 683 q 198 203 181 286 q 268 91 215 121 q 443 61 321 61 q 535 65 482 61 q 624 75 588 69 l 624 426 l 421 426 m 365 1118 l 365 1215 l 446 1215 l 446 1118 l 365 1118 z "},"H":{"ha":881,"x_min":128,"x_max":754,"o":"m 672 0 l 672 444 l 208 444 l 208 0 l 128 0 l 128 956 l 208 956 l 208 521 l 672 521 l 672 956 l 754 956 l 754 0 l 672 0 z "},"Ħ":{"ha":881,"x_min":128,"x_max":754,"o":"m 672 956 l 754 956 l 754 0 l 672 0 l 672 410 l 208 410 l 208 0 l 128 0 l 128 956 l 208 956 l 208 751 l 672 751 l 672 956 m 208 485 l 672 485 l 672 678 l 208 678 l 208 485 z "},"Ĥ":{"ha":881,"x_min":128,"x_max":754,"o":"m 672 0 l 672 444 l 208 444 l 208 0 l 128 0 l 128 956 l 208 956 l 208 521 l 672 521 l 672 956 l 754 956 l 754 0 l 672 0 m 267 1042 l 267 1049 l 394 1233 l 485 1233 l 613 1049 l 613 1042 l 556 1042 l 439 1182 l 324 1042 l 267 1042 z "},"Ḥ":{"ha":881,"x_min":128,"x_max":754,"o":"m 672 0 l 672 444 l 208 444 l 208 0 l 128 0 l 128 956 l 208 956 l 208 521 l 672 521 l 672 956 l 754 956 l 754 0 l 672 0 m 393 -197 l 393 -86 l 488 -86 l 488 -197 l 393 -197 z "},"I":{"ha":340,"x_min":129,"x_max":211,"o":"m 129 0 l 129 956 l 211 956 l 211 0 l 129 0 z "},"Ĳ":{"ha":743,"x_min":129,"x_max":626,"o":"m 129 0 l 129 956 l 211 956 l 211 0 l 129 0 m 379 71 q 499 88 468 74 q 537 149 529 101 q 544 336 544 196 l 544 956 l 626 956 l 626 364 q 613 108 626 176 q 554 21 600 40 q 379 0 508 1 l 379 71 z "},"Í":{"ha":340,"x_min":125,"x_max":325,"o":"m 129 0 l 129 956 l 211 956 l 211 0 l 129 0 m 125 1042 l 125 1049 l 238 1236 l 325 1236 l 325 1229 l 183 1042 l 125 1042 z "},"Ĭ":{"ha":340,"x_min":1,"x_max":339,"o":"m 129 0 l 129 956 l 211 956 l 211 0 l 129 0 m 339 1233 q 330 1124 339 1164 q 284 1061 321 1085 q 169 1038 247 1038 q 56 1061 92 1038 q 10 1124 19 1085 q 1 1233 1 1163 l 60 1233 q 65 1149 60 1176 q 94 1106 71 1121 q 169 1090 118 1090 q 245 1106 221 1090 q 275 1149 269 1121 q 281 1233 281 1178 l 339 1233 z "},"Ǐ":{"ha":340,"x_min":-1,"x_max":344,"o":"m 129 0 l 129 956 l 211 956 l 211 0 l 129 0 m 126 1042 l -1 1225 l -1 1233 l 56 1233 l 171 1092 l 288 1233 l 344 1233 l 344 1225 l 217 1042 l 126 1042 z "},"Î":{"ha":340,"x_min":-3,"x_max":343,"o":"m 129 0 l 129 956 l 211 956 l 211 0 l 129 0 m -3 1042 l -3 1049 l 125 1233 l 215 1233 l 343 1049 l 343 1042 l 286 1042 l 169 1182 l 54 1042 l -3 1042 z "},"Ȉ":{"ha":340,"x_min":-93,"x_max":324,"o":"m 129 0 l 129 956 l 211 956 l 211 0 l 129 0 m 96 1044 l 43 1044 l -93 1219 l -93 1226 l -12 1226 l 96 1051 l 96 1044 m 324 1044 l 269 1044 l 133 1219 l 133 1226 l 215 1226 l 324 1051 l 324 1044 z "},"Ï":{"ha":340,"x_min":6,"x_max":335,"o":"m 129 0 l 129 956 l 211 956 l 211 0 l 129 0 m 6 1072 l 6 1169 l 86 1169 l 86 1072 l 6 1072 m 254 1072 l 254 1169 l 335 1169 l 335 1072 l 254 1072 z "},"İ":{"ha":340,"x_min":129,"x_max":211,"o":"m 129 0 l 129 956 l 211 956 l 211 0 l 129 0 m 131 1118 l 131 1215 l 211 1215 l 211 1118 l 131 1118 z "},"Ị":{"ha":340,"x_min":124,"x_max":218,"o":"m 129 0 l 129 956 l 211 956 l 211 0 l 129 0 m 124 -197 l 124 -86 l 218 -86 l 218 -197 l 124 -197 z "},"Ì":{"ha":340,"x_min":18,"x_max":218,"o":"m 129 0 l 129 956 l 211 956 l 211 0 l 129 0 m 160 1042 l 18 1229 l 18 1236 l 107 1236 l 218 1049 l 218 1042 l 160 1042 z "},"Ỉ":{"ha":340,"x_min":18,"x_max":321,"o":"m 129 0 l 129 956 l 211 956 l 211 0 l 129 0 m 107 1031 q 119 1076 107 1063 q 164 1100 131 1089 l 192 1108 q 247 1131 235 1119 q 260 1168 260 1142 q 250 1202 260 1192 q 219 1215 240 1213 q 150 1218 197 1218 q 18 1213 113 1218 l 18 1263 q 160 1272 93 1272 q 285 1252 250 1272 q 321 1175 321 1232 q 308 1111 321 1132 q 249 1075 294 1090 l 218 1067 q 179 1053 190 1058 q 165 1040 168 1047 q 163 1015 163 1032 l 107 1015 l 107 1031 z "},"Ȋ":{"ha":340,"x_min":1,"x_max":339,"o":"m 129 0 l 129 956 l 211 956 l 211 0 l 129 0 m 1 1046 q 10 1155 1 1115 q 56 1218 19 1194 q 171 1242 93 1242 q 285 1218 249 1242 q 330 1156 321 1194 q 339 1046 339 1117 l 281 1046 q 275 1131 281 1103 q 246 1174 269 1158 q 171 1189 222 1189 q 95 1174 119 1189 q 65 1130 71 1158 q 60 1046 60 1101 l 1 1046 z "},"Ī":{"ha":340,"x_min":22,"x_max":317,"o":"m 129 0 l 129 956 l 211 956 l 211 0 l 129 0 m 22 1158 l 22 1232 l 317 1232 l 317 1158 l 22 1158 z "},"Į":{"ha":340,"x_min":56,"x_max":213,"o":"m 171 -272 q 83 -244 110 -272 q 56 -168 56 -215 q 79 -83 56 -129 q 140 0 103 -37 l 129 0 l 129 956 l 211 956 l 211 0 q 153 -72 181 -26 q 125 -154 125 -118 q 189 -214 125 -214 q 213 -212 203 -214 l 213 -269 q 171 -272 188 -272 z "},"Ĩ":{"ha":340,"x_min":-49,"x_max":388,"o":"m 129 0 l 129 956 l 211 956 l 211 0 l 129 0 m 388 1233 q 371 1121 388 1151 q 300 1090 354 1090 q 235 1099 268 1090 q 157 1125 203 1108 q 92 1147 118 1139 q 43 1154 67 1154 q 10 1138 18 1154 q 3 1075 3 1121 l -49 1075 q -32 1188 -49 1157 q 39 1218 -15 1218 q 102 1209 71 1218 q 183 1182 133 1200 q 247 1161 222 1168 q 296 1154 272 1154 q 329 1170 322 1154 q 336 1233 336 1186 l 388 1233 z "},"J":{"ha":403,"x_min":39,"x_max":286,"o":"m 39 71 q 158 88 128 74 q 197 149 189 101 q 204 336 204 196 l 204 956 l 286 956 l 286 364 q 273 108 286 176 q 214 21 260 40 q 39 0 168 1 l 39 71 z "},"Ĵ":{"ha":403,"x_min":39,"x_max":418,"o":"m 39 71 q 158 88 128 74 q 197 149 189 101 q 204 336 204 196 l 204 956 l 286 956 l 286 364 q 273 108 286 176 q 214 21 260 40 q 39 0 168 1 l 39 71 m 72 1042 l 72 1049 l 200 1233 l 290 1233 l 418 1049 l 418 1042 l 361 1042 l 244 1182 l 129 1042 l 72 1042 z "},"K":{"ha":799,"x_min":128,"x_max":761,"o":"m 668 0 l 379 449 l 208 449 l 208 0 l 128 0 l 128 956 l 208 956 l 208 521 l 379 521 l 668 956 l 758 956 l 446 488 l 761 0 l 668 0 z "},"Ķ":{"ha":799,"x_min":128,"x_max":761,"o":"m 668 0 l 379 449 l 208 449 l 208 0 l 128 0 l 128 956 l 208 956 l 208 521 l 379 521 l 668 956 l 758 956 l 446 488 l 761 0 l 668 0 m 338 -300 q 396 -284 383 -300 q 408 -218 408 -268 l 408 -194 l 369 -194 l 369 -86 l 463 -86 l 463 -193 q 453 -285 463 -254 q 417 -328 443 -315 q 338 -340 392 -340 l 338 -300 z "},"L":{"ha":638,"x_min":128,"x_max":604,"o":"m 128 0 l 128 956 l 210 956 l 210 75 l 604 75 l 604 0 l 128 0 z "},"Ǉ":{"ha":1040,"x_min":128,"x_max":924,"o":"m 128 0 l 128 956 l 210 956 l 210 75 l 604 75 l 604 0 l 128 0 m 676 71 q 796 88 765 74 q 834 149 826 101 q 842 336 842 196 l 842 956 l 924 956 l 924 364 q 910 108 924 176 q 851 21 897 40 q 676 0 806 1 l 676 71 z "},"Ĺ":{"ha":638,"x_min":128,"x_max":604,"o":"m 128 0 l 128 956 l 210 956 l 210 75 l 604 75 l 604 0 l 128 0 m 139 1039 l 139 1046 l 251 1233 l 339 1233 l 339 1226 l 197 1039 l 139 1039 z "},"Ľ":{"ha":638,"x_min":128,"x_max":604,"o":"m 128 0 l 128 956 l 210 956 l 210 75 l 604 75 l 604 0 l 128 0 m 406 639 l 425 857 l 425 971 l 504 971 l 504 857 l 460 639 l 406 639 z "},"Ļ":{"ha":638,"x_min":128,"x_max":604,"o":"m 128 0 l 128 956 l 210 956 l 210 75 l 604 75 l 604 0 l 128 0 m 278 -300 q 336 -284 324 -300 q 349 -218 349 -268 l 349 -194 l 310 -194 l 310 -86 l 403 -86 l 403 -193 q 393 -285 403 -254 q 358 -328 383 -315 q 278 -340 332 -340 l 278 -300 z "},"Ŀ":{"ha":638,"x_min":128,"x_max":604,"o":"m 128 0 l 128 956 l 210 956 l 210 75 l 604 75 l 604 0 l 128 0 m 450 443 l 450 554 l 544 554 l 544 443 l 450 443 z "},"ǈ":{"ha":940,"x_min":128,"x_max":832,"o":"m 128 0 l 128 956 l 210 956 l 210 75 l 604 75 l 604 0 l 128 0 m 746 928 l 746 1032 l 832 1032 l 832 928 l 746 928 m 631 -210 q 710 -203 685 -210 q 742 -181 735 -196 q 750 -132 750 -165 l 750 708 l 828 708 l 828 -110 q 808 -219 828 -185 q 750 -264 789 -254 q 631 -274 711 -274 l 631 -210 z "},"Ł":{"ha":638,"x_min":46,"x_max":604,"o":"m 210 75 l 604 75 l 604 0 l 128 0 l 128 410 l 46 379 l 46 449 l 128 479 l 128 956 l 210 956 l 210 510 l 451 599 l 451 528 l 210 439 l 210 75 z "},"M":{"ha":1101,"x_min":128,"x_max":974,"o":"m 893 0 l 893 810 l 888 810 l 585 0 l 513 0 l 211 810 l 206 810 l 206 0 l 128 0 l 128 956 l 242 956 l 547 135 l 554 135 l 861 956 l 974 956 l 974 0 l 893 0 z "},"N":{"ha":882,"x_min":128,"x_max":754,"o":"m 674 0 l 211 790 l 206 790 l 206 0 l 128 0 l 128 956 l 211 956 l 669 174 l 675 174 l 675 956 l 754 956 l 754 0 l 674 0 z "},"Ǌ":{"ha":1285,"x_min":128,"x_max":1168,"o":"m 674 0 l 211 790 l 206 790 l 206 0 l 128 0 l 128 956 l 211 956 l 669 174 l 675 174 l 675 956 l 754 956 l 754 0 l 674 0 m 921 71 q 1040 88 1010 74 q 1078 149 1071 101 q 1086 336 1086 196 l 1086 956 l 1168 956 l 1168 364 q 1155 108 1168 176 q 1096 21 1142 40 q 921 0 1050 1 l 921 71 z "},"Ń":{"ha":882,"x_min":128,"x_max":754,"o":"m 674 0 l 211 790 l 206 790 l 206 0 l 128 0 l 128 956 l 211 956 l 669 174 l 675 174 l 675 956 l 754 956 l 754 0 l 674 0 m 401 1039 l 401 1046 l 514 1233 l 601 1233 l 601 1226 l 460 1039 l 401 1039 z "},"Ň":{"ha":882,"x_min":128,"x_max":754,"o":"m 674 0 l 211 790 l 206 790 l 206 0 l 128 0 l 128 956 l 211 956 l 669 174 l 675 174 l 675 956 l 754 956 l 754 0 l 674 0 m 396 1042 l 268 1225 l 268 1233 l 325 1233 l 440 1092 l 557 1233 l 614 1233 l 614 1225 l 486 1042 l 396 1042 z "},"Ņ":{"ha":882,"x_min":128,"x_max":754,"o":"m 674 0 l 211 790 l 206 790 l 206 0 l 128 0 l 128 956 l 211 956 l 669 174 l 675 174 l 675 956 l 754 956 l 754 0 l 674 0 m 378 -300 q 436 -284 424 -300 q 449 -218 449 -268 l 449 -194 l 410 -194 l 410 -86 l 503 -86 l 503 -193 q 493 -285 503 -254 q 458 -328 483 -315 q 378 -340 432 -340 l 378 -300 z "},"Ṅ":{"ha":882,"x_min":128,"x_max":754,"o":"m 674 0 l 211 790 l 206 790 l 206 0 l 128 0 l 128 956 l 211 956 l 669 174 l 675 174 l 675 956 l 754 956 l 754 0 l 674 0 m 400 1118 l 400 1215 l 481 1215 l 481 1118 l 400 1118 z "},"Ŋ":{"ha":882,"x_min":128,"x_max":754,"o":"m 754 956 l 754 -110 q 735 -219 754 -185 q 676 -264 715 -254 q 557 -274 638 -274 l 557 -210 q 635 -203 611 -210 q 667 -181 660 -196 q 675 -132 675 -165 l 675 1 l 211 790 l 206 790 l 206 0 l 128 0 l 128 956 l 211 956 l 669 176 l 675 176 l 675 956 l 754 956 z "},"Ɲ":{"ha":882,"x_min":8,"x_max":754,"o":"m 754 956 l 754 0 l 674 0 l 211 790 l 206 790 l 206 -110 q 187 -219 206 -185 q 128 -264 168 -254 q 8 -274 89 -274 l 8 -210 q 88 -203 63 -210 q 120 -181 113 -196 q 128 -132 128 -165 l 128 956 l 211 956 l 669 174 l 675 174 l 675 956 l 754 956 z "},"ǋ":{"ha":1185,"x_min":128,"x_max":1076,"o":"m 674 0 l 211 790 l 206 790 l 206 0 l 128 0 l 128 956 l 211 956 l 669 174 l 675 174 l 675 956 l 754 956 l 754 0 l 674 0 m 990 928 l 990 1032 l 1076 1032 l 1076 928 l 990 928 m 875 -210 q 954 -203 929 -210 q 987 -181 979 -196 q 994 -132 994 -165 l 994 708 l 1072 708 l 1072 -110 q 1053 -219 1072 -185 q 994 -264 1033 -254 q 875 -274 956 -274 l 875 -210 z "},"Ñ":{"ha":882,"x_min":128,"x_max":754,"o":"m 674 0 l 211 790 l 206 790 l 206 0 l 128 0 l 128 956 l 211 956 l 669 174 l 675 174 l 675 956 l 754 956 l 754 0 l 674 0 m 661 1201 q 644 1089 661 1119 q 574 1058 628 1058 q 509 1067 542 1058 q 431 1093 476 1076 q 366 1115 392 1107 q 317 1122 340 1122 q 284 1106 292 1122 q 276 1043 276 1089 l 225 1043 q 242 1156 225 1125 q 313 1186 258 1186 q 376 1177 344 1186 q 457 1150 407 1168 q 521 1129 496 1136 q 569 1122 546 1122 q 603 1138 596 1122 q 610 1201 610 1154 l 661 1201 z "},"O":{"ha":865,"x_min":99,"x_max":767,"o":"m 432 -11 q 204 24 271 -11 q 118 153 138 58 q 99 478 99 249 q 118 802 99 707 q 204 932 138 897 q 432 967 271 967 q 661 932 594 967 q 747 802 728 897 q 767 478 767 707 q 747 153 767 249 q 661 24 728 58 q 432 -11 594 -11 m 432 63 q 607 83 560 63 q 669 185 654 104 q 685 478 685 265 q 669 771 685 690 q 607 872 654 851 q 432 893 560 893 q 258 872 306 893 q 196 771 211 851 q 181 478 181 690 q 196 185 181 265 q 258 83 211 104 q 432 63 306 63 z "},"Ó":{"ha":865,"x_min":99,"x_max":767,"o":"m 432 -11 q 204 24 271 -11 q 118 153 138 58 q 99 478 99 249 q 118 802 99 707 q 204 932 138 897 q 432 967 271 967 q 661 932 594 967 q 747 802 728 897 q 767 478 767 707 q 747 153 767 249 q 661 24 728 58 q 432 -11 594 -11 m 432 63 q 607 83 560 63 q 669 185 654 104 q 685 478 685 265 q 669 771 685 690 q 607 872 654 851 q 432 893 560 893 q 258 872 306 893 q 196 771 211 851 q 181 478 181 690 q 196 185 181 265 q 258 83 211 104 q 432 63 306 63 m 390 1042 l 390 1049 l 503 1236 l 590 1236 l 590 1229 l 449 1042 l 390 1042 z "},"Ŏ":{"ha":865,"x_min":99,"x_max":767,"o":"m 432 -11 q 204 24 271 -11 q 118 153 138 58 q 99 478 99 249 q 118 802 99 707 q 204 932 138 897 q 432 967 271 967 q 661 932 594 967 q 747 802 728 897 q 767 478 767 707 q 747 153 767 249 q 661 24 728 58 q 432 -11 594 -11 m 432 63 q 607 83 560 63 q 669 185 654 104 q 685 478 685 265 q 669 771 685 690 q 607 872 654 851 q 432 893 560 893 q 258 872 306 893 q 196 771 211 851 q 181 478 181 690 q 196 185 181 265 q 258 83 211 104 q 432 63 306 63 m 601 1233 q 592 1124 601 1164 q 547 1061 583 1085 q 432 1038 510 1038 q 318 1061 354 1038 q 273 1124 282 1085 q 264 1233 264 1163 l 322 1233 q 328 1149 322 1176 q 357 1106 333 1121 q 432 1090 381 1090 q 508 1106 483 1090 q 538 1149 532 1121 q 543 1233 543 1178 l 601 1233 z "},"Ǒ":{"ha":865,"x_min":99,"x_max":767,"o":"m 432 -11 q 204 24 271 -11 q 118 153 138 58 q 99 478 99 249 q 118 802 99 707 q 204 932 138 897 q 432 967 271 967 q 661 932 594 967 q 747 802 728 897 q 767 478 767 707 q 747 153 767 249 q 661 24 728 58 q 432 -11 594 -11 m 432 63 q 607 83 560 63 q 669 185 654 104 q 685 478 685 265 q 669 771 685 690 q 607 872 654 851 q 432 893 560 893 q 258 872 306 893 q 196 771 211 851 q 181 478 181 690 q 196 185 181 265 q 258 83 211 104 q 432 63 306 63 m 389 1042 l 261 1225 l 261 1233 l 318 1233 l 433 1092 l 550 1233 l 607 1233 l 607 1225 l 479 1042 l 389 1042 z "},"Ô":{"ha":865,"x_min":99,"x_max":767,"o":"m 432 -11 q 204 24 271 -11 q 118 153 138 58 q 99 478 99 249 q 118 802 99 707 q 204 932 138 897 q 432 967 271 967 q 661 932 594 967 q 747 802 728 897 q 767 478 767 707 q 747 153 767 249 q 661 24 728 58 q 432 -11 594 -11 m 432 63 q 607 83 560 63 q 669 185 654 104 q 685 478 685 265 q 669 771 685 690 q 607 872 654 851 q 432 893 560 893 q 258 872 306 893 q 196 771 211 851 q 181 478 181 690 q 196 185 181 265 q 258 83 211 104 q 432 63 306 63 m 260 1042 l 260 1049 l 388 1233 l 478 1233 l 606 1049 l 606 1042 l 549 1042 l 432 1182 l 317 1042 l 260 1042 z "},"Ố":{"ha":865,"x_min":99,"x_max":767,"o":"m 432 -11 q 204 24 271 -11 q 118 153 138 58 q 99 478 99 249 q 118 802 99 707 q 204 932 138 897 q 432 967 271 967 q 661 932 594 967 q 747 802 728 897 q 767 478 767 707 q 747 153 767 249 q 661 24 728 58 q 432 -11 594 -11 m 432 63 q 607 83 560 63 q 669 185 654 104 q 685 478 685 265 q 669 771 685 690 q 607 872 654 851 q 432 893 560 893 q 258 872 306 893 q 196 771 211 851 q 181 478 181 690 q 196 185 181 265 q 258 83 211 104 q 432 63 306 63 m 257 1036 l 257 1043 l 385 1228 l 475 1228 l 603 1043 l 603 1036 l 546 1036 l 429 1176 l 314 1036 l 257 1036 m 511 1239 l 511 1246 l 624 1433 l 711 1433 l 711 1426 l 569 1239 l 511 1239 z "},"Ộ":{"ha":865,"x_min":99,"x_max":767,"o":"m 432 -11 q 204 24 271 -11 q 118 153 138 58 q 99 478 99 249 q 118 802 99 707 q 204 932 138 897 q 432 967 271 967 q 661 932 594 967 q 747 802 728 897 q 767 478 767 707 q 747 153 767 249 q 661 24 728 58 q 432 -11 594 -11 m 432 63 q 607 83 560 63 q 669 185 654 104 q 685 478 685 265 q 669 771 685 690 q 607 872 654 851 q 432 893 560 893 q 258 872 306 893 q 196 771 211 851 q 181 478 181 690 q 196 185 181 265 q 258 83 211 104 q 432 63 306 63 m 386 -197 l 386 -86 l 481 -86 l 481 -197 l 386 -197 m 260 1042 l 260 1049 l 388 1233 l 478 1233 l 606 1049 l 606 1042 l 549 1042 l 432 1182 l 317 1042 l 260 1042 z "},"Ồ":{"ha":865,"x_min":99,"x_max":767,"o":"m 432 -11 q 204 24 271 -11 q 118 153 138 58 q 99 478 99 249 q 118 802 99 707 q 204 932 138 897 q 432 967 271 967 q 661 932 594 967 q 747 802 728 897 q 767 478 767 707 q 747 153 767 249 q 661 24 728 58 q 432 -11 594 -11 m 432 63 q 607 83 560 63 q 669 185 654 104 q 685 478 685 265 q 669 771 685 690 q 607 872 654 851 q 432 893 560 893 q 258 872 306 893 q 196 771 211 851 q 181 478 181 690 q 196 185 181 265 q 258 83 211 104 q 432 63 306 63 m 256 1033 l 256 1040 l 383 1225 l 474 1225 l 601 1040 l 601 1033 l 544 1033 l 428 1174 l 313 1033 l 256 1033 m 549 1235 l 407 1422 l 407 1429 l 496 1429 l 607 1242 l 607 1235 l 549 1235 z "},"Ổ":{"ha":865,"x_min":99,"x_max":767,"o":"m 432 -11 q 204 24 271 -11 q 118 153 138 58 q 99 478 99 249 q 118 802 99 707 q 204 932 138 897 q 432 967 271 967 q 661 932 594 967 q 747 802 728 897 q 767 478 767 707 q 747 153 767 249 q 661 24 728 58 q 432 -11 594 -11 m 432 63 q 607 83 560 63 q 669 185 654 104 q 685 478 685 265 q 669 771 685 690 q 607 872 654 851 q 432 893 560 893 q 258 872 306 893 q 196 771 211 851 q 181 478 181 690 q 196 185 181 265 q 258 83 211 104 q 432 63 306 63 m 260 1033 l 260 1040 l 388 1225 l 478 1225 l 606 1040 l 606 1033 l 549 1033 l 432 1174 l 317 1033 l 260 1033 m 488 1247 q 499 1292 488 1279 q 544 1317 511 1306 l 572 1325 q 628 1347 615 1336 q 640 1383 640 1357 q 631 1418 640 1407 q 599 1432 621 1429 q 531 1435 578 1435 q 399 1428 478 1435 l 399 1479 q 540 1489 474 1489 q 666 1469 631 1489 q 701 1390 701 1449 q 688 1328 701 1349 q 629 1292 675 1307 l 599 1282 q 559 1268 569 1274 q 546 1256 549 1263 q 543 1232 543 1249 l 488 1232 l 488 1247 z "},"Ỗ":{"ha":865,"x_min":99,"x_max":767,"o":"m 432 -11 q 204 24 271 -11 q 118 153 138 58 q 99 478 99 249 q 118 802 99 707 q 204 932 138 897 q 432 967 271 967 q 661 932 594 967 q 747 802 728 897 q 767 478 767 707 q 747 153 767 249 q 661 24 728 58 q 432 -11 594 -11 m 432 63 q 607 83 560 63 q 669 185 654 104 q 685 478 685 265 q 669 771 685 690 q 607 872 654 851 q 432 893 560 893 q 258 872 306 893 q 196 771 211 851 q 181 478 181 690 q 196 185 181 265 q 258 83 211 104 q 432 63 306 63 m 257 1033 l 257 1040 l 385 1225 l 475 1225 l 603 1040 l 603 1033 l 546 1033 l 429 1174 l 314 1033 l 257 1033 m 650 1465 q 633 1353 650 1383 q 563 1322 617 1322 q 498 1331 531 1322 q 419 1357 465 1340 q 355 1378 381 1371 q 306 1386 329 1386 q 273 1369 281 1386 q 265 1307 265 1353 l 214 1307 q 231 1419 214 1389 q 301 1450 247 1450 q 365 1441 333 1450 q 446 1414 396 1432 q 510 1393 485 1400 q 558 1386 535 1386 q 592 1402 585 1386 q 599 1465 599 1418 l 650 1465 z "},"Ȍ":{"ha":865,"x_min":99,"x_max":767,"o":"m 432 -11 q 204 24 271 -11 q 118 153 138 58 q 99 478 99 249 q 118 802 99 707 q 204 932 138 897 q 432 967 271 967 q 661 932 594 967 q 747 802 728 897 q 767 478 767 707 q 747 153 767 249 q 661 24 728 58 q 432 -11 594 -11 m 432 63 q 607 83 560 63 q 669 185 654 104 q 685 478 685 265 q 669 771 685 690 q 607 872 654 851 q 432 893 560 893 q 258 872 306 893 q 196 771 211 851 q 181 478 181 690 q 196 185 181 265 q 258 83 211 104 q 432 63 306 63 m 358 1044 l 306 1044 l 169 1219 l 169 1226 l 250 1226 l 358 1051 l 358 1044 m 586 1044 l 532 1044 l 396 1219 l 396 1226 l 478 1226 l 586 1051 l 586 1044 z "},"Ö":{"ha":865,"x_min":99,"x_max":767,"o":"m 432 -11 q 204 24 271 -11 q 118 153 138 58 q 99 478 99 249 q 118 802 99 707 q 204 932 138 897 q 432 967 271 967 q 661 932 594 967 q 747 802 728 897 q 767 478 767 707 q 747 153 767 249 q 661 24 728 58 q 432 -11 594 -11 m 432 63 q 607 83 560 63 q 669 185 654 104 q 685 478 685 265 q 669 771 685 690 q 607 872 654 851 q 432 893 560 893 q 258 872 306 893 q 196 771 211 851 q 181 478 181 690 q 196 185 181 265 q 258 83 211 104 q 432 63 306 63 m 268 1072 l 268 1169 l 349 1169 l 349 1072 l 268 1072 m 517 1072 l 517 1169 l 597 1169 l 597 1072 l 517 1072 z "},"Ọ":{"ha":865,"x_min":99,"x_max":767,"o":"m 432 -11 q 204 24 271 -11 q 118 153 138 58 q 99 478 99 249 q 118 802 99 707 q 204 932 138 897 q 432 967 271 967 q 661 932 594 967 q 747 802 728 897 q 767 478 767 707 q 747 153 767 249 q 661 24 728 58 q 432 -11 594 -11 m 432 63 q 607 83 560 63 q 669 185 654 104 q 685 478 685 265 q 669 771 685 690 q 607 872 654 851 q 432 893 560 893 q 258 872 306 893 q 196 771 211 851 q 181 478 181 690 q 196 185 181 265 q 258 83 211 104 q 432 63 306 63 m 386 -197 l 386 -86 l 481 -86 l 481 -197 l 386 -197 z "},"Ò":{"ha":865,"x_min":99,"x_max":767,"o":"m 432 -11 q 204 24 271 -11 q 118 153 138 58 q 99 478 99 249 q 118 802 99 707 q 204 932 138 897 q 432 967 271 967 q 661 932 594 967 q 747 802 728 897 q 767 478 767 707 q 747 153 767 249 q 661 24 728 58 q 432 -11 594 -11 m 432 63 q 607 83 560 63 q 669 185 654 104 q 685 478 685 265 q 669 771 685 690 q 607 872 654 851 q 432 893 560 893 q 258 872 306 893 q 196 771 211 851 q 181 478 181 690 q 196 185 181 265 q 258 83 211 104 q 432 63 306 63 m 410 1042 l 268 1229 l 268 1236 l 357 1236 l 468 1049 l 468 1042 l 410 1042 z "},"Ỏ":{"ha":865,"x_min":99,"x_max":767,"o":"m 432 -11 q 204 24 271 -11 q 118 153 138 58 q 99 478 99 249 q 118 802 99 707 q 204 932 138 897 q 432 967 271 967 q 661 932 594 967 q 747 802 728 897 q 767 478 767 707 q 747 153 767 249 q 661 24 728 58 q 432 -11 594 -11 m 432 63 q 607 83 560 63 q 669 185 654 104 q 685 478 685 265 q 669 771 685 690 q 607 872 654 851 q 432 893 560 893 q 258 872 306 893 q 196 771 211 851 q 181 478 181 690 q 196 185 181 265 q 258 83 211 104 q 432 63 306 63 m 369 1031 q 381 1076 369 1063 q 426 1100 393 1089 l 454 1108 q 510 1131 497 1119 q 522 1168 522 1142 q 513 1202 522 1192 q 481 1215 503 1213 q 413 1218 460 1218 q 281 1213 375 1218 l 281 1263 q 422 1272 356 1272 q 548 1252 513 1272 q 583 1175 583 1232 q 570 1111 583 1132 q 511 1075 557 1090 l 481 1067 q 442 1053 453 1058 q 428 1040 431 1047 q 425 1015 425 1032 l 369 1015 l 369 1031 z "},"Ơ":{"ha":865,"x_min":99,"x_max":796,"o":"m 796 1090 l 796 1049 q 776 943 796 972 q 693 910 756 914 q 753 772 740 865 q 767 478 767 679 q 747 153 767 249 q 661 24 728 58 q 432 -11 594 -11 q 204 24 271 -11 q 118 153 138 58 q 99 478 99 249 q 118 802 99 707 q 204 932 138 897 q 432 967 271 967 q 590 956 535 967 l 661 956 q 722 972 708 956 q 735 1035 735 988 l 735 1090 l 796 1090 m 432 63 q 607 83 560 63 q 669 185 654 104 q 685 478 685 265 q 669 771 685 690 q 607 872 654 851 q 432 893 560 893 q 258 872 306 893 q 196 771 211 851 q 181 478 181 690 q 196 185 181 265 q 258 83 211 104 q 432 63 306 63 z "},"Ớ":{"ha":865,"x_min":99,"x_max":796,"o":"m 796 1090 l 796 1049 q 776 943 796 972 q 693 910 756 914 q 753 772 740 865 q 767 478 767 679 q 747 153 767 249 q 661 24 728 58 q 432 -11 594 -11 q 204 24 271 -11 q 118 153 138 58 q 99 478 99 249 q 118 802 99 707 q 204 932 138 897 q 432 967 271 967 q 590 956 535 967 l 661 956 q 722 972 708 956 q 735 1035 735 988 l 735 1090 l 796 1090 m 432 63 q 607 83 560 63 q 669 185 654 104 q 685 478 685 265 q 669 771 685 690 q 607 872 654 851 q 432 893 560 893 q 258 872 306 893 q 196 771 211 851 q 181 478 181 690 q 196 185 181 265 q 258 83 211 104 q 432 63 306 63 m 394 1039 l 394 1046 l 507 1233 l 594 1233 l 594 1226 l 453 1039 l 394 1039 z "},"Ợ":{"ha":865,"x_min":99,"x_max":796,"o":"m 796 1090 l 796 1049 q 776 943 796 972 q 693 910 756 914 q 753 772 740 865 q 767 478 767 679 q 747 153 767 249 q 661 24 728 58 q 432 -11 594 -11 q 204 24 271 -11 q 118 153 138 58 q 99 478 99 249 q 118 802 99 707 q 204 932 138 897 q 432 967 271 967 q 590 956 535 967 l 661 956 q 722 972 708 956 q 735 1035 735 988 l 735 1090 l 796 1090 m 432 63 q 607 83 560 63 q 669 185 654 104 q 685 478 685 265 q 669 771 685 690 q 607 872 654 851 q 432 893 560 893 q 258 872 306 893 q 196 771 211 851 q 181 478 181 690 q 196 185 181 265 q 258 83 211 104 q 432 63 306 63 m 386 -197 l 386 -86 l 481 -86 l 481 -197 l 386 -197 z "},"Ờ":{"ha":865,"x_min":99,"x_max":796,"o":"m 796 1090 l 796 1049 q 776 943 796 972 q 693 910 756 914 q 753 772 740 865 q 767 478 767 679 q 747 153 767 249 q 661 24 728 58 q 432 -11 594 -11 q 204 24 271 -11 q 118 153 138 58 q 99 478 99 249 q 118 802 99 707 q 204 932 138 897 q 432 967 271 967 q 590 956 535 967 l 661 956 q 722 972 708 956 q 735 1035 735 988 l 735 1090 l 796 1090 m 432 63 q 607 83 560 63 q 669 185 654 104 q 685 478 685 265 q 669 771 685 690 q 607 872 654 851 q 432 893 560 893 q 258 872 306 893 q 196 771 211 851 q 181 478 181 690 q 196 185 181 265 q 258 83 211 104 q 432 63 306 63 m 415 1039 l 274 1226 l 274 1233 l 363 1233 l 474 1046 l 474 1039 l 415 1039 z "},"Ở":{"ha":865,"x_min":99,"x_max":796,"o":"m 796 1090 l 796 1049 q 776 943 796 972 q 693 910 756 914 q 753 772 740 865 q 767 478 767 679 q 747 153 767 249 q 661 24 728 58 q 432 -11 594 -11 q 204 24 271 -11 q 118 153 138 58 q 99 478 99 249 q 118 802 99 707 q 204 932 138 897 q 432 967 271 967 q 590 956 535 967 l 661 956 q 722 972 708 956 q 735 1035 735 988 l 735 1090 l 796 1090 m 432 63 q 607 83 560 63 q 669 185 654 104 q 685 478 685 265 q 669 771 685 690 q 607 872 654 851 q 432 893 560 893 q 258 872 306 893 q 196 771 211 851 q 181 478 181 690 q 196 185 181 265 q 258 83 211 104 q 432 63 306 63 m 369 1031 q 381 1076 369 1063 q 426 1100 393 1089 l 454 1108 q 510 1131 497 1119 q 522 1168 522 1142 q 513 1202 522 1192 q 481 1215 503 1213 q 413 1218 460 1218 q 281 1213 375 1218 l 281 1263 q 422 1272 356 1272 q 548 1252 513 1272 q 583 1175 583 1232 q 570 1111 583 1132 q 511 1075 557 1090 l 481 1067 q 442 1053 453 1058 q 428 1040 431 1047 q 425 1015 425 1032 l 369 1015 l 369 1031 z "},"Ỡ":{"ha":865,"x_min":99,"x_max":796,"o":"m 796 1090 l 796 1049 q 776 943 796 972 q 693 910 756 914 q 753 772 740 865 q 767 478 767 679 q 747 153 767 249 q 661 24 728 58 q 432 -11 594 -11 q 204 24 271 -11 q 118 153 138 58 q 99 478 99 249 q 118 802 99 707 q 204 932 138 897 q 432 967 271 967 q 590 956 535 967 l 661 956 q 722 972 708 956 q 735 1035 735 988 l 735 1090 l 796 1090 m 432 63 q 607 83 560 63 q 669 185 654 104 q 685 478 685 265 q 669 771 685 690 q 607 872 654 851 q 432 893 560 893 q 258 872 306 893 q 196 771 211 851 q 181 478 181 690 q 196 185 181 265 q 258 83 211 104 q 432 63 306 63 m 650 1233 q 633 1121 650 1151 q 563 1090 617 1090 q 498 1099 531 1090 q 419 1125 465 1108 q 355 1147 381 1139 q 306 1154 329 1154 q 273 1138 281 1154 q 265 1075 265 1121 l 214 1075 q 231 1188 214 1157 q 301 1218 247 1218 q 365 1209 333 1218 q 446 1182 396 1200 q 510 1161 485 1168 q 558 1154 535 1154 q 592 1170 585 1154 q 599 1233 599 1186 l 650 1233 z "},"Ő":{"ha":865,"x_min":99,"x_max":767,"o":"m 432 -11 q 204 24 271 -11 q 118 153 138 58 q 99 478 99 249 q 118 802 99 707 q 204 932 138 897 q 432 967 271 967 q 661 932 594 967 q 747 802 728 897 q 767 478 767 707 q 747 153 767 249 q 661 24 728 58 q 432 -11 594 -11 m 432 63 q 607 83 560 63 q 669 185 654 104 q 685 478 685 265 q 669 771 685 690 q 607 872 654 851 q 432 893 560 893 q 258 872 306 893 q 196 771 211 851 q 181 478 181 690 q 196 185 181 265 q 258 83 211 104 q 432 63 306 63 m 292 1044 l 292 1051 l 400 1226 l 482 1226 l 482 1219 l 346 1044 l 292 1044 m 519 1044 l 519 1051 l 628 1226 l 708 1226 l 708 1219 l 572 1044 l 519 1044 z "},"Ȏ":{"ha":865,"x_min":99,"x_max":767,"o":"m 432 -11 q 204 24 271 -11 q 118 153 138 58 q 99 478 99 249 q 118 802 99 707 q 204 932 138 897 q 432 967 271 967 q 661 932 594 967 q 747 802 728 897 q 767 478 767 707 q 747 153 767 249 q 661 24 728 58 q 432 -11 594 -11 m 432 63 q 607 83 560 63 q 669 185 654 104 q 685 478 685 265 q 669 771 685 690 q 607 872 654 851 q 432 893 560 893 q 258 872 306 893 q 196 771 211 851 q 181 478 181 690 q 196 185 181 265 q 258 83 211 104 q 432 63 306 63 m 264 1046 q 273 1155 264 1115 q 319 1218 282 1194 q 433 1242 356 1242 q 547 1218 511 1242 q 592 1156 583 1194 q 601 1046 601 1117 l 543 1046 q 538 1131 543 1103 q 508 1174 532 1158 q 433 1189 485 1189 q 358 1174 382 1189 q 328 1130 333 1158 q 322 1046 322 1101 l 264 1046 z "},"Ō":{"ha":865,"x_min":99,"x_max":767,"o":"m 432 -11 q 204 24 271 -11 q 118 153 138 58 q 99 478 99 249 q 118 802 99 707 q 204 932 138 897 q 432 967 271 967 q 661 932 594 967 q 747 802 728 897 q 767 478 767 707 q 747 153 767 249 q 661 24 728 58 q 432 -11 594 -11 m 432 63 q 607 83 560 63 q 669 185 654 104 q 685 478 685 265 q 669 771 685 690 q 607 872 654 851 q 432 893 560 893 q 258 872 306 893 q 196 771 211 851 q 181 478 181 690 q 196 185 181 265 q 258 83 211 104 q 432 63 306 63 m 285 1158 l 285 1232 l 579 1232 l 579 1158 l 285 1158 z "},"Ǫ":{"ha":865,"x_min":99,"x_max":767,"o":"m 596 -272 q 508 -244 536 -272 q 481 -172 481 -217 q 503 -87 481 -132 q 565 -3 525 -43 q 432 -11 522 -11 q 204 24 271 -11 q 118 153 138 58 q 99 478 99 249 q 118 802 99 707 q 204 932 138 897 q 432 967 271 967 q 661 932 594 967 q 747 802 728 897 q 767 478 767 707 q 760 242 767 325 q 733 106 754 158 q 668 26 713 53 q 585 -55 619 -3 q 550 -156 550 -107 q 614 -214 550 -214 q 638 -212 626 -214 l 638 -269 q 596 -272 619 -272 m 432 63 q 607 83 560 63 q 669 185 654 104 q 685 478 685 265 q 669 771 685 690 q 607 872 654 851 q 432 893 560 893 q 258 872 306 893 q 196 771 211 851 q 181 478 181 690 q 196 185 181 265 q 258 83 211 104 q 432 63 306 63 z "},"Ø":{"ha":864,"x_min":99,"x_max":767,"o":"m 697 904 q 754 767 742 860 q 767 478 767 675 q 747 153 767 249 q 661 24 728 58 q 432 -11 594 -11 q 221 15 286 -11 l 172 -76 l 99 -76 l 167 51 q 111 190 124 97 q 99 478 99 282 q 118 802 99 707 q 204 932 138 897 q 432 967 271 967 q 557 961 507 967 q 642 940 607 956 l 690 1032 l 765 1032 l 697 904 m 181 478 q 186 249 181 326 q 210 133 192 172 l 606 874 q 541 890 579 886 q 432 893 503 893 q 258 872 306 893 q 196 771 211 851 q 181 478 181 690 m 432 63 q 607 83 560 63 q 669 185 654 104 q 685 478 685 265 q 678 708 685 631 q 654 824 672 785 l 257 82 q 322 66 283 69 q 432 63 361 63 z "},"Ǿ":{"ha":864,"x_min":99,"x_max":767,"o":"m 697 904 q 754 767 742 860 q 767 478 767 675 q 747 153 767 249 q 661 24 728 58 q 432 -11 594 -11 q 221 15 286 -11 l 172 -76 l 99 -76 l 167 51 q 111 190 124 97 q 99 478 99 282 q 118 802 99 707 q 204 932 138 897 q 432 967 271 967 q 557 961 507 967 q 642 940 607 956 l 690 1032 l 765 1032 l 697 904 m 181 478 q 186 249 181 326 q 210 133 192 172 l 606 874 q 541 890 579 886 q 432 893 503 893 q 258 872 306 893 q 196 771 211 851 q 181 478 181 690 m 432 63 q 607 83 560 63 q 669 185 654 104 q 685 478 685 265 q 678 708 685 631 q 654 824 672 785 l 257 82 q 322 66 283 69 q 432 63 361 63 m 393 1039 l 393 1046 l 506 1233 l 593 1233 l 593 1226 l 451 1039 l 393 1039 z "},"Õ":{"ha":865,"x_min":99,"x_max":767,"o":"m 432 -11 q 204 24 271 -11 q 118 153 138 58 q 99 478 99 249 q 118 802 99 707 q 204 932 138 897 q 432 967 271 967 q 661 932 594 967 q 747 802 728 897 q 767 478 767 707 q 747 153 767 249 q 661 24 728 58 q 432 -11 594 -11 m 432 63 q 607 83 560 63 q 669 185 654 104 q 685 478 685 265 q 669 771 685 690 q 607 872 654 851 q 432 893 560 893 q 258 872 306 893 q 196 771 211 851 q 181 478 181 690 q 196 185 181 265 q 258 83 211 104 q 432 63 306 63 m 650 1201 q 633 1089 650 1119 q 563 1058 617 1058 q 498 1067 531 1058 q 419 1093 465 1076 q 355 1115 381 1107 q 306 1122 329 1122 q 273 1106 281 1122 q 265 1043 265 1089 l 214 1043 q 231 1156 214 1125 q 301 1186 247 1186 q 365 1177 333 1186 q 446 1150 396 1168 q 510 1129 485 1136 q 558 1122 535 1122 q 592 1138 585 1122 q 599 1201 599 1154 l 650 1201 z "},"Œ":{"ha":1260,"x_min":99,"x_max":1193,"o":"m 432 0 q 204 34 271 0 q 118 161 138 68 q 99 478 99 254 q 118 794 99 701 q 204 922 138 888 q 432 956 271 956 l 1193 956 l 1193 882 l 779 882 q 688 889 740 882 q 750 768 735 850 q 767 519 765 686 l 1138 519 l 1138 446 l 767 446 q 751 189 765 272 q 688 67 736 106 q 779 74 736 74 l 1193 74 l 1193 0 l 432 0 m 432 74 q 607 94 560 74 q 669 192 654 114 q 685 478 685 271 q 669 763 685 685 q 607 862 654 842 q 432 882 560 882 q 258 862 306 882 q 196 763 211 842 q 181 478 181 685 q 196 192 181 271 q 258 94 211 114 q 432 74 306 74 z "},"P":{"ha":779,"x_min":128,"x_max":714,"o":"m 128 956 l 471 956 q 631 918 578 956 q 699 819 685 881 q 714 661 714 758 q 699 505 714 567 q 631 405 683 443 q 471 367 578 367 l 208 367 l 208 0 l 128 0 l 128 956 m 454 439 q 573 464 535 439 q 622 534 611 489 q 633 661 633 579 q 623 789 633 744 q 574 858 613 833 q 454 882 535 882 l 208 882 l 208 439 l 454 439 z "},"Þ":{"ha":779,"x_min":128,"x_max":714,"o":"m 128 956 l 208 956 l 208 781 l 471 781 q 631 743 578 781 q 699 644 685 706 q 714 486 714 583 q 699 330 714 392 q 631 230 683 268 q 471 192 578 192 l 208 192 l 208 0 l 128 0 l 128 956 m 454 265 q 573 290 535 265 q 622 359 611 314 q 633 486 633 404 q 623 615 633 571 q 574 684 613 660 q 454 708 536 708 l 208 708 l 208 265 l 454 265 z "},"Q":{"ha":865,"x_min":99,"x_max":786,"o":"m 786 -157 l 786 -160 l 694 -160 l 590 0 q 432 -11 535 -11 q 204 24 271 -11 q 118 153 138 58 q 99 478 99 249 q 118 802 99 707 q 204 932 138 897 q 432 967 271 967 q 661 932 594 967 q 747 802 728 897 q 767 478 767 707 q 760 242 767 325 q 731 106 753 158 q 664 26 710 53 l 786 -157 m 432 63 q 547 67 517 63 l 393 303 l 481 303 l 621 92 q 662 155 649 111 q 680 272 675 199 q 685 478 685 346 q 669 771 685 690 q 607 872 654 851 q 432 893 560 893 q 258 872 306 893 q 196 771 211 851 q 181 478 181 690 q 196 185 181 265 q 258 83 211 104 q 432 63 306 63 z "},"R":{"ha":819,"x_min":128,"x_max":738,"o":"m 650 0 l 510 396 q 474 394 496 394 l 208 394 l 208 0 l 128 0 l 128 956 l 488 956 q 644 919 592 956 q 710 824 696 882 q 725 675 725 767 q 699 502 725 569 q 589 410 674 435 l 738 0 l 650 0 m 461 467 q 581 490 542 467 q 632 557 621 514 q 643 675 643 600 q 633 793 643 751 q 585 858 622 835 q 471 882 549 882 l 208 882 l 208 467 l 461 467 z "},"Ŕ":{"ha":819,"x_min":128,"x_max":738,"o":"m 650 0 l 510 396 q 474 394 496 394 l 208 394 l 208 0 l 128 0 l 128 956 l 488 956 q 644 919 592 956 q 710 824 696 882 q 725 675 725 767 q 699 502 725 569 q 589 410 674 435 l 738 0 l 650 0 m 461 467 q 581 490 542 467 q 632 557 621 514 q 643 675 643 600 q 633 793 643 751 q 585 858 622 835 q 471 882 549 882 l 208 882 l 208 467 l 461 467 m 372 1039 l 372 1046 l 485 1233 l 572 1233 l 572 1226 l 431 1039 l 372 1039 z "},"Ř":{"ha":819,"x_min":128,"x_max":738,"o":"m 650 0 l 510 396 q 474 394 496 394 l 208 394 l 208 0 l 128 0 l 128 956 l 488 956 q 644 919 592 956 q 710 824 696 882 q 725 675 725 767 q 699 502 725 569 q 589 410 674 435 l 738 0 l 650 0 m 461 467 q 581 490 542 467 q 632 557 621 514 q 643 675 643 600 q 633 793 643 751 q 585 858 622 835 q 471 882 549 882 l 208 882 l 208 467 l 461 467 m 367 1042 l 239 1225 l 239 1233 l 296 1233 l 411 1092 l 528 1233 l 585 1233 l 585 1225 l 457 1042 l 367 1042 z "},"Ŗ":{"ha":819,"x_min":128,"x_max":738,"o":"m 650 0 l 510 396 q 474 394 496 394 l 208 394 l 208 0 l 128 0 l 128 956 l 488 956 q 644 919 592 956 q 710 824 696 882 q 725 675 725 767 q 699 502 725 569 q 589 410 674 435 l 738 0 l 650 0 m 461 467 q 581 490 542 467 q 632 557 621 514 q 643 675 643 600 q 633 793 643 751 q 585 858 622 835 q 471 882 549 882 l 208 882 l 208 467 l 461 467 m 349 -300 q 407 -284 394 -300 q 419 -218 419 -268 l 419 -194 l 381 -194 l 381 -86 l 474 -86 l 474 -193 q 464 -285 474 -254 q 428 -328 454 -315 q 349 -340 403 -340 l 349 -300 z "},"Ȑ":{"ha":819,"x_min":128,"x_max":738,"o":"m 650 0 l 510 396 q 474 394 496 394 l 208 394 l 208 0 l 128 0 l 128 956 l 488 956 q 644 919 592 956 q 710 824 696 882 q 725 675 725 767 q 699 502 725 569 q 589 410 674 435 l 738 0 l 650 0 m 461 467 q 581 490 542 467 q 632 557 621 514 q 643 675 643 600 q 633 793 643 751 q 585 858 622 835 q 471 882 549 882 l 208 882 l 208 467 l 461 467 m 336 1044 l 283 1044 l 147 1219 l 147 1226 l 228 1226 l 336 1051 l 336 1044 m 564 1044 l 510 1044 l 374 1219 l 374 1226 l 456 1226 l 564 1051 l 564 1044 z "},"Ṛ":{"ha":819,"x_min":128,"x_max":738,"o":"m 650 0 l 510 396 q 474 394 496 394 l 208 394 l 208 0 l 128 0 l 128 956 l 488 956 q 644 919 592 956 q 710 824 696 882 q 725 675 725 767 q 699 502 725 569 q 589 410 674 435 l 738 0 l 650 0 m 461 467 q 581 490 542 467 q 632 557 621 514 q 643 675 643 600 q 633 793 643 751 q 585 858 622 835 q 471 882 549 882 l 208 882 l 208 467 l 461 467 m 364 -197 l 364 -86 l 458 -86 l 458 -197 l 364 -197 z "},"Ȓ":{"ha":819,"x_min":128,"x_max":738,"o":"m 650 0 l 510 396 q 474 394 496 394 l 208 394 l 208 0 l 128 0 l 128 956 l 488 956 q 644 919 592 956 q 710 824 696 882 q 725 675 725 767 q 699 502 725 569 q 589 410 674 435 l 738 0 l 650 0 m 461 467 q 581 490 542 467 q 632 557 621 514 q 643 675 643 600 q 633 793 643 751 q 585 858 622 835 q 471 882 549 882 l 208 882 l 208 467 l 461 467 m 242 1046 q 251 1155 242 1115 q 297 1218 260 1194 q 411 1242 333 1242 q 525 1218 489 1242 q 570 1156 561 1194 q 579 1046 579 1117 l 521 1046 q 515 1131 521 1103 q 486 1174 510 1158 q 411 1189 463 1189 q 335 1174 360 1189 q 306 1130 311 1158 q 300 1046 300 1101 l 242 1046 z "},"S":{"ha":750,"x_min":82,"x_max":667,"o":"m 388 -11 q 242 -6 319 -11 q 107 7 164 -1 l 107 79 q 239 67 165 72 q 364 63 313 63 q 470 69 431 63 q 540 96 510 76 q 577 155 568 115 q 586 258 586 194 q 579 374 586 342 q 545 421 572 407 q 449 443 518 435 l 242 469 q 135 507 169 478 q 91 582 100 536 q 82 707 82 628 q 113 865 82 808 q 208 944 144 922 q 378 967 272 967 q 515 961 446 967 q 625 947 583 956 l 625 876 q 393 893 513 893 q 275 884 319 893 q 206 853 231 875 q 172 798 181 832 q 164 707 164 764 q 172 610 164 640 q 201 565 179 579 q 274 546 224 551 l 472 521 q 594 491 554 510 q 653 419 635 472 q 664 362 661 396 q 667 268 667 328 q 637 92 667 153 q 548 10 607 32 q 388 -11 489 -11 z "},"Ś":{"ha":750,"x_min":82,"x_max":667,"o":"m 388 -11 q 242 -6 319 -11 q 107 7 164 -1 l 107 79 q 239 67 165 72 q 364 63 313 63 q 470 69 431 63 q 540 96 510 76 q 577 155 568 115 q 586 258 586 194 q 579 374 586 342 q 545 421 572 407 q 449 443 518 435 l 242 469 q 135 507 169 478 q 91 582 100 536 q 82 707 82 628 q 113 865 82 808 q 208 944 144 922 q 378 967 272 967 q 515 961 446 967 q 625 947 583 956 l 625 876 q 393 893 513 893 q 275 884 319 893 q 206 853 231 875 q 172 798 181 832 q 164 707 164 764 q 172 610 164 640 q 201 565 179 579 q 274 546 224 551 l 472 521 q 594 491 554 510 q 653 419 635 472 q 664 362 661 396 q 667 268 667 328 q 637 92 667 153 q 548 10 607 32 q 388 -11 489 -11 m 336 1039 l 336 1046 l 449 1233 l 536 1233 l 536 1226 l 394 1039 l 336 1039 z "},"Ꞌ":{"ha":160,"x_min":40,"x_max":119,"o":"m 40 401 l 40 956 l 119 956 l 119 710 l 93 401 l 40 401 z "},"Š":{"ha":751,"x_min":82,"x_max":667,"o":"m 388 -11 q 242 -6 319 -11 q 107 7 164 -1 l 107 79 q 239 67 165 72 q 364 63 313 63 q 470 69 431 63 q 540 96 510 76 q 577 155 568 115 q 586 258 586 194 q 579 374 586 342 q 545 421 572 407 q 449 443 518 435 l 242 469 q 135 507 169 478 q 91 582 100 536 q 82 707 82 628 q 113 865 82 808 q 208 944 144 922 q 378 967 272 967 q 515 961 446 967 q 625 947 583 956 l 625 876 q 393 893 513 893 q 275 884 319 893 q 206 853 231 875 q 172 798 181 832 q 164 707 164 764 q 172 610 164 640 q 201 565 179 579 q 274 546 224 551 l 472 521 q 594 491 554 510 q 653 419 635 472 q 664 362 661 396 q 667 268 667 328 q 637 92 667 153 q 548 10 607 32 q 388 -11 489 -11 m 340 1042 l 213 1225 l 213 1233 l 269 1233 l 385 1092 l 501 1233 l 558 1233 l 558 1225 l 431 1042 l 340 1042 z "},"Ş":{"ha":750,"x_min":82,"x_max":667,"o":"m 667 268 q 638 96 667 156 q 553 13 610 36 q 403 -11 497 -10 l 346 -264 l 267 -264 l 267 -257 l 343 -11 q 107 7 192 -6 l 107 79 q 239 67 165 72 q 364 63 313 63 q 470 69 431 63 q 540 96 510 76 q 577 155 568 115 q 586 258 586 194 q 579 374 586 342 q 545 421 572 407 q 449 443 518 435 l 242 469 q 135 507 169 478 q 91 582 100 536 q 82 707 82 628 q 113 865 82 808 q 208 944 144 922 q 378 967 272 967 q 515 961 446 967 q 625 947 583 956 l 625 876 q 393 893 513 893 q 275 884 319 893 q 206 853 231 875 q 172 798 181 832 q 164 707 164 764 q 172 610 164 640 q 201 565 179 579 q 274 546 224 551 l 472 521 q 594 491 554 510 q 653 419 635 472 q 664 362 661 396 q 667 268 667 328 z "},"Ŝ":{"ha":750,"x_min":82,"x_max":667,"o":"m 388 -11 q 242 -6 319 -11 q 107 7 164 -1 l 107 79 q 239 67 165 72 q 364 63 313 63 q 470 69 431 63 q 540 96 510 76 q 577 155 568 115 q 586 258 586 194 q 579 374 586 342 q 545 421 572 407 q 449 443 518 435 l 242 469 q 135 507 169 478 q 91 582 100 536 q 82 707 82 628 q 113 865 82 808 q 208 944 144 922 q 378 967 272 967 q 515 961 446 967 q 625 947 583 956 l 625 876 q 393 893 513 893 q 275 884 319 893 q 206 853 231 875 q 172 798 181 832 q 164 707 164 764 q 172 610 164 640 q 201 565 179 579 q 274 546 224 551 l 472 521 q 594 491 554 510 q 653 419 635 472 q 664 362 661 396 q 667 268 667 328 q 637 92 667 153 q 548 10 607 32 q 388 -11 489 -11 m 201 1042 l 201 1049 l 329 1233 l 419 1233 l 547 1049 l 547 1042 l 490 1042 l 374 1182 l 258 1042 l 201 1042 z "},"Ș":{"ha":750,"x_min":82,"x_max":667,"o":"m 388 -11 q 242 -6 319 -11 q 107 7 164 -1 l 107 79 q 239 67 165 72 q 364 63 313 63 q 470 69 431 63 q 540 96 510 76 q 577 155 568 115 q 586 258 586 194 q 579 374 586 342 q 545 421 572 407 q 449 443 518 435 l 242 469 q 135 507 169 478 q 91 582 100 536 q 82 707 82 628 q 113 865 82 808 q 208 944 144 922 q 378 967 272 967 q 515 961 446 967 q 625 947 583 956 l 625 876 q 393 893 513 893 q 275 884 319 893 q 206 853 231 875 q 172 798 181 832 q 164 707 164 764 q 172 610 164 640 q 201 565 179 579 q 274 546 224 551 l 472 521 q 594 491 554 510 q 653 419 635 472 q 664 362 661 396 q 667 268 667 328 q 637 92 667 153 q 548 10 607 32 q 388 -11 489 -11 m 313 -300 q 371 -284 358 -300 q 383 -218 383 -268 l 383 -194 l 344 -194 l 344 -86 l 438 -86 l 438 -193 q 428 -285 438 -254 q 392 -328 418 -315 q 313 -340 367 -340 l 313 -300 z "},"Ṣ":{"ha":750,"x_min":82,"x_max":667,"o":"m 388 -11 q 242 -6 319 -11 q 107 7 164 -1 l 107 79 q 239 67 165 72 q 364 63 313 63 q 470 69 431 63 q 540 96 510 76 q 577 155 568 115 q 586 258 586 194 q 579 374 586 342 q 545 421 572 407 q 449 443 518 435 l 242 469 q 135 507 169 478 q 91 582 100 536 q 82 707 82 628 q 113 865 82 808 q 208 944 144 922 q 378 967 272 967 q 515 961 446 967 q 625 947 583 956 l 625 876 q 393 893 513 893 q 275 884 319 893 q 206 853 231 875 q 172 798 181 832 q 164 707 164 764 q 172 610 164 640 q 201 565 179 579 q 274 546 224 551 l 472 521 q 594 491 554 510 q 653 419 635 472 q 664 362 661 396 q 667 268 667 328 q 637 92 667 153 q 548 10 607 32 q 388 -11 489 -11 m 328 -197 l 328 -86 l 422 -86 l 422 -197 l 328 -197 z "},"ẞ":{"ha":883,"x_min":117,"x_max":793,"o":"m 553 514 q 735 452 676 514 q 793 251 793 390 q 730 52 793 115 q 513 -11 667 -11 q 413 -5 468 -11 q 314 10 358 1 l 314 79 q 510 63 426 63 q 628 79 585 63 q 691 137 671 96 q 711 254 711 178 q 675 403 711 360 q 553 447 639 447 l 410 447 l 410 506 l 646 861 q 418 893 535 893 q 269 867 313 893 q 213 763 226 840 q 199 499 199 686 l 199 0 l 117 0 l 117 499 q 139 795 117 699 q 220 929 161 892 q 404 967 279 967 q 581 951 496 967 q 731 913 667 936 l 731 850 l 507 514 l 553 514 z "},"Ə":{"ha":847,"x_min":99,"x_max":749,"o":"m 406 967 q 629 932 560 967 q 724 798 699 897 q 749 478 749 699 q 730 153 749 249 q 646 24 711 58 q 424 -11 581 -11 q 201 24 267 -11 q 117 153 136 58 q 99 478 99 249 l 99 519 l 667 519 q 647 772 665 697 q 572 869 628 846 q 385 893 517 893 q 283 888 339 893 q 189 872 228 882 l 189 943 q 291 960 231 954 q 406 967 351 967 m 424 61 q 588 81 543 61 q 649 176 633 100 q 667 447 665 251 l 181 447 q 198 176 182 251 q 259 81 214 100 q 424 61 304 61 z "},"T":{"ha":693,"x_min":39,"x_max":654,"o":"m 306 0 l 306 881 l 39 881 l 39 956 l 654 956 l 654 881 l 388 881 l 388 0 l 306 0 z "},"Ŧ":{"ha":693,"x_min":39,"x_max":654,"o":"m 654 881 l 388 881 l 388 521 l 617 521 l 617 453 l 388 453 l 388 0 l 306 0 l 306 453 l 76 453 l 76 521 l 306 521 l 306 881 l 39 881 l 39 956 l 654 956 l 654 881 z "},"Ť":{"ha":693,"x_min":39,"x_max":654,"o":"m 306 0 l 306 881 l 39 881 l 39 956 l 654 956 l 654 881 l 388 881 l 388 0 l 306 0 m 301 1042 l 174 1225 l 174 1233 l 231 1233 l 346 1092 l 463 1233 l 519 1233 l 519 1225 l 392 1042 l 301 1042 z "},"Ţ":{"ha":693,"x_min":39,"x_max":654,"o":"m 39 956 l 654 956 l 654 881 l 388 881 l 388 0 l 375 0 l 317 -264 l 238 -264 l 238 -257 l 318 0 l 306 0 l 306 881 l 39 881 l 39 956 z "},"Ț":{"ha":693,"x_min":39,"x_max":654,"o":"m 306 0 l 306 881 l 39 881 l 39 956 l 654 956 l 654 881 l 388 881 l 388 0 l 306 0 m 283 -300 q 342 -284 329 -300 q 354 -218 354 -268 l 354 -194 l 315 -194 l 315 -86 l 408 -86 l 408 -193 q 399 -285 408 -254 q 363 -328 389 -315 q 283 -340 338 -340 l 283 -300 z "},"Ṭ":{"ha":693,"x_min":39,"x_max":654,"o":"m 306 0 l 306 881 l 39 881 l 39 956 l 654 956 l 654 881 l 388 881 l 388 0 l 306 0 m 299 -197 l 299 -86 l 393 -86 l 393 -197 l 299 -197 z "},"U":{"ha":857,"x_min":117,"x_max":740,"o":"m 740 956 l 740 413 q 721 144 740 228 q 638 24 701 60 q 429 -11 574 -11 q 220 24 285 -11 q 136 144 156 60 q 117 413 117 228 l 117 956 l 199 956 l 199 367 q 212 170 199 229 q 272 87 225 111 q 429 63 319 63 q 585 87 539 63 q 645 170 632 111 q 658 367 658 229 l 658 956 l 740 956 z "},"Ú":{"ha":857,"x_min":117,"x_max":740,"o":"m 740 956 l 740 413 q 721 144 740 228 q 638 24 701 60 q 429 -11 574 -11 q 220 24 285 -11 q 136 144 156 60 q 117 413 117 228 l 117 956 l 199 956 l 199 367 q 212 170 199 229 q 272 87 225 111 q 429 63 319 63 q 585 87 539 63 q 645 170 632 111 q 658 367 658 229 l 658 956 l 740 956 m 388 1042 l 388 1049 l 500 1236 l 588 1236 l 588 1229 l 446 1042 l 388 1042 z "},"Ŭ":{"ha":857,"x_min":117,"x_max":740,"o":"m 740 956 l 740 413 q 721 144 740 228 q 638 24 701 60 q 429 -11 574 -11 q 220 24 285 -11 q 136 144 156 60 q 117 413 117 228 l 117 956 l 199 956 l 199 367 q 212 170 199 229 q 272 87 225 111 q 429 63 319 63 q 585 87 539 63 q 645 170 632 111 q 658 367 658 229 l 658 956 l 740 956 m 597 1233 q 588 1124 597 1164 q 542 1061 579 1085 q 428 1038 506 1038 q 314 1061 350 1038 q 269 1124 278 1085 q 260 1233 260 1163 l 318 1233 q 324 1149 318 1176 q 353 1106 329 1121 q 428 1090 376 1090 q 503 1106 479 1090 q 533 1149 528 1121 q 539 1233 539 1178 l 597 1233 z "},"Ǔ":{"ha":857,"x_min":117,"x_max":740,"o":"m 740 956 l 740 413 q 721 144 740 228 q 638 24 701 60 q 429 -11 574 -11 q 220 24 285 -11 q 136 144 156 60 q 117 413 117 228 l 117 956 l 199 956 l 199 367 q 212 170 199 229 q 272 87 225 111 q 429 63 319 63 q 585 87 539 63 q 645 170 632 111 q 658 367 658 229 l 658 956 l 740 956 m 385 1042 l 257 1225 l 257 1233 l 314 1233 l 429 1092 l 546 1233 l 603 1233 l 603 1225 l 475 1042 l 385 1042 z "},"Û":{"ha":857,"x_min":117,"x_max":740,"o":"m 740 956 l 740 413 q 721 144 740 228 q 638 24 701 60 q 429 -11 574 -11 q 220 24 285 -11 q 136 144 156 60 q 117 413 117 228 l 117 956 l 199 956 l 199 367 q 212 170 199 229 q 272 87 225 111 q 429 63 319 63 q 585 87 539 63 q 645 170 632 111 q 658 367 658 229 l 658 956 l 740 956 m 257 1042 l 257 1049 l 385 1233 l 475 1233 l 603 1049 l 603 1042 l 546 1042 l 429 1182 l 314 1042 l 257 1042 z "},"Ȕ":{"ha":857,"x_min":117,"x_max":740,"o":"m 740 956 l 740 413 q 721 144 740 228 q 638 24 701 60 q 429 -11 574 -11 q 220 24 285 -11 q 136 144 156 60 q 117 413 117 228 l 117 956 l 199 956 l 199 367 q 212 170 199 229 q 272 87 225 111 q 429 63 319 63 q 585 87 539 63 q 645 170 632 111 q 658 367 658 229 l 658 956 l 740 956 m 354 1044 l 301 1044 l 165 1219 l 165 1226 l 246 1226 l 354 1051 l 354 1044 m 582 1044 l 528 1044 l 392 1219 l 392 1226 l 474 1226 l 582 1051 l 582 1044 z "},"Ü":{"ha":857,"x_min":117,"x_max":740,"o":"m 740 956 l 740 413 q 721 144 740 228 q 638 24 701 60 q 429 -11 574 -11 q 220 24 285 -11 q 136 144 156 60 q 117 413 117 228 l 117 956 l 199 956 l 199 367 q 212 170 199 229 q 272 87 225 111 q 429 63 319 63 q 585 87 539 63 q 645 170 632 111 q 658 367 658 229 l 658 956 l 740 956 m 264 1072 l 264 1169 l 344 1169 l 344 1072 l 264 1072 m 513 1072 l 513 1169 l 593 1169 l 593 1072 l 513 1072 z "},"Ǘ":{"ha":857,"x_min":117,"x_max":740,"o":"m 740 956 l 740 413 q 721 144 740 228 q 638 24 701 60 q 429 -11 574 -11 q 220 24 285 -11 q 136 144 156 60 q 117 413 117 228 l 117 956 l 199 956 l 199 367 q 212 170 199 229 q 272 87 225 111 q 429 63 319 63 q 585 87 539 63 q 645 170 632 111 q 658 367 658 229 l 658 956 l 740 956 m 264 1118 l 264 1215 l 344 1215 l 344 1118 l 264 1118 m 513 1118 l 513 1215 l 593 1215 l 593 1118 l 513 1118 m 393 1215 l 393 1222 l 506 1410 l 593 1410 l 593 1403 l 451 1215 l 393 1215 z "},"Ǚ":{"ha":857,"x_min":117,"x_max":740,"o":"m 740 956 l 740 413 q 721 144 740 228 q 638 24 701 60 q 429 -11 574 -11 q 220 24 285 -11 q 136 144 156 60 q 117 413 117 228 l 117 956 l 199 956 l 199 367 q 212 170 199 229 q 272 87 225 111 q 429 63 319 63 q 585 87 539 63 q 645 170 632 111 q 658 367 658 229 l 658 956 l 740 956 m 264 1118 l 264 1215 l 344 1215 l 344 1118 l 264 1118 m 513 1118 l 513 1215 l 593 1215 l 593 1118 l 513 1118 m 388 1218 l 260 1401 l 260 1410 l 317 1410 l 432 1268 l 549 1410 l 606 1410 l 606 1401 l 478 1218 l 388 1218 z "},"Ǜ":{"ha":857,"x_min":117,"x_max":740,"o":"m 740 956 l 740 413 q 721 144 740 228 q 638 24 701 60 q 429 -11 574 -11 q 220 24 285 -11 q 136 144 156 60 q 117 413 117 228 l 117 956 l 199 956 l 199 367 q 212 170 199 229 q 272 87 225 111 q 429 63 319 63 q 585 87 539 63 q 645 170 632 111 q 658 367 658 229 l 658 956 l 740 956 m 264 1118 l 264 1215 l 344 1215 l 344 1118 l 264 1118 m 513 1118 l 513 1215 l 593 1215 l 593 1118 l 513 1118 m 414 1215 l 272 1403 l 272 1410 l 361 1410 l 472 1222 l 472 1215 l 414 1215 z "},"Ǖ":{"ha":857,"x_min":117,"x_max":740,"o":"m 740 956 l 740 413 q 721 144 740 228 q 638 24 701 60 q 429 -11 574 -11 q 220 24 285 -11 q 136 144 156 60 q 117 413 117 228 l 117 956 l 199 956 l 199 367 q 212 170 199 229 q 272 87 225 111 q 429 63 319 63 q 585 87 539 63 q 645 170 632 111 q 658 367 658 229 l 658 956 l 740 956 m 264 1118 l 264 1215 l 344 1215 l 344 1118 l 264 1118 m 513 1118 l 513 1215 l 593 1215 l 593 1118 l 513 1118 m 283 1335 l 283 1408 l 578 1408 l 578 1335 l 283 1335 z "},"Ụ":{"ha":857,"x_min":117,"x_max":740,"o":"m 740 956 l 740 413 q 721 144 740 228 q 638 24 701 60 q 429 -11 574 -11 q 220 24 285 -11 q 136 144 156 60 q 117 413 117 228 l 117 956 l 199 956 l 199 367 q 212 170 199 229 q 272 87 225 111 q 429 63 319 63 q 585 87 539 63 q 645 170 632 111 q 658 367 658 229 l 658 956 l 740 956 m 382 -197 l 382 -86 l 476 -86 l 476 -197 l 382 -197 z "},"Ù":{"ha":857,"x_min":117,"x_max":740,"o":"m 740 956 l 740 413 q 721 144 740 228 q 638 24 701 60 q 429 -11 574 -11 q 220 24 285 -11 q 136 144 156 60 q 117 413 117 228 l 117 956 l 199 956 l 199 367 q 212 170 199 229 q 272 87 225 111 q 429 63 319 63 q 585 87 539 63 q 645 170 632 111 q 658 367 658 229 l 658 956 l 740 956 m 428 1042 l 286 1229 l 286 1236 l 375 1236 l 486 1049 l 486 1042 l 428 1042 z "},"Ủ":{"ha":857,"x_min":117,"x_max":740,"o":"m 740 956 l 740 413 q 721 144 740 228 q 638 24 701 60 q 429 -11 574 -11 q 220 24 285 -11 q 136 144 156 60 q 117 413 117 228 l 117 956 l 199 956 l 199 367 q 212 170 199 229 q 272 87 225 111 q 429 63 319 63 q 585 87 539 63 q 645 170 632 111 q 658 367 658 229 l 658 956 l 740 956 m 365 1031 q 377 1076 365 1063 q 422 1100 389 1089 l 450 1108 q 506 1131 493 1119 q 518 1168 518 1142 q 508 1202 518 1192 q 477 1215 499 1213 q 408 1218 456 1218 q 276 1213 371 1218 l 276 1263 q 418 1272 351 1272 q 544 1252 508 1272 q 579 1175 579 1232 q 566 1111 579 1132 q 507 1075 553 1090 l 476 1067 q 438 1053 449 1058 q 424 1040 426 1047 q 421 1015 421 1032 l 365 1015 l 365 1031 z "},"Ư":{"ha":857,"x_min":117,"x_max":879,"o":"m 879 1090 l 879 1049 q 869 961 879 990 q 830 920 858 932 q 744 908 801 908 l 740 908 l 740 413 q 721 144 740 228 q 638 24 701 60 q 429 -11 574 -11 q 220 24 285 -11 q 136 144 156 60 q 117 413 117 228 l 117 956 l 199 956 l 199 367 q 212 170 199 229 q 272 87 225 111 q 429 63 319 63 q 585 87 539 63 q 645 170 632 111 q 658 367 658 229 l 658 956 l 744 956 q 805 972 792 956 q 818 1035 818 988 l 818 1090 l 879 1090 z "},"Ứ":{"ha":857,"x_min":117,"x_max":879,"o":"m 879 1090 l 879 1049 q 869 961 879 990 q 830 920 858 932 q 744 908 801 908 l 740 908 l 740 413 q 721 144 740 228 q 638 24 701 60 q 429 -11 574 -11 q 220 24 285 -11 q 136 144 156 60 q 117 413 117 228 l 117 956 l 199 956 l 199 367 q 212 170 199 229 q 272 87 225 111 q 429 63 319 63 q 585 87 539 63 q 645 170 632 111 q 658 367 658 229 l 658 956 l 744 956 q 805 972 792 956 q 818 1035 818 988 l 818 1090 l 879 1090 m 390 1039 l 390 1046 l 503 1233 l 590 1233 l 590 1226 l 449 1039 l 390 1039 z "},"Ự":{"ha":857,"x_min":117,"x_max":879,"o":"m 879 1090 l 879 1049 q 869 961 879 990 q 830 920 858 932 q 744 908 801 908 l 740 908 l 740 413 q 721 144 740 228 q 638 24 701 60 q 429 -11 574 -11 q 220 24 285 -11 q 136 144 156 60 q 117 413 117 228 l 117 956 l 199 956 l 199 367 q 212 170 199 229 q 272 87 225 111 q 429 63 319 63 q 585 87 539 63 q 645 170 632 111 q 658 367 658 229 l 658 956 l 744 956 q 805 972 792 956 q 818 1035 818 988 l 818 1090 l 879 1090 m 382 -197 l 382 -86 l 476 -86 l 476 -197 l 382 -197 z "},"Ừ":{"ha":857,"x_min":117,"x_max":879,"o":"m 879 1090 l 879 1049 q 869 961 879 990 q 830 920 858 932 q 744 908 801 908 l 740 908 l 740 413 q 721 144 740 228 q 638 24 701 60 q 429 -11 574 -11 q 220 24 285 -11 q 136 144 156 60 q 117 413 117 228 l 117 956 l 199 956 l 199 367 q 212 170 199 229 q 272 87 225 111 q 429 63 319 63 q 585 87 539 63 q 645 170 632 111 q 658 367 658 229 l 658 956 l 744 956 q 805 972 792 956 q 818 1035 818 988 l 818 1090 l 879 1090 m 411 1039 l 269 1226 l 269 1233 l 358 1233 l 469 1046 l 469 1039 l 411 1039 z "},"Ử":{"ha":857,"x_min":117,"x_max":879,"o":"m 879 1090 l 879 1049 q 869 961 879 990 q 830 920 858 932 q 744 908 801 908 l 740 908 l 740 413 q 721 144 740 228 q 638 24 701 60 q 429 -11 574 -11 q 220 24 285 -11 q 136 144 156 60 q 117 413 117 228 l 117 956 l 199 956 l 199 367 q 212 170 199 229 q 272 87 225 111 q 429 63 319 63 q 585 87 539 63 q 645 170 632 111 q 658 367 658 229 l 658 956 l 744 956 q 805 972 792 956 q 818 1035 818 988 l 818 1090 l 879 1090 m 365 1031 q 377 1076 365 1063 q 422 1100 389 1089 l 450 1108 q 506 1131 493 1119 q 518 1168 518 1142 q 508 1202 518 1192 q 477 1215 499 1213 q 408 1218 456 1218 q 276 1213 371 1218 l 276 1263 q 418 1272 351 1272 q 544 1252 508 1272 q 579 1175 579 1232 q 566 1111 579 1132 q 507 1075 553 1090 l 476 1067 q 438 1053 449 1058 q 424 1040 426 1047 q 421 1015 421 1032 l 365 1015 l 365 1031 z "},"Ữ":{"ha":857,"x_min":117,"x_max":879,"o":"m 879 1090 l 879 1049 q 869 961 879 990 q 830 920 858 932 q 744 908 801 908 l 740 908 l 740 413 q 721 144 740 228 q 638 24 701 60 q 429 -11 574 -11 q 220 24 285 -11 q 136 144 156 60 q 117 413 117 228 l 117 956 l 199 956 l 199 367 q 212 170 199 229 q 272 87 225 111 q 429 63 319 63 q 585 87 539 63 q 645 170 632 111 q 658 367 658 229 l 658 956 l 744 956 q 805 972 792 956 q 818 1035 818 988 l 818 1090 l 879 1090 m 646 1233 q 629 1121 646 1151 q 558 1090 613 1090 q 494 1099 526 1090 q 415 1125 461 1108 q 351 1147 376 1139 q 301 1154 325 1154 q 269 1138 276 1154 q 261 1075 261 1121 l 210 1075 q 226 1188 210 1157 q 297 1218 243 1218 q 360 1209 329 1218 q 442 1182 392 1200 q 506 1161 481 1168 q 554 1154 531 1154 q 588 1170 581 1154 q 594 1233 594 1186 l 646 1233 z "},"Ű":{"ha":857,"x_min":117,"x_max":740,"o":"m 740 956 l 740 413 q 721 144 740 228 q 638 24 701 60 q 429 -11 574 -11 q 220 24 285 -11 q 136 144 156 60 q 117 413 117 228 l 117 956 l 199 956 l 199 367 q 212 170 199 229 q 272 87 225 111 q 429 63 319 63 q 585 87 539 63 q 645 170 632 111 q 658 367 658 229 l 658 956 l 740 956 m 288 1044 l 288 1051 l 396 1226 l 478 1226 l 478 1219 l 342 1044 l 288 1044 m 515 1044 l 515 1051 l 624 1226 l 704 1226 l 704 1219 l 568 1044 l 515 1044 z "},"Ȗ":{"ha":857,"x_min":117,"x_max":740,"o":"m 740 956 l 740 413 q 721 144 740 228 q 638 24 701 60 q 429 -11 574 -11 q 220 24 285 -11 q 136 144 156 60 q 117 413 117 228 l 117 956 l 199 956 l 199 367 q 212 170 199 229 q 272 87 225 111 q 429 63 319 63 q 585 87 539 63 q 645 170 632 111 q 658 367 658 229 l 658 956 l 740 956 m 260 1046 q 269 1155 260 1115 q 315 1218 278 1194 q 429 1242 351 1242 q 543 1218 507 1242 q 588 1156 579 1194 q 597 1046 597 1117 l 539 1046 q 533 1131 539 1103 q 504 1174 528 1158 q 429 1189 481 1189 q 353 1174 378 1189 q 324 1130 329 1158 q 318 1046 318 1101 l 260 1046 z "},"Ū":{"ha":857,"x_min":117,"x_max":740,"o":"m 740 956 l 740 413 q 721 144 740 228 q 638 24 701 60 q 429 -11 574 -11 q 220 24 285 -11 q 136 144 156 60 q 117 413 117 228 l 117 956 l 199 956 l 199 367 q 212 170 199 229 q 272 87 225 111 q 429 63 319 63 q 585 87 539 63 q 645 170 632 111 q 658 367 658 229 l 658 956 l 740 956 m 281 1158 l 281 1232 l 575 1232 l 575 1158 l 281 1158 z "},"Ų":{"ha":857,"x_min":117,"x_max":740,"o":"m 740 956 l 740 413 q 733 219 740 292 q 706 100 726 147 q 643 28 685 53 q 560 -52 596 -1 q 525 -154 525 -103 q 590 -214 525 -214 q 613 -212 603 -214 l 613 -269 q 572 -272 596 -272 q 483 -244 511 -272 q 456 -168 456 -215 q 478 -87 456 -131 q 539 -3 501 -43 q 429 -11 500 -11 q 220 24 285 -11 q 136 144 156 60 q 117 413 117 228 l 117 956 l 199 956 l 199 367 q 212 170 199 229 q 272 87 225 111 q 429 63 319 63 q 585 87 539 63 q 645 170 632 111 q 658 367 658 229 l 658 956 l 740 956 z "},"Ů":{"ha":857,"x_min":117,"x_max":740,"o":"m 740 956 l 740 413 q 721 144 740 228 q 638 24 701 60 q 429 -11 574 -11 q 220 24 285 -11 q 136 144 156 60 q 117 413 117 228 l 117 956 l 199 956 l 199 367 q 212 170 199 229 q 272 87 225 111 q 429 63 319 63 q 585 87 539 63 q 645 170 632 111 q 658 367 658 229 l 658 956 l 740 956 m 428 1008 q 326 1021 357 1008 q 285 1060 294 1033 q 276 1142 276 1086 q 285 1224 276 1197 q 326 1263 294 1250 q 428 1275 357 1275 q 531 1263 499 1275 q 572 1223 563 1250 q 581 1142 581 1196 q 572 1060 581 1088 q 531 1021 563 1033 q 428 1008 499 1008 m 428 1058 q 492 1065 472 1058 q 516 1088 511 1072 q 521 1142 521 1104 q 516 1195 521 1179 q 492 1219 511 1211 q 428 1226 472 1226 q 365 1219 383 1226 q 341 1195 346 1211 q 336 1142 336 1179 q 341 1088 336 1104 q 365 1065 346 1072 q 428 1058 383 1058 z "},"Ũ":{"ha":857,"x_min":117,"x_max":740,"o":"m 740 956 l 740 413 q 721 144 740 228 q 638 24 701 60 q 429 -11 574 -11 q 220 24 285 -11 q 136 144 156 60 q 117 413 117 228 l 117 956 l 199 956 l 199 367 q 212 170 199 229 q 272 87 225 111 q 429 63 319 63 q 585 87 539 63 q 645 170 632 111 q 658 367 658 229 l 658 956 l 740 956 m 646 1233 q 629 1121 646 1151 q 558 1090 613 1090 q 494 1099 526 1090 q 415 1125 461 1108 q 351 1147 376 1139 q 301 1154 325 1154 q 269 1138 276 1154 q 261 1075 261 1121 l 210 1075 q 226 1188 210 1157 q 297 1218 243 1218 q 360 1209 329 1218 q 442 1182 392 1200 q 506 1161 481 1168 q 554 1154 531 1154 q 588 1170 581 1154 q 594 1233 594 1186 l 646 1233 z "},"V":{"ha":785,"x_min":35,"x_max":750,"o":"m 343 0 l 35 956 l 119 956 l 389 110 l 397 110 l 667 956 l 750 956 l 442 0 l 343 0 z "},"W":{"ha":1167,"x_min":43,"x_max":1126,"o":"m 801 0 l 588 815 l 582 815 l 368 0 l 272 0 l 43 956 l 128 956 l 319 125 l 328 125 l 542 956 l 631 956 l 846 125 l 854 125 l 1044 956 l 1126 956 l 897 0 l 801 0 z "},"Ẃ":{"ha":1167,"x_min":43,"x_max":1126,"o":"m 801 0 l 588 815 l 582 815 l 368 0 l 272 0 l 43 956 l 128 956 l 319 125 l 328 125 l 542 956 l 631 956 l 846 125 l 854 125 l 1044 956 l 1126 956 l 897 0 l 801 0 m 544 1039 l 544 1046 l 657 1233 l 744 1233 l 744 1226 l 603 1039 l 544 1039 z "},"Ŵ":{"ha":1167,"x_min":43,"x_max":1126,"o":"m 801 0 l 588 815 l 582 815 l 368 0 l 272 0 l 43 956 l 128 956 l 319 125 l 328 125 l 542 956 l 631 956 l 846 125 l 854 125 l 1044 956 l 1126 956 l 897 0 l 801 0 m 410 1042 l 410 1049 l 538 1233 l 628 1233 l 756 1049 l 756 1042 l 699 1042 l 582 1182 l 467 1042 l 410 1042 z "},"Ẅ":{"ha":1167,"x_min":43,"x_max":1126,"o":"m 801 0 l 588 815 l 582 815 l 368 0 l 272 0 l 43 956 l 128 956 l 319 125 l 328 125 l 542 956 l 631 956 l 846 125 l 854 125 l 1044 956 l 1126 956 l 897 0 l 801 0 m 418 1118 l 418 1215 l 499 1215 l 499 1118 l 418 1118 m 667 1118 l 667 1215 l 747 1215 l 747 1118 l 667 1118 z "},"Ẁ":{"ha":1167,"x_min":43,"x_max":1126,"o":"m 801 0 l 588 815 l 582 815 l 368 0 l 272 0 l 43 956 l 128 956 l 319 125 l 328 125 l 542 956 l 631 956 l 846 125 l 854 125 l 1044 956 l 1126 956 l 897 0 l 801 0 m 565 1039 l 424 1226 l 424 1233 l 513 1233 l 624 1046 l 624 1039 l 565 1039 z "},"X":{"ha":807,"x_min":39,"x_max":768,"o":"m 674 0 l 407 410 l 397 410 l 131 0 l 39 0 l 353 481 l 43 956 l 138 956 l 400 551 l 410 551 l 672 956 l 764 956 l 456 482 l 768 0 l 674 0 z "},"Y":{"ha":719,"x_min":15,"x_max":706,"o":"m 318 0 l 318 376 l 15 956 l 103 956 l 357 471 l 367 471 l 619 956 l 706 956 l 400 376 l 400 0 l 318 0 z "},"Ý":{"ha":719,"x_min":15,"x_max":706,"o":"m 318 0 l 318 376 l 15 956 l 103 956 l 357 471 l 367 471 l 619 956 l 706 956 l 400 376 l 400 0 l 318 0 m 329 1042 l 329 1049 l 442 1236 l 529 1236 l 529 1229 l 388 1042 l 329 1042 z "},"Ŷ":{"ha":719,"x_min":15,"x_max":706,"o":"m 318 0 l 318 376 l 15 956 l 103 956 l 357 471 l 367 471 l 619 956 l 706 956 l 400 376 l 400 0 l 318 0 m 188 1042 l 188 1049 l 315 1233 l 406 1233 l 533 1049 l 533 1042 l 476 1042 l 360 1182 l 244 1042 l 188 1042 z "},"Ÿ":{"ha":719,"x_min":15,"x_max":706,"o":"m 318 0 l 318 376 l 15 956 l 103 956 l 357 471 l 367 471 l 619 956 l 706 956 l 400 376 l 400 0 l 318 0 m 199 1072 l 199 1169 l 279 1169 l 279 1072 l 199 1072 m 447 1072 l 447 1169 l 528 1169 l 528 1072 l 447 1072 z "},"Ỵ":{"ha":719,"x_min":15,"x_max":706,"o":"m 318 0 l 318 376 l 15 956 l 103 956 l 357 471 l 367 471 l 619 956 l 706 956 l 400 376 l 400 0 l 318 0 m 314 -197 l 314 -86 l 408 -86 l 408 -197 l 314 -197 z "},"Ỳ":{"ha":719,"x_min":15,"x_max":706,"o":"m 318 0 l 318 376 l 15 956 l 103 956 l 357 471 l 367 471 l 619 956 l 706 956 l 400 376 l 400 0 l 318 0 m 343 1039 l 201 1226 l 201 1233 l 290 1233 l 401 1046 l 401 1039 l 343 1039 z "},"Ỷ":{"ha":719,"x_min":15,"x_max":706,"o":"m 318 0 l 318 376 l 15 956 l 103 956 l 357 471 l 367 471 l 619 956 l 706 956 l 400 376 l 400 0 l 318 0 m 297 1031 q 309 1076 297 1063 q 354 1100 321 1089 l 382 1108 q 438 1131 425 1119 q 450 1168 450 1142 q 440 1202 450 1192 q 409 1215 431 1213 q 340 1218 388 1218 q 208 1213 303 1218 l 208 1263 q 350 1272 283 1272 q 476 1252 440 1272 q 511 1175 511 1232 q 498 1111 511 1132 q 439 1075 485 1090 l 408 1067 q 369 1053 381 1058 q 356 1040 358 1047 q 353 1015 353 1032 l 297 1015 l 297 1031 z "},"Ȳ":{"ha":719,"x_min":15,"x_max":706,"o":"m 318 0 l 318 376 l 15 956 l 103 956 l 357 471 l 367 471 l 619 956 l 706 956 l 400 376 l 400 0 l 318 0 m 213 1158 l 213 1232 l 507 1232 l 507 1158 l 213 1158 z "},"Ỹ":{"ha":719,"x_min":15,"x_max":706,"o":"m 318 0 l 318 376 l 15 956 l 103 956 l 357 471 l 367 471 l 619 956 l 706 956 l 400 376 l 400 0 l 318 0 m 578 1233 q 561 1121 578 1151 q 490 1090 544 1090 q 426 1099 458 1090 q 347 1125 393 1108 q 283 1147 308 1139 q 233 1154 257 1154 q 201 1138 208 1154 q 193 1075 193 1121 l 142 1075 q 158 1188 142 1157 q 229 1218 175 1218 q 292 1209 261 1218 q 374 1182 324 1200 q 438 1161 413 1168 q 486 1154 463 1154 q 519 1170 513 1154 q 526 1233 526 1186 l 578 1233 z "},"Z":{"ha":714,"x_min":61,"x_max":657,"o":"m 61 0 l 61 69 l 550 882 l 75 882 l 75 956 l 649 956 l 649 888 l 160 72 l 657 72 l 657 0 l 61 0 z "},"Ź":{"ha":714,"x_min":61,"x_max":657,"o":"m 61 0 l 61 69 l 550 882 l 75 882 l 75 956 l 649 956 l 649 888 l 160 72 l 657 72 l 657 0 l 61 0 m 318 1039 l 318 1046 l 431 1233 l 518 1233 l 518 1226 l 376 1039 l 318 1039 z "},"Ž":{"ha":715,"x_min":61,"x_max":657,"o":"m 61 0 l 61 69 l 550 882 l 75 882 l 75 956 l 649 956 l 649 888 l 160 72 l 657 72 l 657 0 l 61 0 m 322 1042 l 194 1225 l 194 1233 l 251 1233 l 367 1092 l 483 1233 l 540 1233 l 540 1225 l 413 1042 l 322 1042 z "},"Ż":{"ha":714,"x_min":61,"x_max":657,"o":"m 61 0 l 61 69 l 550 882 l 75 882 l 75 956 l 649 956 l 649 888 l 160 72 l 657 72 l 657 0 l 61 0 m 317 1118 l 317 1215 l 397 1215 l 397 1118 l 317 1118 z "},"Ẓ":{"ha":714,"x_min":61,"x_max":657,"o":"m 61 0 l 61 69 l 550 882 l 75 882 l 75 956 l 649 956 l 649 888 l 160 72 l 657 72 l 657 0 l 61 0 m 310 -197 l 310 -86 l 404 -86 l 404 -197 l 310 -197 z "},"a":{"ha":696,"x_min":68,"x_max":585,"o":"m 286 -11 q 161 6 208 -11 q 91 68 114 24 q 68 193 68 113 q 85 317 68 274 q 144 381 103 361 q 263 400 186 400 q 507 393 301 400 l 507 449 q 492 585 507 544 q 438 639 478 626 q 307 651 399 651 q 207 647 267 651 q 111 635 147 642 l 111 701 q 332 719 201 719 q 492 697 439 719 q 565 618 546 674 q 585 453 585 563 l 585 0 l 518 0 l 513 106 l 506 106 q 424 12 482 35 q 286 -11 365 -11 m 304 57 q 416 71 372 57 q 479 128 460 85 q 501 199 494 163 q 507 289 507 236 l 507 338 l 282 338 q 196 327 224 338 q 157 288 168 317 q 146 197 146 258 q 158 110 146 139 q 204 69 171 81 q 304 57 238 57 z "},"á":{"ha":696,"x_min":68,"x_max":585,"o":"m 286 -11 q 161 6 208 -11 q 91 68 114 24 q 68 193 68 113 q 85 317 68 274 q 144 381 103 361 q 263 400 186 400 q 507 393 301 400 l 507 449 q 492 585 507 544 q 438 639 478 626 q 307 651 399 651 q 207 647 267 651 q 111 635 147 642 l 111 701 q 332 719 201 719 q 492 697 439 719 q 565 618 546 674 q 585 453 585 563 l 585 0 l 518 0 l 513 106 l 506 106 q 424 12 482 35 q 286 -11 365 -11 m 304 57 q 416 71 372 57 q 479 128 460 85 q 501 199 494 163 q 507 289 507 236 l 507 338 l 282 338 q 196 327 224 338 q 157 288 168 317 q 146 197 146 258 q 158 110 146 139 q 204 69 171 81 q 304 57 238 57 m 300 838 l 300 844 l 413 1032 l 500 1032 l 500 1025 l 358 838 l 300 838 z "},"ă":{"ha":696,"x_min":68,"x_max":585,"o":"m 286 -11 q 161 6 208 -11 q 91 68 114 24 q 68 193 68 113 q 85 317 68 274 q 144 381 103 361 q 263 400 186 400 q 507 393 301 400 l 507 449 q 492 585 507 544 q 438 639 478 626 q 307 651 399 651 q 207 647 267 651 q 111 635 147 642 l 111 701 q 332 719 201 719 q 492 697 439 719 q 565 618 546 674 q 585 453 585 563 l 585 0 l 518 0 l 513 106 l 506 106 q 424 12 482 35 q 286 -11 365 -11 m 304 57 q 416 71 372 57 q 479 128 460 85 q 501 199 494 163 q 507 289 507 236 l 507 338 l 282 338 q 196 327 224 338 q 157 288 168 317 q 146 197 146 258 q 158 110 146 139 q 204 69 171 81 q 304 57 238 57 m 517 1032 q 508 923 517 963 q 462 860 499 883 q 347 836 425 836 q 233 860 269 836 q 188 922 197 883 q 179 1032 179 961 l 238 1032 q 243 947 238 975 q 272 904 249 919 q 347 889 296 889 q 423 904 399 889 q 453 948 447 919 q 458 1032 458 976 l 517 1032 z "},"ắ":{"ha":696,"x_min":68,"x_max":585,"o":"m 286 -11 q 161 6 208 -11 q 91 68 114 24 q 68 193 68 113 q 85 317 68 274 q 144 381 103 361 q 263 400 186 400 q 507 393 301 400 l 507 449 q 492 585 507 544 q 438 639 478 626 q 307 651 399 651 q 207 647 267 651 q 111 635 147 642 l 111 701 q 332 719 201 719 q 492 697 439 719 q 565 618 546 674 q 585 453 585 563 l 585 0 l 518 0 l 513 106 l 506 106 q 424 12 482 35 q 286 -11 365 -11 m 304 57 q 416 71 372 57 q 479 128 460 85 q 501 199 494 163 q 507 289 507 236 l 507 338 l 282 338 q 196 327 224 338 q 157 288 168 317 q 146 197 146 258 q 158 110 146 139 q 204 69 171 81 q 304 57 238 57 m 513 1032 q 503 923 513 963 q 458 860 494 883 q 343 836 421 836 q 229 860 265 836 q 184 922 193 883 q 175 1032 175 961 l 233 1032 q 239 947 233 975 q 268 904 244 919 q 343 889 292 889 q 419 904 394 889 q 449 948 443 919 q 454 1032 454 976 l 513 1032 m 311 1078 l 311 1085 l 424 1272 l 511 1272 l 511 1265 l 369 1078 l 311 1078 z "},"ặ":{"ha":696,"x_min":68,"x_max":585,"o":"m 286 -11 q 161 6 208 -11 q 91 68 114 24 q 68 193 68 113 q 85 317 68 274 q 144 381 103 361 q 263 400 186 400 q 507 393 301 400 l 507 449 q 492 585 507 544 q 438 639 478 626 q 307 651 399 651 q 207 647 267 651 q 111 635 147 642 l 111 701 q 332 719 201 719 q 492 697 439 719 q 565 618 546 674 q 585 453 585 563 l 585 0 l 518 0 l 513 106 l 506 106 q 424 12 482 35 q 286 -11 365 -11 m 304 57 q 416 71 372 57 q 479 128 460 85 q 501 199 494 163 q 507 289 507 236 l 507 338 l 282 338 q 196 327 224 338 q 157 288 168 317 q 146 197 146 258 q 158 110 146 139 q 204 69 171 81 q 304 57 238 57 m 301 -197 l 301 -86 l 396 -86 l 396 -197 l 301 -197 m 517 1032 q 508 923 517 963 q 462 860 499 883 q 347 836 425 836 q 233 860 269 836 q 188 922 197 883 q 179 1032 179 961 l 238 1032 q 243 947 238 975 q 272 904 249 919 q 347 889 296 889 q 423 904 399 889 q 453 948 447 919 q 458 1032 458 976 l 517 1032 z "},"ằ":{"ha":696,"x_min":68,"x_max":585,"o":"m 286 -11 q 161 6 208 -11 q 91 68 114 24 q 68 193 68 113 q 85 317 68 274 q 144 381 103 361 q 263 400 186 400 q 507 393 301 400 l 507 449 q 492 585 507 544 q 438 639 478 626 q 307 651 399 651 q 207 647 267 651 q 111 635 147 642 l 111 701 q 332 719 201 719 q 492 697 439 719 q 565 618 546 674 q 585 453 585 563 l 585 0 l 518 0 l 513 106 l 506 106 q 424 12 482 35 q 286 -11 365 -11 m 304 57 q 416 71 372 57 q 479 128 460 85 q 501 199 494 163 q 507 289 507 236 l 507 338 l 282 338 q 196 327 224 338 q 157 288 168 317 q 146 197 146 258 q 158 110 146 139 q 204 69 171 81 q 304 57 238 57 m 518 1032 q 509 923 518 963 q 463 860 500 883 q 349 836 426 836 q 235 860 271 836 q 190 922 199 883 q 181 1032 181 961 l 239 1032 q 244 947 239 975 q 274 904 250 919 q 349 889 297 889 q 424 904 400 889 q 454 948 449 919 q 460 1032 460 976 l 518 1032 m 333 1078 l 192 1265 l 192 1272 l 281 1272 l 392 1085 l 392 1078 l 333 1078 z "},"ẳ":{"ha":696,"x_min":68,"x_max":585,"o":"m 286 -11 q 161 6 208 -11 q 91 68 114 24 q 68 193 68 113 q 85 317 68 274 q 144 381 103 361 q 263 400 186 400 q 507 393 301 400 l 507 449 q 492 585 507 544 q 438 639 478 626 q 307 651 399 651 q 207 647 267 651 q 111 635 147 642 l 111 701 q 332 719 201 719 q 492 697 439 719 q 565 618 546 674 q 585 453 585 563 l 585 0 l 518 0 l 513 106 l 506 106 q 424 12 482 35 q 286 -11 365 -11 m 304 57 q 416 71 372 57 q 479 128 460 85 q 501 199 494 163 q 507 289 507 236 l 507 338 l 282 338 q 196 327 224 338 q 157 288 168 317 q 146 197 146 258 q 158 110 146 139 q 204 69 171 81 q 304 57 238 57 m 517 1032 q 508 923 517 963 q 462 860 499 883 q 347 836 425 836 q 233 860 269 836 q 188 922 197 883 q 179 1032 179 961 l 238 1032 q 243 947 238 975 q 272 904 249 919 q 347 889 296 889 q 423 904 399 889 q 453 948 447 919 q 458 1032 458 976 l 517 1032 m 292 1047 q 303 1092 292 1079 q 349 1117 315 1106 l 376 1125 q 432 1147 419 1136 q 444 1183 444 1157 q 435 1218 444 1207 q 403 1232 425 1229 q 335 1235 382 1235 q 203 1228 282 1235 l 203 1279 q 344 1289 278 1289 q 470 1269 435 1289 q 506 1190 506 1249 q 492 1128 506 1149 q 433 1092 479 1107 l 403 1082 q 363 1068 374 1074 q 350 1056 353 1063 q 347 1032 347 1049 l 292 1032 l 292 1047 z "},"ẵ":{"ha":696,"x_min":68,"x_max":585,"o":"m 286 -11 q 161 6 208 -11 q 91 68 114 24 q 68 193 68 113 q 85 317 68 274 q 144 381 103 361 q 263 400 186 400 q 507 393 301 400 l 507 449 q 492 585 507 544 q 438 639 478 626 q 307 651 399 651 q 207 647 267 651 q 111 635 147 642 l 111 701 q 332 719 201 719 q 492 697 439 719 q 565 618 546 674 q 585 453 585 563 l 585 0 l 518 0 l 513 106 l 506 106 q 424 12 482 35 q 286 -11 365 -11 m 304 57 q 416 71 372 57 q 479 128 460 85 q 501 199 494 163 q 507 289 507 236 l 507 338 l 282 338 q 196 327 224 338 q 157 288 168 317 q 146 197 146 258 q 158 110 146 139 q 204 69 171 81 q 304 57 238 57 m 514 1032 q 505 923 514 963 q 459 860 496 883 q 344 836 422 836 q 231 860 267 836 q 185 922 194 883 q 176 1032 176 961 l 235 1032 q 240 947 235 975 q 269 904 246 919 q 344 889 293 889 q 420 904 396 889 q 450 948 444 919 q 456 1032 456 976 l 514 1032 m 567 1275 q 550 1163 567 1193 q 479 1132 533 1132 q 415 1141 447 1132 q 336 1167 382 1150 q 272 1188 297 1181 q 222 1196 246 1196 q 190 1179 197 1196 q 182 1117 182 1163 l 131 1117 q 147 1229 131 1199 q 218 1260 164 1260 q 281 1251 250 1260 q 363 1224 313 1242 q 426 1203 401 1210 q 475 1196 451 1196 q 508 1212 501 1196 q 515 1275 515 1228 l 567 1275 z "},"ǎ":{"ha":696,"x_min":68,"x_max":585,"o":"m 286 -11 q 161 6 208 -11 q 91 68 114 24 q 68 193 68 113 q 85 317 68 274 q 144 381 103 361 q 263 400 186 400 q 507 393 301 400 l 507 449 q 492 585 507 544 q 438 639 478 626 q 307 651 399 651 q 207 647 267 651 q 111 635 147 642 l 111 701 q 332 719 201 719 q 492 697 439 719 q 565 618 546 674 q 585 453 585 563 l 585 0 l 518 0 l 513 106 l 506 106 q 424 12 482 35 q 286 -11 365 -11 m 304 57 q 416 71 372 57 q 479 128 460 85 q 501 199 494 163 q 507 289 507 236 l 507 338 l 282 338 q 196 327 224 338 q 157 288 168 317 q 146 197 146 258 q 158 110 146 139 q 204 69 171 81 q 304 57 238 57 m 304 840 l 176 1024 l 176 1032 l 233 1032 l 349 890 l 465 1032 l 522 1032 l 522 1024 l 394 840 l 304 840 z "},"â":{"ha":696,"x_min":68,"x_max":585,"o":"m 286 -11 q 161 6 208 -11 q 91 68 114 24 q 68 193 68 113 q 85 317 68 274 q 144 381 103 361 q 263 400 186 400 q 507 393 301 400 l 507 449 q 492 585 507 544 q 438 639 478 626 q 307 651 399 651 q 207 647 267 651 q 111 635 147 642 l 111 701 q 332 719 201 719 q 492 697 439 719 q 565 618 546 674 q 585 453 585 563 l 585 0 l 518 0 l 513 106 l 506 106 q 424 12 482 35 q 286 -11 365 -11 m 304 57 q 416 71 372 57 q 479 128 460 85 q 501 199 494 163 q 507 289 507 236 l 507 338 l 282 338 q 196 327 224 338 q 157 288 168 317 q 146 197 146 258 q 158 110 146 139 q 204 69 171 81 q 304 57 238 57 m 176 840 l 176 847 l 304 1032 l 394 1032 l 522 847 l 522 840 l 465 840 l 349 981 l 233 840 l 176 840 z "},"ấ":{"ha":696,"x_min":68,"x_max":626,"o":"m 286 -11 q 161 6 208 -11 q 91 68 114 24 q 68 193 68 113 q 85 317 68 274 q 144 381 103 361 q 263 400 186 400 q 507 393 301 400 l 507 449 q 492 585 507 544 q 438 639 478 626 q 307 651 399 651 q 207 647 267 651 q 111 635 147 642 l 111 701 q 332 719 201 719 q 492 697 439 719 q 565 618 546 674 q 585 453 585 563 l 585 0 l 518 0 l 513 106 l 506 106 q 424 12 482 35 q 286 -11 365 -11 m 304 57 q 416 71 372 57 q 479 128 460 85 q 501 199 494 163 q 507 289 507 236 l 507 338 l 282 338 q 196 327 224 338 q 157 288 168 317 q 146 197 146 258 q 158 110 146 139 q 204 69 171 81 q 304 57 238 57 m 172 840 l 172 847 l 300 1032 l 390 1032 l 518 847 l 518 840 l 461 840 l 344 981 l 229 840 l 172 840 m 426 1042 l 426 1049 l 539 1236 l 626 1236 l 626 1229 l 485 1042 l 426 1042 z "},"ậ":{"ha":696,"x_min":68,"x_max":585,"o":"m 286 -11 q 161 6 208 -11 q 91 68 114 24 q 68 193 68 113 q 85 317 68 274 q 144 381 103 361 q 263 400 186 400 q 507 393 301 400 l 507 449 q 492 585 507 544 q 438 639 478 626 q 307 651 399 651 q 207 647 267 651 q 111 635 147 642 l 111 701 q 332 719 201 719 q 492 697 439 719 q 565 618 546 674 q 585 453 585 563 l 585 0 l 518 0 l 513 106 l 506 106 q 424 12 482 35 q 286 -11 365 -11 m 304 57 q 416 71 372 57 q 479 128 460 85 q 501 199 494 163 q 507 289 507 236 l 507 338 l 282 338 q 196 327 224 338 q 157 288 168 317 q 146 197 146 258 q 158 110 146 139 q 204 69 171 81 q 304 57 238 57 m 301 -197 l 301 -86 l 396 -86 l 396 -197 l 301 -197 m 175 840 l 175 847 l 303 1032 l 393 1032 l 521 847 l 521 840 l 464 840 l 347 981 l 232 840 l 175 840 z "},"ầ":{"ha":696,"x_min":68,"x_max":585,"o":"m 286 -11 q 161 6 208 -11 q 91 68 114 24 q 68 193 68 113 q 85 317 68 274 q 144 381 103 361 q 263 400 186 400 q 507 393 301 400 l 507 449 q 492 585 507 544 q 438 639 478 626 q 307 651 399 651 q 207 647 267 651 q 111 635 147 642 l 111 701 q 332 719 201 719 q 492 697 439 719 q 565 618 546 674 q 585 453 585 563 l 585 0 l 518 0 l 513 106 l 506 106 q 424 12 482 35 q 286 -11 365 -11 m 304 57 q 416 71 372 57 q 479 128 460 85 q 501 199 494 163 q 507 289 507 236 l 507 338 l 282 338 q 196 327 224 338 q 157 288 168 317 q 146 197 146 258 q 158 110 146 139 q 204 69 171 81 q 304 57 238 57 m 171 840 l 171 847 l 299 1032 l 389 1032 l 517 847 l 517 840 l 460 840 l 343 981 l 228 840 l 171 840 m 464 1042 l 322 1229 l 322 1236 l 411 1236 l 522 1049 l 522 1042 l 464 1042 z "},"ẩ":{"ha":696,"x_min":68,"x_max":617,"o":"m 286 -11 q 161 6 208 -11 q 91 68 114 24 q 68 193 68 113 q 85 317 68 274 q 144 381 103 361 q 263 400 186 400 q 507 393 301 400 l 507 449 q 492 585 507 544 q 438 639 478 626 q 307 651 399 651 q 207 647 267 651 q 111 635 147 642 l 111 701 q 332 719 201 719 q 492 697 439 719 q 565 618 546 674 q 585 453 585 563 l 585 0 l 518 0 l 513 106 l 506 106 q 424 12 482 35 q 286 -11 365 -11 m 304 57 q 416 71 372 57 q 479 128 460 85 q 501 199 494 163 q 507 289 507 236 l 507 338 l 282 338 q 196 327 224 338 q 157 288 168 317 q 146 197 146 258 q 158 110 146 139 q 204 69 171 81 q 304 57 238 57 m 175 840 l 175 847 l 303 1032 l 393 1032 l 521 847 l 521 840 l 464 840 l 347 981 l 232 840 l 175 840 m 403 1054 q 415 1099 403 1086 q 460 1124 426 1113 l 488 1132 q 543 1153 531 1143 q 556 1190 556 1164 q 546 1225 556 1214 q 515 1239 536 1236 q 446 1242 493 1242 q 314 1235 393 1242 l 314 1286 q 456 1296 389 1296 q 581 1276 546 1296 q 617 1197 617 1256 q 603 1135 617 1156 q 544 1099 590 1114 l 514 1089 q 474 1075 485 1081 q 461 1063 464 1069 q 458 1039 458 1056 l 403 1039 l 403 1054 z "},"ẫ":{"ha":696,"x_min":68,"x_max":585,"o":"m 286 -11 q 161 6 208 -11 q 91 68 114 24 q 68 193 68 113 q 85 317 68 274 q 144 381 103 361 q 263 400 186 400 q 507 393 301 400 l 507 449 q 492 585 507 544 q 438 639 478 626 q 307 651 399 651 q 207 647 267 651 q 111 635 147 642 l 111 701 q 332 719 201 719 q 492 697 439 719 q 565 618 546 674 q 585 453 585 563 l 585 0 l 518 0 l 513 106 l 506 106 q 424 12 482 35 q 286 -11 365 -11 m 304 57 q 416 71 372 57 q 479 128 460 85 q 501 199 494 163 q 507 289 507 236 l 507 338 l 282 338 q 196 327 224 338 q 157 288 168 317 q 146 197 146 258 q 158 110 146 139 q 204 69 171 81 q 304 57 238 57 m 172 840 l 172 847 l 300 1032 l 390 1032 l 518 847 l 518 840 l 461 840 l 344 981 l 229 840 l 172 840 m 565 1272 q 549 1160 565 1190 q 478 1129 532 1129 q 413 1138 446 1129 q 335 1164 381 1147 q 270 1185 296 1178 q 221 1193 244 1193 q 188 1176 196 1193 q 181 1114 181 1160 l 129 1114 q 146 1226 129 1196 q 217 1257 163 1257 q 280 1248 249 1257 q 361 1221 311 1239 q 425 1200 400 1207 q 474 1193 450 1193 q 507 1209 500 1193 q 514 1272 514 1225 l 565 1272 z "},"ȁ":{"ha":696,"x_min":68,"x_max":585,"o":"m 286 -11 q 161 6 208 -11 q 91 68 114 24 q 68 193 68 113 q 85 317 68 274 q 144 381 103 361 q 263 400 186 400 q 507 393 301 400 l 507 449 q 492 585 507 544 q 438 639 478 626 q 307 651 399 651 q 207 647 267 651 q 111 635 147 642 l 111 701 q 332 719 201 719 q 492 697 439 719 q 565 618 546 674 q 585 453 585 563 l 585 0 l 518 0 l 513 106 l 506 106 q 424 12 482 35 q 286 -11 365 -11 m 304 57 q 416 71 372 57 q 479 128 460 85 q 501 199 494 163 q 507 289 507 236 l 507 338 l 282 338 q 196 327 224 338 q 157 288 168 317 q 146 197 146 258 q 158 110 146 139 q 204 69 171 81 q 304 57 238 57 m 274 843 l 221 843 l 85 1018 l 85 1025 l 165 1025 l 274 850 l 274 843 m 501 843 l 447 843 l 311 1018 l 311 1025 l 393 1025 l 501 850 l 501 843 z "},"ä":{"ha":696,"x_min":68,"x_max":585,"o":"m 286 -11 q 161 6 208 -11 q 91 68 114 24 q 68 193 68 113 q 85 317 68 274 q 144 381 103 361 q 263 400 186 400 q 507 393 301 400 l 507 449 q 492 585 507 544 q 438 639 478 626 q 307 651 399 651 q 207 647 267 651 q 111 635 147 642 l 111 701 q 332 719 201 719 q 492 697 439 719 q 565 618 546 674 q 585 453 585 563 l 585 0 l 518 0 l 513 106 l 506 106 q 424 12 482 35 q 286 -11 365 -11 m 304 57 q 416 71 372 57 q 479 128 460 85 q 501 199 494 163 q 507 289 507 236 l 507 338 l 282 338 q 196 327 224 338 q 157 288 168 317 q 146 197 146 258 q 158 110 146 139 q 204 69 171 81 q 304 57 238 57 m 186 915 l 186 1013 l 267 1013 l 267 915 l 186 915 m 435 915 l 435 1013 l 515 1013 l 515 915 l 435 915 z "},"ạ":{"ha":696,"x_min":68,"x_max":585,"o":"m 286 -11 q 161 6 208 -11 q 91 68 114 24 q 68 193 68 113 q 85 317 68 274 q 144 381 103 361 q 263 400 186 400 q 507 393 301 400 l 507 449 q 492 585 507 544 q 438 639 478 626 q 307 651 399 651 q 207 647 267 651 q 111 635 147 642 l 111 701 q 332 719 201 719 q 492 697 439 719 q 565 618 546 674 q 585 453 585 563 l 585 0 l 518 0 l 513 106 l 506 106 q 424 12 482 35 q 286 -11 365 -11 m 304 57 q 416 71 372 57 q 479 128 460 85 q 501 199 494 163 q 507 289 507 236 l 507 338 l 282 338 q 196 327 224 338 q 157 288 168 317 q 146 197 146 258 q 158 110 146 139 q 204 69 171 81 q 304 57 238 57 m 301 -197 l 301 -86 l 396 -86 l 396 -197 l 301 -197 z "},"à":{"ha":696,"x_min":68,"x_max":585,"o":"m 286 -11 q 161 6 208 -11 q 91 68 114 24 q 68 193 68 113 q 85 317 68 274 q 144 381 103 361 q 263 400 186 400 q 507 393 301 400 l 507 449 q 492 585 507 544 q 438 639 478 626 q 307 651 399 651 q 207 647 267 651 q 111 635 147 642 l 111 701 q 332 719 201 719 q 492 697 439 719 q 565 618 546 674 q 585 453 585 563 l 585 0 l 518 0 l 513 106 l 506 106 q 424 12 482 35 q 286 -11 365 -11 m 304 57 q 416 71 372 57 q 479 128 460 85 q 501 199 494 163 q 507 289 507 236 l 507 338 l 282 338 q 196 327 224 338 q 157 288 168 317 q 146 197 146 258 q 158 110 146 139 q 204 69 171 81 q 304 57 238 57 m 344 838 l 203 1025 l 203 1032 l 292 1032 l 403 844 l 403 838 l 344 838 z "},"ả":{"ha":696,"x_min":68,"x_max":585,"o":"m 286 -11 q 161 6 208 -11 q 91 68 114 24 q 68 193 68 113 q 85 317 68 274 q 144 381 103 361 q 263 400 186 400 q 507 393 301 400 l 507 449 q 492 585 507 544 q 438 639 478 626 q 307 651 399 651 q 207 647 267 651 q 111 635 147 642 l 111 701 q 332 719 201 719 q 492 697 439 719 q 565 618 546 674 q 585 453 585 563 l 585 0 l 518 0 l 513 106 l 506 106 q 424 12 482 35 q 286 -11 365 -11 m 304 57 q 416 71 372 57 q 479 128 460 85 q 501 199 494 163 q 507 289 507 236 l 507 338 l 282 338 q 196 327 224 338 q 157 288 168 317 q 146 197 146 258 q 158 110 146 139 q 204 69 171 81 q 304 57 238 57 m 285 860 q 297 905 285 892 q 342 929 308 918 l 369 938 q 425 959 413 949 q 438 996 438 969 q 428 1031 438 1019 q 397 1044 418 1042 q 328 1047 375 1047 q 196 1040 275 1047 l 196 1092 q 338 1101 271 1101 q 463 1081 428 1101 q 499 1003 499 1061 q 485 940 499 961 q 426 904 472 919 l 396 894 q 356 881 367 886 q 343 868 346 875 q 340 844 340 861 l 285 844 l 285 860 z "},"ȃ":{"ha":696,"x_min":68,"x_max":585,"o":"m 286 -11 q 161 6 208 -11 q 91 68 114 24 q 68 193 68 113 q 85 317 68 274 q 144 381 103 361 q 263 400 186 400 q 507 393 301 400 l 507 449 q 492 585 507 544 q 438 639 478 626 q 307 651 399 651 q 207 647 267 651 q 111 635 147 642 l 111 701 q 332 719 201 719 q 492 697 439 719 q 565 618 546 674 q 585 453 585 563 l 585 0 l 518 0 l 513 106 l 506 106 q 424 12 482 35 q 286 -11 365 -11 m 304 57 q 416 71 372 57 q 479 128 460 85 q 501 199 494 163 q 507 289 507 236 l 507 338 l 282 338 q 196 327 224 338 q 157 288 168 317 q 146 197 146 258 q 158 110 146 139 q 204 69 171 81 q 304 57 238 57 m 179 844 q 188 953 179 914 q 234 1017 197 993 q 349 1040 271 1040 q 463 1017 426 1040 q 508 954 499 993 q 517 844 517 915 l 458 844 q 453 929 458 901 q 424 972 447 957 q 349 988 400 988 q 273 972 297 988 q 243 928 249 957 q 238 844 238 900 l 179 844 z "},"ā":{"ha":696,"x_min":68,"x_max":585,"o":"m 286 -11 q 161 6 208 -11 q 91 68 114 24 q 68 193 68 113 q 85 317 68 274 q 144 381 103 361 q 263 400 186 400 q 507 393 301 400 l 507 449 q 492 585 507 544 q 438 639 478 626 q 307 651 399 651 q 207 647 267 651 q 111 635 147 642 l 111 701 q 332 719 201 719 q 492 697 439 719 q 565 618 546 674 q 585 453 585 563 l 585 0 l 518 0 l 513 106 l 506 106 q 424 12 482 35 q 286 -11 365 -11 m 304 57 q 416 71 372 57 q 479 128 460 85 q 501 199 494 163 q 507 289 507 236 l 507 338 l 282 338 q 196 327 224 338 q 157 288 168 317 q 146 197 146 258 q 158 110 146 139 q 204 69 171 81 q 304 57 238 57 m 200 957 l 200 1031 l 494 1031 l 494 957 l 200 957 z "},"ą":{"ha":696,"x_min":68,"x_max":589,"o":"m 567 -214 q 589 -212 579 -214 l 589 -269 q 549 -272 572 -272 q 461 -244 489 -272 q 433 -171 433 -215 q 456 -83 433 -128 q 518 0 479 -39 l 513 106 l 506 106 q 424 12 482 35 q 286 -11 365 -11 q 161 6 208 -11 q 91 68 114 24 q 68 193 68 113 q 85 317 68 274 q 144 381 103 361 q 263 400 186 400 q 507 393 301 400 l 507 449 q 492 585 507 544 q 438 639 478 626 q 307 651 399 651 q 207 647 267 651 q 111 635 147 642 l 111 701 q 332 719 201 719 q 492 697 439 719 q 565 618 546 674 q 585 453 585 563 l 585 0 q 529 -69 556 -24 q 503 -156 503 -115 q 567 -214 503 -214 m 507 338 l 282 338 q 196 327 224 338 q 157 288 168 317 q 146 197 146 258 q 158 110 146 139 q 204 69 171 81 q 304 57 238 57 q 416 71 372 57 q 479 128 460 85 q 501 199 494 163 q 507 289 507 236 l 507 338 z "},"å":{"ha":696,"x_min":68,"x_max":585,"o":"m 286 -11 q 161 6 208 -11 q 91 68 114 24 q 68 193 68 113 q 85 317 68 274 q 144 381 103 361 q 263 400 186 400 q 507 393 301 400 l 507 449 q 492 585 507 544 q 438 639 478 626 q 307 651 399 651 q 207 647 267 651 q 111 635 147 642 l 111 701 q 332 719 201 719 q 492 697 439 719 q 565 618 546 674 q 585 453 585 563 l 585 0 l 518 0 l 513 106 l 506 106 q 424 12 482 35 q 286 -11 365 -11 m 304 57 q 416 71 372 57 q 479 128 460 85 q 501 199 494 163 q 507 289 507 236 l 507 338 l 282 338 q 196 327 224 338 q 157 288 168 317 q 146 197 146 258 q 158 110 146 139 q 204 69 171 81 q 304 57 238 57 m 346 840 q 244 853 275 840 q 203 892 213 865 q 194 974 194 918 q 203 1056 194 1029 q 244 1094 213 1082 q 346 1107 275 1107 q 449 1094 417 1107 q 490 1055 481 1082 q 499 974 499 1028 q 490 892 499 919 q 449 853 481 865 q 346 840 417 840 m 346 890 q 410 897 390 890 q 434 920 429 904 q 439 974 439 936 q 434 1027 439 1011 q 410 1051 429 1043 q 346 1058 390 1058 q 283 1051 301 1058 q 259 1027 264 1043 q 254 974 254 1011 q 259 920 254 936 q 283 897 264 904 q 346 890 301 890 z "},"ǻ":{"ha":696,"x_min":68,"x_max":585,"o":"m 286 -11 q 161 6 208 -11 q 91 68 114 24 q 68 193 68 113 q 85 317 68 274 q 144 381 103 361 q 263 400 186 400 q 507 393 301 400 l 507 449 q 492 585 507 544 q 438 639 478 626 q 307 651 399 651 q 207 647 267 651 q 111 635 147 642 l 111 701 q 332 719 201 719 q 492 697 439 719 q 565 618 546 674 q 585 453 585 563 l 585 0 l 518 0 l 513 106 l 506 106 q 424 12 482 35 q 286 -11 365 -11 m 304 57 q 416 71 372 57 q 479 128 460 85 q 501 199 494 163 q 507 289 507 236 l 507 338 l 282 338 q 196 327 224 338 q 157 288 168 317 q 146 197 146 258 q 158 110 146 139 q 204 69 171 81 q 304 57 238 57 m 347 849 q 245 861 276 849 q 205 900 214 874 q 196 982 196 926 q 205 1064 196 1038 q 245 1103 214 1090 q 347 1115 276 1115 q 450 1103 418 1115 q 491 1063 482 1090 q 500 982 500 1036 q 491 901 500 928 q 450 861 482 874 q 347 849 418 849 m 347 899 q 411 906 392 899 q 435 928 431 913 q 440 982 440 944 q 435 1035 440 1019 q 411 1059 431 1051 q 347 1067 392 1067 q 284 1059 303 1067 q 260 1035 265 1051 q 256 982 256 1019 q 260 928 256 944 q 284 906 265 913 q 347 899 303 899 m 315 1161 l 315 1168 l 428 1356 l 515 1356 l 515 1349 l 374 1161 l 315 1161 z "},"ã":{"ha":696,"x_min":68,"x_max":585,"o":"m 286 -11 q 161 6 208 -11 q 91 68 114 24 q 68 193 68 113 q 85 317 68 274 q 144 381 103 361 q 263 400 186 400 q 507 393 301 400 l 507 449 q 492 585 507 544 q 438 639 478 626 q 307 651 399 651 q 207 647 267 651 q 111 635 147 642 l 111 701 q 332 719 201 719 q 492 697 439 719 q 565 618 546 674 q 585 453 585 563 l 585 0 l 518 0 l 513 106 l 506 106 q 424 12 482 35 q 286 -11 365 -11 m 304 57 q 416 71 372 57 q 479 128 460 85 q 501 199 494 163 q 507 289 507 236 l 507 338 l 282 338 q 196 327 224 338 q 157 288 168 317 q 146 197 146 258 q 158 110 146 139 q 204 69 171 81 q 304 57 238 57 m 565 1032 q 549 919 565 950 q 478 889 532 889 q 413 898 446 889 q 335 924 381 907 q 270 945 296 938 q 221 953 244 953 q 188 936 196 953 q 181 874 181 919 l 129 874 q 146 986 129 956 q 217 1017 163 1017 q 280 1008 249 1017 q 361 981 311 999 q 425 960 400 967 q 474 953 450 953 q 507 969 500 953 q 514 1032 514 985 l 565 1032 z "},"æ":{"ha":1111,"x_min":68,"x_max":1028,"o":"m 1028 332 l 585 332 q 598 155 585 210 q 655 78 611 100 q 797 57 699 57 q 902 62 844 57 q 1003 75 960 67 l 1003 8 q 904 -6 967 0 q 783 -11 842 -11 q 617 15 672 -11 q 539 108 563 42 q 445 13 507 36 q 294 -11 383 -11 q 164 6 213 -11 q 92 68 115 24 q 68 193 68 113 q 85 315 68 272 q 144 377 103 358 q 263 396 186 396 l 507 394 l 507 449 q 492 585 507 544 q 438 639 478 626 q 306 651 399 651 q 206 647 265 651 q 111 635 147 642 l 111 701 q 332 719 214 719 q 477 701 426 719 q 550 633 528 682 q 631 699 578 679 q 782 719 685 719 q 949 687 897 719 q 1014 583 1000 654 q 1028 358 1028 513 l 1028 332 m 778 651 q 649 633 688 651 q 597 564 610 615 q 585 394 585 513 l 951 394 l 951 411 q 937 569 951 519 q 887 635 922 619 q 778 651 851 651 m 507 332 l 282 332 q 196 322 224 332 q 156 285 168 313 q 144 197 144 257 q 158 108 144 138 q 203 68 171 79 q 304 57 236 57 q 419 72 375 57 q 482 135 463 86 q 507 288 507 196 l 507 332 z "},"ǽ":{"ha":1111,"x_min":68,"x_max":1028,"o":"m 1028 332 l 585 332 q 598 155 585 210 q 655 78 611 100 q 797 57 699 57 q 902 62 844 57 q 1003 75 960 67 l 1003 8 q 904 -6 967 0 q 783 -11 842 -11 q 617 15 672 -11 q 539 108 563 42 q 445 13 507 36 q 294 -11 383 -11 q 164 6 213 -11 q 92 68 115 24 q 68 193 68 113 q 85 315 68 272 q 144 377 103 358 q 263 396 186 396 l 507 394 l 507 449 q 492 585 507 544 q 438 639 478 626 q 306 651 399 651 q 206 647 265 651 q 111 635 147 642 l 111 701 q 332 719 214 719 q 477 701 426 719 q 550 633 528 682 q 631 699 578 679 q 782 719 685 719 q 949 687 897 719 q 1014 583 1000 654 q 1028 358 1028 513 l 1028 332 m 778 651 q 649 633 688 651 q 597 564 610 615 q 585 394 585 513 l 951 394 l 951 411 q 937 569 951 519 q 887 635 922 619 q 778 651 851 651 m 507 332 l 282 332 q 196 322 224 332 q 156 285 168 313 q 144 197 144 257 q 158 108 144 138 q 203 68 171 79 q 304 57 236 57 q 419 72 375 57 q 482 135 463 86 q 507 288 507 196 l 507 332 m 519 838 l 519 844 l 632 1032 l 719 1032 l 719 1025 l 578 838 l 519 838 z "},"b":{"ha":728,"x_min":113,"x_max":643,"o":"m 403 -11 q 268 13 322 -11 q 190 106 214 36 l 185 106 l 179 0 l 113 0 l 113 1032 l 190 1032 l 190 615 l 196 615 q 269 695 218 671 q 404 719 321 719 q 556 689 506 719 q 624 582 606 658 q 643 354 643 506 q 624 126 643 203 q 554 19 604 50 q 403 -11 504 -11 m 376 60 q 501 80 464 60 q 552 159 539 100 q 565 354 565 218 q 552 549 565 490 q 501 628 539 608 q 376 649 464 649 q 266 627 307 649 q 210 558 225 606 q 194 476 197 521 q 190 354 190 431 q 194 237 190 282 q 208 154 197 192 q 265 82 224 104 q 376 60 306 60 z "},"c":{"ha":563,"x_min":85,"x_max":503,"o":"m 503 7 q 427 -6 474 -1 q 338 -11 381 -11 q 170 25 224 -11 q 101 134 117 61 q 85 353 85 207 q 104 578 85 501 q 176 687 124 654 q 333 719 229 719 q 422 715 375 719 q 497 703 468 710 l 497 636 q 350 651 421 651 q 228 628 267 651 q 176 544 189 604 q 163 356 163 485 q 176 162 163 222 q 228 79 189 101 q 353 57 267 57 q 431 62 389 57 q 503 74 474 67 l 503 7 z "},"ć":{"ha":563,"x_min":85,"x_max":503,"o":"m 503 7 q 427 -6 474 -1 q 338 -11 381 -11 q 170 25 224 -11 q 101 134 117 61 q 85 353 85 207 q 104 578 85 501 q 176 687 124 654 q 333 719 229 719 q 422 715 375 719 q 497 703 468 710 l 497 636 q 350 651 421 651 q 228 628 267 651 q 176 544 189 604 q 163 356 163 485 q 176 162 163 222 q 228 79 189 101 q 353 57 267 57 q 431 62 389 57 q 503 74 474 67 l 503 7 m 246 838 l 246 844 l 358 1032 l 446 1032 l 446 1025 l 304 838 l 246 838 z "},"č":{"ha":563,"x_min":85,"x_max":503,"o":"m 503 7 q 427 -6 474 -1 q 338 -11 381 -11 q 170 25 224 -11 q 101 134 117 61 q 85 353 85 207 q 104 578 85 501 q 176 687 124 654 q 333 719 229 719 q 422 715 375 719 q 497 703 468 710 l 497 636 q 350 651 421 651 q 228 628 267 651 q 176 544 189 604 q 163 356 163 485 q 176 162 163 222 q 228 79 189 101 q 353 57 267 57 q 431 62 389 57 q 503 74 474 67 l 503 7 m 238 840 l 110 1024 l 110 1032 l 167 1032 l 282 890 l 399 1032 l 456 1032 l 456 1024 l 328 840 l 238 840 z "},"ç":{"ha":563,"x_min":85,"x_max":503,"o":"m 353 57 q 431 62 389 57 q 503 74 474 67 l 503 7 q 427 -6 474 -1 q 338 -11 381 -11 l 310 -11 l 253 -264 l 174 -264 l 174 -257 l 251 -6 q 142 48 178 7 q 95 158 106 89 q 85 353 85 226 q 104 578 85 501 q 176 687 124 654 q 333 719 229 719 q 422 715 375 719 q 497 703 468 710 l 497 636 q 350 651 421 651 q 228 628 267 651 q 176 544 189 604 q 163 356 163 485 q 176 162 163 222 q 228 79 189 101 q 353 57 267 57 z "},"ĉ":{"ha":563,"x_min":85,"x_max":503,"o":"m 503 7 q 427 -6 474 -1 q 338 -11 381 -11 q 170 25 224 -11 q 101 134 117 61 q 85 353 85 207 q 104 578 85 501 q 176 687 124 654 q 333 719 229 719 q 422 715 375 719 q 497 703 468 710 l 497 636 q 350 651 421 651 q 228 628 267 651 q 176 544 189 604 q 163 356 163 485 q 176 162 163 222 q 228 79 189 101 q 353 57 267 57 q 431 62 389 57 q 503 74 474 67 l 503 7 m 108 840 l 108 847 l 236 1032 l 326 1032 l 454 847 l 454 840 l 397 840 l 281 981 l 165 840 l 108 840 z "},"ċ":{"ha":563,"x_min":85,"x_max":503,"o":"m 503 7 q 427 -6 474 -1 q 338 -11 381 -11 q 170 25 224 -11 q 101 134 117 61 q 85 353 85 207 q 104 578 85 501 q 176 687 124 654 q 333 719 229 719 q 422 715 375 719 q 497 703 468 710 l 497 636 q 350 651 421 651 q 228 628 267 651 q 176 544 189 604 q 163 356 163 485 q 176 162 163 222 q 228 79 189 101 q 353 57 267 57 q 431 62 389 57 q 503 74 474 67 l 503 7 m 242 917 l 242 1014 l 322 1014 l 322 917 l 242 917 z "},"d":{"ha":728,"x_min":85,"x_max":615,"o":"m 324 -11 q 174 19 224 -11 q 104 126 124 50 q 85 354 85 201 q 103 582 85 506 q 172 689 122 658 q 324 719 222 719 q 458 695 407 719 q 531 615 508 671 l 538 615 l 538 1032 l 615 1032 l 615 0 l 549 0 l 543 106 l 536 106 q 459 13 514 36 q 324 -11 404 -11 m 351 60 q 463 82 422 60 q 518 151 504 104 q 534 238 531 192 q 538 368 538 285 q 535 469 538 428 q 522 542 532 511 q 464 624 506 599 q 346 649 422 649 q 224 628 261 649 q 175 549 188 608 q 163 354 163 490 q 176 159 163 218 q 226 80 189 100 q 351 60 264 60 z "},"ð":{"ha":711,"x_min":85,"x_max":625,"o":"m 354 -11 q 171 19 226 -11 q 100 119 115 49 q 85 353 85 190 q 99 585 85 513 q 167 688 114 657 q 342 719 221 719 q 508 676 450 719 l 515 679 q 428 881 483 792 l 275 856 l 275 914 l 392 933 q 338 995 364 969 q 306 1026 311 1021 l 306 1032 l 393 1032 q 421 1005 397 1028 q 471 947 444 982 l 599 968 l 599 910 l 506 893 q 570 750 542 831 q 610 588 599 669 q 625 382 625 489 q 611 126 625 201 q 542 20 597 51 q 354 -11 488 -11 m 354 57 q 491 78 453 57 q 538 154 529 100 q 547 353 547 208 q 538 535 547 479 q 488 622 529 592 q 354 651 447 651 q 219 630 257 651 q 172 553 181 608 q 163 353 163 499 q 172 154 163 208 q 219 78 181 100 q 354 57 257 57 z "},"ď":{"ha":735,"x_min":85,"x_max":772,"o":"m 324 -11 q 174 19 224 -11 q 104 126 124 50 q 85 354 85 201 q 103 582 85 506 q 172 689 122 658 q 324 719 222 719 q 458 695 407 719 q 531 615 508 671 l 538 615 l 538 1032 l 615 1032 l 615 0 l 549 0 l 543 106 l 536 106 q 459 13 514 36 q 324 -11 404 -11 m 351 60 q 463 82 422 60 q 518 151 504 104 q 534 238 531 192 q 538 368 538 285 q 535 469 538 428 q 522 542 532 511 q 464 624 506 599 q 346 649 422 649 q 224 628 261 649 q 175 549 188 608 q 163 354 163 490 q 176 159 163 218 q 226 80 189 100 q 351 60 264 60 m 674 624 l 693 842 l 693 956 l 772 956 l 772 842 l 728 624 l 674 624 z "},"đ":{"ha":728,"x_min":85,"x_max":700,"o":"m 700 888 l 615 888 l 615 0 l 549 0 l 543 106 l 536 106 q 459 13 514 36 q 324 -11 404 -11 q 174 19 224 -11 q 104 126 124 50 q 85 354 85 201 q 103 582 85 506 q 172 689 122 658 q 324 719 222 719 q 458 695 407 719 q 531 615 508 671 l 538 615 l 538 888 l 354 888 l 354 956 l 538 956 l 538 1032 l 615 1032 l 615 956 l 700 956 l 700 888 m 518 151 q 534 238 531 192 q 538 368 538 285 q 535 469 538 428 q 522 542 532 511 q 464 624 506 599 q 346 649 422 649 q 224 628 261 649 q 175 549 188 608 q 163 354 163 490 q 176 159 163 218 q 226 80 189 100 q 351 60 264 60 q 463 82 422 60 q 518 151 504 104 z "},"ḍ":{"ha":728,"x_min":85,"x_max":615,"o":"m 324 -11 q 174 19 224 -11 q 104 126 124 50 q 85 354 85 201 q 103 582 85 506 q 172 689 122 658 q 324 719 222 719 q 458 695 407 719 q 531 615 508 671 l 538 615 l 538 1032 l 615 1032 l 615 0 l 549 0 l 543 106 l 536 106 q 459 13 514 36 q 324 -11 404 -11 m 351 60 q 463 82 422 60 q 518 151 504 104 q 534 238 531 192 q 538 368 538 285 q 535 469 538 428 q 522 542 532 511 q 464 624 506 599 q 346 649 422 649 q 224 628 261 649 q 175 549 188 608 q 163 354 163 490 q 176 159 163 218 q 226 80 189 100 q 351 60 264 60 m 317 -197 l 317 -86 l 411 -86 l 411 -197 l 317 -197 z "},"ǳ":{"ha":1335,"x_min":85,"x_max":1272,"o":"m 324 -11 q 174 19 224 -11 q 104 126 124 50 q 85 354 85 201 q 103 582 85 506 q 172 689 122 658 q 324 719 222 719 q 458 695 407 719 q 531 615 508 671 l 538 615 l 538 1032 l 615 1032 l 615 0 l 549 0 l 543 106 l 536 106 q 459 13 514 36 q 324 -11 404 -11 m 351 60 q 463 82 422 60 q 518 151 504 104 q 534 238 531 192 q 538 368 538 285 q 535 469 538 428 q 522 542 532 511 q 464 624 506 599 q 346 649 422 649 q 224 628 261 649 q 175 549 188 608 q 163 354 163 490 q 176 159 163 218 q 226 80 189 100 q 351 60 264 60 m 790 0 l 790 63 l 1172 640 l 804 640 l 804 708 l 1269 708 l 1269 647 l 888 68 l 1272 68 l 1272 0 l 790 0 z "},"ǆ":{"ha":1335,"x_min":85,"x_max":1272,"o":"m 324 -11 q 174 19 224 -11 q 104 126 124 50 q 85 354 85 201 q 103 582 85 506 q 172 689 122 658 q 324 719 222 719 q 458 695 407 719 q 531 615 508 671 l 538 615 l 538 1032 l 615 1032 l 615 0 l 549 0 l 543 106 l 536 106 q 459 13 514 36 q 324 -11 404 -11 m 351 60 q 463 82 422 60 q 518 151 504 104 q 534 238 531 192 q 538 368 538 285 q 535 469 538 428 q 522 542 532 511 q 464 624 506 599 q 346 649 422 649 q 224 628 261 649 q 175 549 188 608 q 163 354 163 490 q 176 159 163 218 q 226 80 189 100 q 351 60 264 60 m 790 0 l 790 63 l 1172 640 l 804 640 l 804 708 l 1269 708 l 1269 647 l 888 68 l 1272 68 l 1272 0 l 790 0 m 988 840 l 860 1024 l 860 1032 l 917 1032 l 1032 890 l 1149 1032 l 1206 1032 l 1206 1024 l 1078 840 l 988 840 z "},"e":{"ha":689,"x_min":85,"x_max":604,"o":"m 604 328 l 163 328 q 176 153 163 207 q 232 78 189 100 q 374 57 275 57 q 478 62 421 57 q 581 75 536 67 l 581 8 q 482 -6 544 0 q 360 -11 419 -11 q 179 20 236 -11 q 103 125 122 51 q 85 353 85 199 q 100 579 85 507 q 172 685 115 651 q 358 719 229 719 q 525 687 474 719 q 590 583 576 654 q 604 356 604 511 l 604 328 m 356 651 q 226 633 265 651 q 175 562 188 614 q 163 390 163 510 l 528 390 l 528 411 q 513 570 528 521 q 464 635 499 619 q 356 651 429 651 z "},"é":{"ha":689,"x_min":85,"x_max":604,"o":"m 604 328 l 163 328 q 176 153 163 207 q 232 78 189 100 q 374 57 275 57 q 478 62 421 57 q 581 75 536 67 l 581 8 q 482 -6 544 0 q 360 -11 419 -11 q 179 20 236 -11 q 103 125 122 51 q 85 353 85 199 q 100 579 85 507 q 172 685 115 651 q 358 719 229 719 q 525 687 474 719 q 590 583 576 654 q 604 356 604 511 l 604 328 m 356 651 q 226 633 265 651 q 175 562 188 614 q 163 390 163 510 l 528 390 l 528 411 q 513 570 528 521 q 464 635 499 619 q 356 651 429 651 m 310 838 l 310 844 l 422 1032 l 510 1032 l 510 1025 l 368 838 l 310 838 z "},"ĕ":{"ha":689,"x_min":85,"x_max":604,"o":"m 604 328 l 163 328 q 176 153 163 207 q 232 78 189 100 q 374 57 275 57 q 478 62 421 57 q 581 75 536 67 l 581 8 q 482 -6 544 0 q 360 -11 419 -11 q 179 20 236 -11 q 103 125 122 51 q 85 353 85 199 q 100 579 85 507 q 172 685 115 651 q 358 719 229 719 q 525 687 474 719 q 590 583 576 654 q 604 356 604 511 l 604 328 m 356 651 q 226 633 265 651 q 175 562 188 614 q 163 390 163 510 l 528 390 l 528 411 q 513 570 528 521 q 464 635 499 619 q 356 651 429 651 m 513 1032 q 503 923 513 963 q 458 860 494 883 q 343 836 421 836 q 229 860 265 836 q 184 922 193 883 q 175 1032 175 961 l 233 1032 q 239 947 233 975 q 268 904 244 919 q 343 889 292 889 q 419 904 394 889 q 449 948 443 919 q 454 1032 454 976 l 513 1032 z "},"ě":{"ha":689,"x_min":85,"x_max":604,"o":"m 604 328 l 163 328 q 176 153 163 207 q 232 78 189 100 q 374 57 275 57 q 478 62 421 57 q 581 75 536 67 l 581 8 q 482 -6 544 0 q 360 -11 419 -11 q 179 20 236 -11 q 103 125 122 51 q 85 353 85 199 q 100 579 85 507 q 172 685 115 651 q 358 719 229 719 q 525 687 474 719 q 590 583 576 654 q 604 356 604 511 l 604 328 m 356 651 q 226 633 265 651 q 175 562 188 614 q 163 390 163 510 l 528 390 l 528 411 q 513 570 528 521 q 464 635 499 619 q 356 651 429 651 m 300 840 l 172 1024 l 172 1032 l 229 1032 l 344 890 l 461 1032 l 518 1032 l 518 1024 l 390 840 l 300 840 z "},"ê":{"ha":689,"x_min":85,"x_max":604,"o":"m 604 328 l 163 328 q 176 153 163 207 q 232 78 189 100 q 374 57 275 57 q 478 62 421 57 q 581 75 536 67 l 581 8 q 482 -6 544 0 q 360 -11 419 -11 q 179 20 236 -11 q 103 125 122 51 q 85 353 85 199 q 100 579 85 507 q 172 685 115 651 q 358 719 229 719 q 525 687 474 719 q 590 583 576 654 q 604 356 604 511 l 604 328 m 356 651 q 226 633 265 651 q 175 562 188 614 q 163 390 163 510 l 528 390 l 528 411 q 513 570 528 521 q 464 635 499 619 q 356 651 429 651 m 174 840 l 174 847 l 301 1032 l 392 1032 l 519 847 l 519 840 l 463 840 l 346 981 l 231 840 l 174 840 z "},"ế":{"ha":689,"x_min":85,"x_max":622,"o":"m 604 328 l 163 328 q 176 153 163 207 q 232 78 189 100 q 374 57 275 57 q 478 62 421 57 q 581 75 536 67 l 581 8 q 482 -6 544 0 q 360 -11 419 -11 q 179 20 236 -11 q 103 125 122 51 q 85 353 85 199 q 100 579 85 507 q 172 685 115 651 q 358 719 229 719 q 525 687 474 719 q 590 583 576 654 q 604 356 604 511 l 604 328 m 356 651 q 226 633 265 651 q 175 562 188 614 q 163 390 163 510 l 528 390 l 528 411 q 513 570 528 521 q 464 635 499 619 q 356 651 429 651 m 168 840 l 168 847 l 296 1032 l 386 1032 l 514 847 l 514 840 l 457 840 l 340 981 l 225 840 l 168 840 m 422 1042 l 422 1049 l 535 1236 l 622 1236 l 622 1229 l 481 1042 l 422 1042 z "},"ệ":{"ha":689,"x_min":85,"x_max":604,"o":"m 604 328 l 163 328 q 176 153 163 207 q 232 78 189 100 q 374 57 275 57 q 478 62 421 57 q 581 75 536 67 l 581 8 q 482 -6 544 0 q 360 -11 419 -11 q 179 20 236 -11 q 103 125 122 51 q 85 353 85 199 q 100 579 85 507 q 172 685 115 651 q 358 719 229 719 q 525 687 474 719 q 590 583 576 654 q 604 356 604 511 l 604 328 m 356 651 q 226 633 265 651 q 175 562 188 614 q 163 390 163 510 l 528 390 l 528 411 q 513 570 528 521 q 464 635 499 619 q 356 651 429 651 m 297 -197 l 297 -86 l 392 -86 l 392 -197 l 297 -197 m 171 840 l 171 847 l 299 1032 l 389 1032 l 517 847 l 517 840 l 460 840 l 343 981 l 228 840 l 171 840 z "},"ề":{"ha":689,"x_min":85,"x_max":604,"o":"m 604 328 l 163 328 q 176 153 163 207 q 232 78 189 100 q 374 57 275 57 q 478 62 421 57 q 581 75 536 67 l 581 8 q 482 -6 544 0 q 360 -11 419 -11 q 179 20 236 -11 q 103 125 122 51 q 85 353 85 199 q 100 579 85 507 q 172 685 115 651 q 358 719 229 719 q 525 687 474 719 q 590 583 576 654 q 604 356 604 511 l 604 328 m 356 651 q 226 633 265 651 q 175 562 188 614 q 163 390 163 510 l 528 390 l 528 411 q 513 570 528 521 q 464 635 499 619 q 356 651 429 651 m 167 840 l 167 847 l 294 1032 l 385 1032 l 513 847 l 513 840 l 456 840 l 339 981 l 224 840 l 167 840 m 460 1042 l 318 1229 l 318 1236 l 407 1236 l 518 1049 l 518 1042 l 460 1042 z "},"ể":{"ha":689,"x_min":85,"x_max":613,"o":"m 604 328 l 163 328 q 176 153 163 207 q 232 78 189 100 q 374 57 275 57 q 478 62 421 57 q 581 75 536 67 l 581 8 q 482 -6 544 0 q 360 -11 419 -11 q 179 20 236 -11 q 103 125 122 51 q 85 353 85 199 q 100 579 85 507 q 172 685 115 651 q 358 719 229 719 q 525 687 474 719 q 590 583 576 654 q 604 356 604 511 l 604 328 m 356 651 q 226 633 265 651 q 175 562 188 614 q 163 390 163 510 l 528 390 l 528 411 q 513 570 528 521 q 464 635 499 619 q 356 651 429 651 m 171 840 l 171 847 l 299 1032 l 389 1032 l 517 847 l 517 840 l 460 840 l 343 981 l 228 840 l 171 840 m 399 1054 q 410 1099 399 1086 q 456 1124 422 1113 l 483 1132 q 539 1153 526 1143 q 551 1190 551 1164 q 542 1225 551 1214 q 510 1239 532 1236 q 442 1242 489 1242 q 310 1235 389 1242 l 310 1286 q 451 1296 385 1296 q 577 1276 542 1296 q 613 1197 613 1256 q 599 1135 613 1156 q 540 1099 586 1114 l 510 1089 q 470 1075 481 1081 q 457 1063 460 1069 q 454 1039 454 1056 l 399 1039 l 399 1054 z "},"ễ":{"ha":689,"x_min":85,"x_max":604,"o":"m 604 328 l 163 328 q 176 153 163 207 q 232 78 189 100 q 374 57 275 57 q 478 62 421 57 q 581 75 536 67 l 581 8 q 482 -6 544 0 q 360 -11 419 -11 q 179 20 236 -11 q 103 125 122 51 q 85 353 85 199 q 100 579 85 507 q 172 685 115 651 q 358 719 229 719 q 525 687 474 719 q 590 583 576 654 q 604 356 604 511 l 604 328 m 356 651 q 226 633 265 651 q 175 562 188 614 q 163 390 163 510 l 528 390 l 528 411 q 513 570 528 521 q 464 635 499 619 q 356 651 429 651 m 168 840 l 168 847 l 296 1032 l 386 1032 l 514 847 l 514 840 l 457 840 l 340 981 l 225 840 l 168 840 m 561 1272 q 544 1160 561 1190 q 474 1129 528 1129 q 409 1138 442 1129 q 331 1164 376 1147 q 266 1185 292 1178 q 217 1193 240 1193 q 184 1176 192 1193 q 176 1114 176 1160 l 125 1114 q 142 1226 125 1196 q 213 1257 158 1257 q 276 1248 244 1257 q 357 1221 307 1239 q 421 1200 396 1207 q 469 1193 446 1193 q 503 1209 496 1193 q 510 1272 510 1225 l 561 1272 z "},"ȅ":{"ha":689,"x_min":81,"x_max":604,"o":"m 604 328 l 163 328 q 176 153 163 207 q 232 78 189 100 q 374 57 275 57 q 478 62 421 57 q 581 75 536 67 l 581 8 q 482 -6 544 0 q 360 -11 419 -11 q 179 20 236 -11 q 103 125 122 51 q 85 353 85 199 q 100 579 85 507 q 172 685 115 651 q 358 719 229 719 q 525 687 474 719 q 590 583 576 654 q 604 356 604 511 l 604 328 m 356 651 q 226 633 265 651 q 175 562 188 614 q 163 390 163 510 l 528 390 l 528 411 q 513 570 528 521 q 464 635 499 619 q 356 651 429 651 m 269 843 l 217 843 l 81 1018 l 81 1025 l 161 1025 l 269 850 l 269 843 m 497 843 l 443 843 l 307 1018 l 307 1025 l 389 1025 l 497 850 l 497 843 z "},"ë":{"ha":689,"x_min":85,"x_max":604,"o":"m 604 328 l 163 328 q 176 153 163 207 q 232 78 189 100 q 374 57 275 57 q 478 62 421 57 q 581 75 536 67 l 581 8 q 482 -6 544 0 q 360 -11 419 -11 q 179 20 236 -11 q 103 125 122 51 q 85 353 85 199 q 100 579 85 507 q 172 685 115 651 q 358 719 229 719 q 525 687 474 719 q 590 583 576 654 q 604 356 604 511 l 604 328 m 356 651 q 226 633 265 651 q 175 562 188 614 q 163 390 163 510 l 528 390 l 528 411 q 513 570 528 521 q 464 635 499 619 q 356 651 429 651 m 183 915 l 183 1013 l 264 1013 l 264 915 l 183 915 m 432 915 l 432 1013 l 513 1013 l 513 915 l 432 915 z "},"ė":{"ha":689,"x_min":85,"x_max":604,"o":"m 604 328 l 163 328 q 176 153 163 207 q 232 78 189 100 q 374 57 275 57 q 478 62 421 57 q 581 75 536 67 l 581 8 q 482 -6 544 0 q 360 -11 419 -11 q 179 20 236 -11 q 103 125 122 51 q 85 353 85 199 q 100 579 85 507 q 172 685 115 651 q 358 719 229 719 q 525 687 474 719 q 590 583 576 654 q 604 356 604 511 l 604 328 m 356 651 q 226 633 265 651 q 175 562 188 614 q 163 390 163 510 l 528 390 l 528 411 q 513 570 528 521 q 464 635 499 619 q 356 651 429 651 m 304 917 l 304 1014 l 385 1014 l 385 917 l 304 917 z "},"ẹ":{"ha":689,"x_min":85,"x_max":604,"o":"m 604 328 l 163 328 q 176 153 163 207 q 232 78 189 100 q 374 57 275 57 q 478 62 421 57 q 581 75 536 67 l 581 8 q 482 -6 544 0 q 360 -11 419 -11 q 179 20 236 -11 q 103 125 122 51 q 85 353 85 199 q 100 579 85 507 q 172 685 115 651 q 358 719 229 719 q 525 687 474 719 q 590 583 576 654 q 604 356 604 511 l 604 328 m 356 651 q 226 633 265 651 q 175 562 188 614 q 163 390 163 510 l 528 390 l 528 411 q 513 570 528 521 q 464 635 499 619 q 356 651 429 651 m 297 -197 l 297 -86 l 392 -86 l 392 -197 l 297 -197 z "},"è":{"ha":689,"x_min":85,"x_max":604,"o":"m 604 328 l 163 328 q 176 153 163 207 q 232 78 189 100 q 374 57 275 57 q 478 62 421 57 q 581 75 536 67 l 581 8 q 482 -6 544 0 q 360 -11 419 -11 q 179 20 236 -11 q 103 125 122 51 q 85 353 85 199 q 100 579 85 507 q 172 685 115 651 q 358 719 229 719 q 525 687 474 719 q 590 583 576 654 q 604 356 604 511 l 604 328 m 356 651 q 226 633 265 651 q 175 562 188 614 q 163 390 163 510 l 528 390 l 528 411 q 513 570 528 521 q 464 635 499 619 q 356 651 429 651 m 338 838 l 196 1025 l 196 1032 l 285 1032 l 396 844 l 396 838 l 338 838 z "},"ẻ":{"ha":689,"x_min":85,"x_max":604,"o":"m 604 328 l 163 328 q 176 153 163 207 q 232 78 189 100 q 374 57 275 57 q 478 62 421 57 q 581 75 536 67 l 581 8 q 482 -6 544 0 q 360 -11 419 -11 q 179 20 236 -11 q 103 125 122 51 q 85 353 85 199 q 100 579 85 507 q 172 685 115 651 q 358 719 229 719 q 525 687 474 719 q 590 583 576 654 q 604 356 604 511 l 604 328 m 356 651 q 226 633 265 651 q 175 562 188 614 q 163 390 163 510 l 528 390 l 528 411 q 513 570 528 521 q 464 635 499 619 q 356 651 429 651 m 281 860 q 292 905 281 892 q 338 929 304 918 l 365 938 q 421 959 408 949 q 433 996 433 969 q 424 1031 433 1019 q 392 1044 414 1042 q 324 1047 371 1047 q 192 1040 271 1047 l 192 1092 q 333 1101 267 1101 q 459 1081 424 1101 q 494 1003 494 1061 q 481 940 494 961 q 422 904 468 919 l 392 894 q 352 881 363 886 q 339 868 342 875 q 336 844 336 861 l 281 844 l 281 860 z "},"ȇ":{"ha":689,"x_min":85,"x_max":604,"o":"m 604 328 l 163 328 q 176 153 163 207 q 232 78 189 100 q 374 57 275 57 q 478 62 421 57 q 581 75 536 67 l 581 8 q 482 -6 544 0 q 360 -11 419 -11 q 179 20 236 -11 q 103 125 122 51 q 85 353 85 199 q 100 579 85 507 q 172 685 115 651 q 358 719 229 719 q 525 687 474 719 q 590 583 576 654 q 604 356 604 511 l 604 328 m 356 651 q 226 633 265 651 q 175 562 188 614 q 163 390 163 510 l 528 390 l 528 411 q 513 570 528 521 q 464 635 499 619 q 356 651 429 651 m 175 844 q 184 953 175 914 q 230 1017 193 993 q 344 1040 267 1040 q 458 1017 422 1040 q 503 954 494 993 q 513 844 513 915 l 454 844 q 449 929 454 901 q 419 972 443 957 q 344 988 396 988 q 269 972 293 988 q 239 928 244 957 q 233 844 233 900 l 175 844 z "},"ē":{"ha":689,"x_min":85,"x_max":604,"o":"m 604 328 l 163 328 q 176 153 163 207 q 232 78 189 100 q 374 57 275 57 q 478 62 421 57 q 581 75 536 67 l 581 8 q 482 -6 544 0 q 360 -11 419 -11 q 179 20 236 -11 q 103 125 122 51 q 85 353 85 199 q 100 579 85 507 q 172 685 115 651 q 358 719 229 719 q 525 687 474 719 q 590 583 576 654 q 604 356 604 511 l 604 328 m 356 651 q 226 633 265 651 q 175 562 188 614 q 163 390 163 510 l 528 390 l 528 411 q 513 570 528 521 q 464 635 499 619 q 356 651 429 651 m 196 957 l 196 1031 l 490 1031 l 490 957 l 196 957 z "},"ę":{"ha":689,"x_min":85,"x_max":604,"o":"m 604 328 l 163 328 q 176 153 163 207 q 232 78 189 100 q 374 57 275 57 q 478 62 421 57 q 581 75 536 67 l 581 8 q 513 -67 544 -18 q 481 -156 481 -115 q 496 -197 481 -181 q 544 -214 511 -214 q 568 -212 558 -214 l 568 -269 q 528 -272 543 -272 q 440 -244 468 -272 q 411 -172 411 -217 q 434 -87 411 -131 q 497 -4 457 -43 q 360 -11 425 -11 q 179 20 236 -11 q 103 125 122 51 q 85 353 85 199 q 100 579 85 507 q 172 685 115 651 q 358 719 229 719 q 525 687 474 719 q 590 583 576 654 q 604 356 604 511 l 604 328 m 356 651 q 226 633 265 651 q 175 562 188 614 q 163 390 163 510 l 528 390 l 528 411 q 513 570 528 521 q 464 635 499 619 q 356 651 429 651 z "},"ẽ":{"ha":689,"x_min":85,"x_max":604,"o":"m 604 328 l 163 328 q 176 153 163 207 q 232 78 189 100 q 374 57 275 57 q 478 62 421 57 q 581 75 536 67 l 581 8 q 482 -6 544 0 q 360 -11 419 -11 q 179 20 236 -11 q 103 125 122 51 q 85 353 85 199 q 100 579 85 507 q 172 685 115 651 q 358 719 229 719 q 525 687 474 719 q 590 583 576 654 q 604 356 604 511 l 604 328 m 356 651 q 226 633 265 651 q 175 562 188 614 q 163 390 163 510 l 528 390 l 528 411 q 513 570 528 521 q 464 635 499 619 q 356 651 429 651 m 561 1032 q 544 919 561 950 q 474 889 528 889 q 409 898 442 889 q 331 924 376 907 q 266 945 292 938 q 217 953 240 953 q 184 936 192 953 q 176 874 176 919 l 125 874 q 142 986 125 956 q 213 1017 158 1017 q 276 1008 244 1017 q 357 981 307 999 q 421 960 396 967 q 469 953 446 953 q 503 969 496 953 q 510 1032 510 985 l 561 1032 z "},"ə":{"ha":689,"x_min":85,"x_max":604,"o":"m 329 719 q 510 688 453 719 q 585 583 567 657 q 604 356 604 510 q 589 129 604 201 q 517 23 574 57 q 331 -11 460 -11 q 164 22 215 -11 q 99 126 113 54 q 85 353 85 197 l 85 381 l 526 381 q 513 555 526 501 q 457 630 500 608 q 315 651 414 651 q 210 647 268 651 q 108 633 153 642 l 108 700 q 207 714 144 708 q 329 719 269 719 m 333 57 q 463 76 424 57 q 514 147 501 94 q 526 318 526 199 l 161 318 l 161 297 q 176 138 161 188 q 225 73 190 89 q 333 57 260 57 z "},"f":{"ha":438,"x_min":35,"x_max":399,"o":"m 161 640 l 35 640 l 35 708 l 161 708 l 161 844 q 185 968 161 928 q 257 1020 208 1008 q 399 1032 306 1032 l 399 969 q 299 960 332 969 q 252 928 265 951 q 239 858 239 906 l 239 708 l 399 708 l 399 640 l 239 640 l 239 0 l 161 0 l 161 640 z "},"g":{"ha":728,"x_min":85,"x_max":615,"o":"m 333 -282 q 111 -271 200 -282 l 111 -204 q 319 -212 211 -212 q 463 -189 418 -212 q 523 -107 508 -165 q 538 75 538 -49 l 538 96 l 531 96 q 459 15 510 39 q 324 -8 408 -8 q 172 22 222 -8 q 103 127 122 51 q 85 354 85 203 q 104 582 85 506 q 174 689 124 658 q 324 719 224 719 q 459 696 404 719 q 536 603 514 672 l 543 603 l 547 708 l 615 708 l 615 100 q 596 -131 615 -53 q 517 -246 576 -210 q 333 -282 457 -282 m 350 61 q 463 84 422 61 q 519 158 504 107 q 534 240 531 194 q 538 354 538 285 q 535 467 538 425 q 522 542 532 510 q 465 624 506 600 q 350 649 424 649 q 226 629 264 649 q 176 550 189 610 q 163 354 163 490 q 176 160 163 218 q 226 81 189 101 q 350 61 264 61 z "},"ǵ":{"ha":728,"x_min":85,"x_max":615,"o":"m 333 -282 q 111 -271 200 -282 l 111 -204 q 319 -212 211 -212 q 463 -189 418 -212 q 523 -107 508 -165 q 538 75 538 -49 l 538 96 l 531 96 q 459 15 510 39 q 324 -8 408 -8 q 172 22 222 -8 q 103 127 122 51 q 85 354 85 203 q 104 582 85 506 q 174 689 124 658 q 324 719 224 719 q 459 696 404 719 q 536 603 514 672 l 543 603 l 547 708 l 615 708 l 615 100 q 596 -131 615 -53 q 517 -246 576 -210 q 333 -282 457 -282 m 350 61 q 463 84 422 61 q 519 158 504 107 q 534 240 531 194 q 538 354 538 285 q 535 467 538 425 q 522 542 532 510 q 465 624 506 600 q 350 649 424 649 q 226 629 264 649 q 176 550 189 610 q 163 354 163 490 q 176 160 163 218 q 226 81 189 101 q 350 61 264 61 m 328 838 l 328 844 l 440 1032 l 528 1032 l 528 1025 l 386 838 l 328 838 z "},"ğ":{"ha":728,"x_min":85,"x_max":615,"o":"m 333 -282 q 111 -271 200 -282 l 111 -204 q 319 -212 211 -212 q 463 -189 418 -212 q 523 -107 508 -165 q 538 75 538 -49 l 538 96 l 531 96 q 459 15 510 39 q 324 -8 408 -8 q 172 22 222 -8 q 103 127 122 51 q 85 354 85 203 q 104 582 85 506 q 174 689 124 658 q 324 719 224 719 q 459 696 404 719 q 536 603 514 672 l 543 603 l 547 708 l 615 708 l 615 100 q 596 -131 615 -53 q 517 -246 576 -210 q 333 -282 457 -282 m 350 61 q 463 84 422 61 q 519 158 504 107 q 534 240 531 194 q 538 354 538 285 q 535 467 538 425 q 522 542 532 510 q 465 624 506 600 q 350 649 424 649 q 226 629 264 649 q 176 550 189 610 q 163 354 163 490 q 176 160 163 218 q 226 81 189 101 q 350 61 264 61 m 532 1032 q 523 923 532 963 q 477 860 514 883 q 363 836 440 836 q 249 860 285 836 q 203 922 213 883 q 194 1032 194 961 l 253 1032 q 258 947 253 975 q 288 904 264 919 q 363 889 311 889 q 438 904 414 889 q 468 948 463 919 q 474 1032 474 976 l 532 1032 z "},"ǧ":{"ha":728,"x_min":85,"x_max":615,"o":"m 333 -282 q 111 -271 200 -282 l 111 -204 q 319 -212 211 -212 q 463 -189 418 -212 q 523 -107 508 -165 q 538 75 538 -49 l 538 96 l 531 96 q 459 15 510 39 q 324 -8 408 -8 q 172 22 222 -8 q 103 127 122 51 q 85 354 85 203 q 104 582 85 506 q 174 689 124 658 q 324 719 224 719 q 459 696 404 719 q 536 603 514 672 l 543 603 l 547 708 l 615 708 l 615 100 q 596 -131 615 -53 q 517 -246 576 -210 q 333 -282 457 -282 m 350 61 q 463 84 422 61 q 519 158 504 107 q 534 240 531 194 q 538 354 538 285 q 535 467 538 425 q 522 542 532 510 q 465 624 506 600 q 350 649 424 649 q 226 629 264 649 q 176 550 189 610 q 163 354 163 490 q 176 160 163 218 q 226 81 189 101 q 350 61 264 61 m 319 840 l 192 1024 l 192 1032 l 249 1032 l 364 890 l 481 1032 l 538 1032 l 538 1024 l 410 840 l 319 840 z "},"ĝ":{"ha":728,"x_min":85,"x_max":615,"o":"m 333 -282 q 111 -271 200 -282 l 111 -204 q 319 -212 211 -212 q 463 -189 418 -212 q 523 -107 508 -165 q 538 75 538 -49 l 538 96 l 531 96 q 459 15 510 39 q 324 -8 408 -8 q 172 22 222 -8 q 103 127 122 51 q 85 354 85 203 q 104 582 85 506 q 174 689 124 658 q 324 719 224 719 q 459 696 404 719 q 536 603 514 672 l 543 603 l 547 708 l 615 708 l 615 100 q 596 -131 615 -53 q 517 -246 576 -210 q 333 -282 457 -282 m 350 61 q 463 84 422 61 q 519 158 504 107 q 534 240 531 194 q 538 354 538 285 q 535 467 538 425 q 522 542 532 510 q 465 624 506 600 q 350 649 424 649 q 226 629 264 649 q 176 550 189 610 q 163 354 163 490 q 176 160 163 218 q 226 81 189 101 q 350 61 264 61 m 190 840 l 190 847 l 318 1032 l 408 1032 l 536 847 l 536 840 l 479 840 l 363 981 l 247 840 l 190 840 z "},"ģ":{"ha":728,"x_min":85,"x_max":615,"o":"m 333 -282 q 111 -271 200 -282 l 111 -204 q 319 -212 211 -212 q 463 -189 418 -212 q 523 -107 508 -165 q 538 75 538 -49 l 538 96 l 531 96 q 459 15 510 39 q 324 -8 408 -8 q 172 22 222 -8 q 103 127 122 51 q 85 354 85 203 q 104 582 85 506 q 174 689 124 658 q 324 719 224 719 q 459 696 404 719 q 536 603 514 672 l 543 603 l 547 708 l 615 708 l 615 100 q 596 -131 615 -53 q 517 -246 576 -210 q 333 -282 457 -282 m 350 61 q 463 84 422 61 q 519 158 504 107 q 534 240 531 194 q 538 354 538 285 q 535 467 538 425 q 522 542 532 510 q 465 624 506 600 q 350 649 424 649 q 226 629 264 649 q 176 550 189 610 q 163 354 163 490 q 176 160 163 218 q 226 81 189 101 q 350 61 264 61 m 443 1054 q 385 1038 397 1054 q 372 972 372 1022 l 372 949 l 411 949 l 411 840 l 318 840 l 318 947 q 328 1038 318 1008 q 363 1081 338 1068 q 443 1093 389 1093 l 443 1054 z "},"ġ":{"ha":728,"x_min":85,"x_max":615,"o":"m 333 -282 q 111 -271 200 -282 l 111 -204 q 319 -212 211 -212 q 463 -189 418 -212 q 523 -107 508 -165 q 538 75 538 -49 l 538 96 l 531 96 q 459 15 510 39 q 324 -8 408 -8 q 172 22 222 -8 q 103 127 122 51 q 85 354 85 203 q 104 582 85 506 q 174 689 124 658 q 324 719 224 719 q 459 696 404 719 q 536 603 514 672 l 543 603 l 547 708 l 615 708 l 615 100 q 596 -131 615 -53 q 517 -246 576 -210 q 333 -282 457 -282 m 350 61 q 463 84 422 61 q 519 158 504 107 q 534 240 531 194 q 538 354 538 285 q 535 467 538 425 q 522 542 532 510 q 465 624 506 600 q 350 649 424 649 q 226 629 264 649 q 176 550 189 610 q 163 354 163 490 q 176 160 163 218 q 226 81 189 101 q 350 61 264 61 m 324 917 l 324 1014 l 404 1014 l 404 917 l 324 917 z "},"h":{"ha":735,"x_min":113,"x_max":625,"o":"m 547 422 q 535 572 547 526 q 488 633 522 618 q 376 649 454 649 q 249 615 289 649 q 200 526 210 581 q 190 367 190 471 l 190 0 l 113 0 l 113 1032 l 190 1032 l 190 614 l 196 614 q 261 690 214 661 q 404 719 308 719 q 546 692 499 719 q 609 608 593 665 q 625 447 625 551 l 625 0 l 547 0 l 547 422 z "},"ħ":{"ha":735,"x_min":26,"x_max":625,"o":"m 404 719 q 546 692 499 719 q 609 608 593 665 q 625 447 625 551 l 625 0 l 547 0 l 547 422 q 535 572 547 526 q 488 633 522 618 q 376 649 454 649 q 249 615 289 649 q 200 526 210 581 q 190 367 190 471 l 190 0 l 113 0 l 113 888 l 26 888 l 26 956 l 113 956 l 113 1032 l 190 1032 l 190 956 l 372 956 l 372 888 l 190 888 l 190 614 l 196 614 q 261 690 214 661 q 404 719 308 719 z "},"ĥ":{"ha":735,"x_min":-22,"x_max":625,"o":"m 547 422 q 535 572 547 526 q 488 633 522 618 q 376 649 454 649 q 249 615 289 649 q 200 526 210 581 q 190 367 190 471 l 190 0 l 113 0 l 113 1032 l 190 1032 l 190 614 l 196 614 q 261 690 214 661 q 404 719 308 719 q 546 692 499 719 q 609 608 593 665 q 625 447 625 551 l 625 0 l 547 0 l 547 422 m -22 1088 l -22 1094 l 106 1279 l 196 1279 l 324 1094 l 324 1088 l 267 1088 l 150 1228 l 35 1088 l -22 1088 z "},"ḥ":{"ha":735,"x_min":113,"x_max":625,"o":"m 547 422 q 535 572 547 526 q 488 633 522 618 q 376 649 454 649 q 249 615 289 649 q 200 526 210 581 q 190 367 190 471 l 190 0 l 113 0 l 113 1032 l 190 1032 l 190 614 l 196 614 q 261 690 214 661 q 404 719 308 719 q 546 692 499 719 q 609 608 593 665 q 625 447 625 551 l 625 0 l 547 0 l 547 422 m 321 -197 l 321 -86 l 415 -86 l 415 -197 l 321 -197 z "},"i":{"ha":303,"x_min":108,"x_max":194,"o":"m 108 928 l 108 1032 l 194 1032 l 194 928 l 108 928 m 113 0 l 113 708 l 190 708 l 190 0 l 113 0 z "},"ı":{"ha":303,"x_min":113,"x_max":190,"o":"m 113 0 l 113 708 l 190 708 l 190 0 l 113 0 z "},"í":{"ha":303,"x_min":110,"x_max":310,"o":"m 113 0 l 113 708 l 190 708 l 190 0 l 113 0 m 110 838 l 110 844 l 222 1032 l 310 1032 l 310 1025 l 168 838 l 110 838 z "},"ĭ":{"ha":303,"x_min":-18,"x_max":319,"o":"m 113 0 l 113 708 l 190 708 l 190 0 l 113 0 m 319 1032 q 310 923 319 963 q 265 860 301 883 q 150 836 228 836 q 36 860 72 836 q -9 922 0 883 q -18 1032 -18 961 l 40 1032 q 46 947 40 975 q 75 904 51 919 q 150 889 99 889 q 226 904 201 889 q 256 948 250 919 q 261 1032 261 976 l 319 1032 z "},"ǐ":{"ha":303,"x_min":-21,"x_max":325,"o":"m 113 0 l 113 708 l 190 708 l 190 0 l 113 0 m 107 840 l -21 1024 l -21 1032 l 36 1032 l 151 890 l 268 1032 l 325 1032 l 325 1024 l 197 840 l 107 840 z "},"î":{"ha":303,"x_min":-21,"x_max":325,"o":"m 113 0 l 113 708 l 190 708 l 190 0 l 113 0 m -21 840 l -21 847 l 107 1032 l 197 1032 l 325 847 l 325 840 l 268 840 l 151 981 l 36 840 l -21 840 z "},"ȉ":{"ha":303,"x_min":-112,"x_max":304,"o":"m 113 0 l 113 708 l 190 708 l 190 0 l 113 0 m 76 843 l 24 843 l -112 1018 l -112 1025 l -32 1025 l 76 850 l 76 843 m 304 843 l 250 843 l 114 1018 l 114 1025 l 196 1025 l 304 850 l 304 843 z "},"ï":{"ha":303,"x_min":-14,"x_max":315,"o":"m 113 0 l 113 708 l 190 708 l 190 0 l 113 0 m -14 915 l -14 1013 l 67 1013 l 67 915 l -14 915 m 235 915 l 235 1013 l 315 1013 l 315 915 l 235 915 z "},"ị":{"ha":303,"x_min":83,"x_max":194,"o":"m 108 928 l 108 1032 l 194 1032 l 194 928 l 108 928 m 113 0 l 113 708 l 190 708 l 190 0 l 113 0 m 83 -197 l 83 -86 l 178 -86 l 178 -197 l 83 -197 z "},"ì":{"ha":303,"x_min":-8,"x_max":192,"o":"m 113 0 l 113 708 l 190 708 l 190 0 l 113 0 m 133 838 l -8 1025 l -8 1032 l 81 1032 l 192 844 l 192 838 l 133 838 z "},"ỉ":{"ha":303,"x_min":-1,"x_max":301,"o":"m 113 0 l 113 708 l 190 708 l 190 0 l 113 0 m 88 860 q 99 905 88 892 q 144 929 111 918 l 172 938 q 228 959 215 949 q 240 996 240 969 q 231 1031 240 1019 q 199 1044 221 1042 q 131 1047 178 1047 q -1 1040 78 1047 l -1 1092 q 140 1101 74 1101 q 266 1081 231 1101 q 301 1003 301 1061 q 288 940 301 961 q 229 904 275 919 l 199 894 q 159 881 169 886 q 146 868 149 875 q 143 844 143 861 l 88 844 l 88 860 z "},"ȋ":{"ha":303,"x_min":-18,"x_max":319,"o":"m 113 0 l 113 708 l 190 708 l 190 0 l 113 0 m -18 844 q -9 953 -18 914 q 37 1017 0 993 q 151 1040 74 1040 q 265 1017 229 1040 q 310 954 301 993 q 319 844 319 915 l 261 844 q 256 929 261 901 q 226 972 250 957 q 151 988 203 988 q 76 972 100 988 q 46 928 51 957 q 40 844 40 900 l -18 844 z "},"ĳ":{"ha":606,"x_min":108,"x_max":497,"o":"m 108 928 l 108 1032 l 194 1032 l 194 928 l 108 928 m 113 0 l 113 708 l 190 708 l 190 0 l 113 0 m 411 928 l 411 1032 l 497 1032 l 497 928 l 411 928 m 296 -210 q 375 -203 350 -210 q 408 -181 400 -196 q 415 -132 415 -165 l 415 708 l 493 708 l 493 -110 q 474 -219 493 -185 q 415 -264 454 -254 q 296 -274 376 -274 l 296 -210 z "},"ī":{"ha":303,"x_min":3,"x_max":297,"o":"m 113 0 l 113 708 l 190 708 l 190 0 l 113 0 m 3 957 l 3 1031 l 297 1031 l 297 957 l 3 957 z "},"į":{"ha":303,"x_min":35,"x_max":192,"o":"m 111 1014 l 192 1014 l 192 917 l 111 917 l 111 1014 m 104 -154 q 168 -214 104 -214 q 192 -212 181 -214 l 192 -269 q 150 -272 174 -272 q 62 -244 89 -272 q 35 -169 35 -217 q 58 -83 35 -128 q 119 0 82 -37 l 113 0 l 113 708 l 190 708 l 190 0 q 132 -72 160 -26 q 104 -154 104 -117 z "},"ĩ":{"ha":303,"x_min":-68,"x_max":368,"o":"m 113 0 l 113 708 l 190 708 l 190 0 l 113 0 m 368 1032 q 351 919 368 950 q 281 889 335 889 q 216 898 249 889 q 138 924 183 907 q 73 945 99 938 q 24 953 47 953 q -9 936 -1 953 q -17 874 -17 919 l -68 874 q -51 986 -68 956 q 19 1017 -35 1017 q 83 1008 51 1017 q 164 981 114 999 q 228 960 203 967 q 276 953 253 953 q 310 969 303 953 q 317 1032 317 985 l 368 1032 z "},"j":{"ha":303,"x_min":-7,"x_max":194,"o":"m 108 928 l 108 1032 l 194 1032 l 194 928 l 108 928 m -7 -210 q 72 -203 47 -210 q 105 -181 97 -196 q 113 -132 113 -165 l 113 708 l 190 708 l 190 -110 q 171 -219 190 -185 q 113 -264 151 -254 q -7 -274 74 -274 l -7 -210 z "},"ȷ":{"ha":303,"x_min":-7,"x_max":190,"o":"m -7 -210 q 72 -203 47 -210 q 105 -181 97 -196 q 113 -132 113 -165 l 113 708 l 190 708 l 190 -110 q 171 -219 190 -185 q 113 -264 151 -254 q -7 -274 74 -274 l -7 -210 z "},"ĵ":{"ha":303,"x_min":-22,"x_max":324,"o":"m -7 -210 q 72 -203 47 -210 q 105 -181 97 -196 q 113 -132 113 -165 l 113 708 l 190 708 l 190 -110 q 171 -219 190 -185 q 113 -264 151 -254 q -7 -274 74 -274 l -7 -210 m -22 840 l -22 847 l 106 1032 l 196 1032 l 324 847 l 324 840 l 267 840 l 150 981 l 35 840 l -22 840 z "},"k":{"ha":647,"x_min":113,"x_max":607,"o":"m 515 0 l 283 324 l 190 324 l 190 0 l 113 0 l 113 1032 l 190 1032 l 190 394 l 283 394 l 514 708 l 603 708 l 347 365 l 607 0 l 515 0 z "},"ķ":{"ha":647,"x_min":113,"x_max":607,"o":"m 515 0 l 283 324 l 190 324 l 190 0 l 113 0 l 113 1032 l 190 1032 l 190 394 l 283 394 l 514 708 l 603 708 l 347 365 l 607 0 l 515 0 m 261 -300 q 319 -284 307 -300 q 332 -218 332 -268 l 332 -194 l 293 -194 l 293 -86 l 386 -86 l 386 -193 q 376 -285 386 -254 q 341 -328 367 -315 q 261 -340 315 -340 l 261 -300 z "},"ĸ":{"ha":647,"x_min":113,"x_max":607,"o":"m 515 0 l 283 324 l 190 324 l 190 0 l 113 0 l 113 708 l 190 708 l 190 394 l 283 394 l 514 708 l 603 708 l 347 365 l 607 0 l 515 0 z "},"l":{"ha":303,"x_min":113,"x_max":190,"o":"m 113 0 l 113 1032 l 190 1032 l 190 0 l 113 0 z "},"ĺ":{"ha":303,"x_min":113,"x_max":315,"o":"m 113 0 l 113 1032 l 190 1032 l 190 0 l 113 0 m 115 1085 l 115 1092 l 228 1279 l 315 1279 l 315 1272 l 174 1085 l 115 1085 z "},"ľ":{"ha":313,"x_min":113,"x_max":349,"o":"m 113 0 l 113 1032 l 190 1032 l 190 0 l 113 0 m 250 624 l 269 842 l 269 956 l 349 956 l 349 842 l 304 624 l 250 624 z "},"ļ":{"ha":303,"x_min":89,"x_max":214,"o":"m 113 0 l 113 1032 l 190 1032 l 190 0 l 113 0 m 89 -300 q 147 -284 135 -300 q 160 -218 160 -268 l 160 -194 l 121 -194 l 121 -86 l 214 -86 l 214 -193 q 204 -285 214 -254 q 169 -328 194 -315 q 89 -340 143 -340 l 89 -300 z "},"ŀ":{"ha":340,"x_min":113,"x_max":368,"o":"m 113 0 l 113 1032 l 190 1032 l 190 0 l 113 0 m 274 360 l 274 471 l 368 471 l 368 360 l 274 360 z "},"ǉ":{"ha":606,"x_min":113,"x_max":497,"o":"m 113 0 l 113 1032 l 190 1032 l 190 0 l 113 0 m 411 928 l 411 1032 l 497 1032 l 497 928 l 411 928 m 296 -210 q 375 -203 350 -210 q 408 -181 400 -196 q 415 -132 415 -165 l 415 708 l 493 708 l 493 -110 q 474 -219 493 -185 q 415 -264 454 -254 q 296 -274 376 -274 l 296 -210 z "},"ł":{"ha":307,"x_min":35,"x_max":274,"o":"m 113 0 l 113 454 l 35 426 l 35 497 l 113 525 l 113 1032 l 190 1032 l 190 554 l 274 583 l 274 513 l 190 482 l 190 0 l 113 0 z "},"m":{"ha":1100,"x_min":113,"x_max":989,"o":"m 911 422 q 900 572 911 526 q 859 633 889 618 q 760 649 829 649 q 643 617 679 649 q 598 530 607 585 q 589 367 589 475 l 589 0 l 511 0 l 511 422 q 501 572 511 526 q 460 633 490 618 q 361 649 431 649 q 245 615 282 649 q 199 525 208 581 q 190 367 190 469 l 190 0 l 113 0 l 113 708 l 179 708 l 185 603 l 190 603 q 253 688 208 657 q 388 719 297 719 q 519 692 476 719 q 578 603 563 665 l 585 603 q 649 688 603 657 q 786 719 696 719 q 915 692 872 719 q 974 608 958 665 q 989 447 989 551 l 989 0 l 911 0 l 911 422 z "},"n":{"ha":735,"x_min":113,"x_max":625,"o":"m 547 422 q 535 572 547 526 q 488 633 522 618 q 376 649 454 649 q 249 615 289 649 q 200 526 210 581 q 190 367 190 471 l 190 0 l 113 0 l 113 708 l 179 708 l 185 603 l 190 603 q 258 689 210 658 q 404 719 306 719 q 546 692 499 719 q 609 608 593 665 q 625 446 625 551 l 625 0 l 547 0 l 547 422 z "},"ń":{"ha":735,"x_min":113,"x_max":625,"o":"m 547 422 q 535 572 547 526 q 488 633 522 618 q 376 649 454 649 q 249 615 289 649 q 200 526 210 581 q 190 367 190 471 l 190 0 l 113 0 l 113 708 l 179 708 l 185 603 l 190 603 q 258 689 210 658 q 404 719 306 719 q 546 692 499 719 q 609 608 593 665 q 625 446 625 551 l 625 0 l 547 0 l 547 422 m 332 838 l 332 844 l 444 1032 l 532 1032 l 532 1025 l 390 838 l 332 838 z "},"ŉ":{"ha":767,"x_min":8,"x_max":657,"o":"m 8 821 q 67 838 54 821 q 79 908 79 854 l 79 932 l 40 932 l 40 1032 l 133 1032 l 133 933 q 124 838 133 869 q 88 793 114 806 q 8 781 63 781 l 8 821 m 579 422 q 567 572 579 526 q 520 633 554 618 q 408 649 486 649 q 281 615 321 649 q 232 526 242 581 q 222 367 222 471 l 222 0 l 144 0 l 144 708 l 211 708 l 217 603 l 222 603 q 290 689 242 658 q 436 719 338 719 q 578 692 531 719 q 641 608 625 665 q 657 446 657 551 l 657 0 l 579 0 l 579 422 z "},"ň":{"ha":735,"x_min":113,"x_max":625,"o":"m 547 422 q 535 572 547 526 q 488 633 522 618 q 376 649 454 649 q 249 615 289 649 q 200 526 210 581 q 190 367 190 471 l 190 0 l 113 0 l 113 708 l 179 708 l 185 603 l 190 603 q 258 689 210 658 q 404 719 306 719 q 546 692 499 719 q 609 608 593 665 q 625 446 625 551 l 625 0 l 547 0 l 547 422 m 324 840 l 196 1024 l 196 1032 l 253 1032 l 368 890 l 485 1032 l 542 1032 l 542 1024 l 414 840 l 324 840 z "},"ņ":{"ha":735,"x_min":113,"x_max":625,"o":"m 547 422 q 535 572 547 526 q 488 633 522 618 q 376 649 454 649 q 249 615 289 649 q 200 526 210 581 q 190 367 190 471 l 190 0 l 113 0 l 113 708 l 179 708 l 185 603 l 190 603 q 258 689 210 658 q 404 719 306 719 q 546 692 499 719 q 609 608 593 665 q 625 446 625 551 l 625 0 l 547 0 l 547 422 m 306 -300 q 364 -284 351 -300 q 376 -218 376 -268 l 376 -194 l 338 -194 l 338 -86 l 431 -86 l 431 -193 q 421 -285 431 -254 q 385 -328 411 -315 q 306 -340 360 -340 l 306 -300 z "},"ṅ":{"ha":735,"x_min":113,"x_max":625,"o":"m 547 422 q 535 572 547 526 q 488 633 522 618 q 376 649 454 649 q 249 615 289 649 q 200 526 210 581 q 190 367 190 471 l 190 0 l 113 0 l 113 708 l 179 708 l 185 603 l 190 603 q 258 689 210 658 q 404 719 306 719 q 546 692 499 719 q 609 608 593 665 q 625 446 625 551 l 625 0 l 547 0 l 547 422 m 328 917 l 328 1014 l 408 1014 l 408 917 l 328 917 z "},"ŋ":{"ha":735,"x_min":113,"x_max":625,"o":"m 404 719 q 546 692 499 719 q 609 608 593 665 q 625 446 625 551 l 625 -110 q 606 -219 625 -185 q 547 -264 586 -254 q 428 -274 508 -274 l 428 -210 q 507 -203 482 -210 q 540 -181 532 -196 q 547 -132 547 -165 l 547 422 q 535 572 547 526 q 488 633 522 618 q 376 649 454 649 q 249 615 289 649 q 200 526 210 581 q 190 367 190 471 l 190 0 l 113 0 l 113 708 l 179 708 l 185 603 l 190 603 q 258 689 210 658 q 404 719 306 719 z "},"ɲ":{"ha":735,"x_min":-7,"x_max":625,"o":"m -7 -210 q 72 -203 47 -210 q 105 -181 97 -196 q 113 -132 113 -165 l 113 708 l 179 708 l 185 603 l 190 603 q 258 689 210 658 q 404 719 306 719 q 546 692 499 719 q 609 608 593 665 q 625 446 625 551 l 625 0 l 547 0 l 547 422 q 535 572 547 526 q 488 633 522 618 q 376 649 454 649 q 249 615 289 649 q 200 526 210 582 q 190 368 190 471 l 190 -110 q 171 -219 190 -185 q 113 -264 151 -254 q -7 -274 74 -274 l -7 -210 z "},"ǌ":{"ha":1038,"x_min":113,"x_max":929,"o":"m 547 422 q 535 572 547 526 q 488 633 522 618 q 376 649 454 649 q 249 615 289 649 q 200 526 210 581 q 190 367 190 471 l 190 0 l 113 0 l 113 708 l 179 708 l 185 603 l 190 603 q 258 689 210 658 q 404 719 306 719 q 546 692 499 719 q 609 608 593 665 q 625 446 625 551 l 625 0 l 547 0 l 547 422 m 843 928 l 843 1032 l 929 1032 l 929 928 l 843 928 m 728 -210 q 807 -203 782 -210 q 840 -181 832 -196 q 847 -132 847 -165 l 847 708 l 925 708 l 925 -110 q 906 -219 925 -185 q 847 -264 886 -254 q 728 -274 808 -274 l 728 -210 z "},"ñ":{"ha":735,"x_min":113,"x_max":625,"o":"m 547 422 q 535 572 547 526 q 488 633 522 618 q 376 649 454 649 q 249 615 289 649 q 200 526 210 581 q 190 367 190 471 l 190 0 l 113 0 l 113 708 l 179 708 l 185 603 l 190 603 q 258 689 210 658 q 404 719 306 719 q 546 692 499 719 q 609 608 593 665 q 625 446 625 551 l 625 0 l 547 0 l 547 422 m 589 1032 q 572 919 589 950 q 501 889 556 889 q 437 898 469 889 q 358 924 404 907 q 294 945 319 938 q 244 953 268 953 q 212 936 219 953 q 204 874 204 919 l 153 874 q 169 986 153 956 q 240 1017 186 1017 q 303 1008 272 1017 q 385 981 335 999 q 449 960 424 967 q 497 953 474 953 q 531 969 524 953 q 538 1032 538 985 l 589 1032 z "},"o":{"ha":710,"x_min":85,"x_max":625,"o":"m 354 -11 q 171 17 226 -11 q 100 117 115 46 q 85 353 85 189 q 100 590 85 518 q 171 690 115 661 q 354 719 226 719 q 538 690 483 719 q 609 590 593 661 q 625 353 625 518 q 609 117 625 189 q 538 17 593 46 q 354 -11 483 -11 m 354 57 q 490 78 451 57 q 538 153 529 99 q 547 353 547 208 q 538 553 547 497 q 490 630 529 608 q 354 651 451 651 q 219 630 257 651 q 172 553 181 608 q 163 353 163 499 q 172 153 163 208 q 219 78 181 99 q 354 57 257 57 z "},"ó":{"ha":710,"x_min":85,"x_max":625,"o":"m 354 -11 q 171 17 226 -11 q 100 117 115 46 q 85 353 85 189 q 100 590 85 518 q 171 690 115 661 q 354 719 226 719 q 538 690 483 719 q 609 590 593 661 q 625 353 625 518 q 609 117 625 189 q 538 17 593 46 q 354 -11 483 -11 m 354 57 q 490 78 451 57 q 538 153 529 99 q 547 353 547 208 q 538 553 547 497 q 490 630 529 608 q 354 651 451 651 q 219 630 257 651 q 172 553 181 608 q 163 353 163 499 q 172 153 163 208 q 219 78 181 99 q 354 57 257 57 m 310 838 l 310 844 l 422 1032 l 510 1032 l 510 1025 l 368 838 l 310 838 z "},"ŏ":{"ha":710,"x_min":85,"x_max":625,"o":"m 354 -11 q 171 17 226 -11 q 100 117 115 46 q 85 353 85 189 q 100 590 85 518 q 171 690 115 661 q 354 719 226 719 q 538 690 483 719 q 609 590 593 661 q 625 353 625 518 q 609 117 625 189 q 538 17 593 46 q 354 -11 483 -11 m 354 57 q 490 78 451 57 q 538 153 529 99 q 547 353 547 208 q 538 553 547 497 q 490 630 529 608 q 354 651 451 651 q 219 630 257 651 q 172 553 181 608 q 163 353 163 499 q 172 153 163 208 q 219 78 181 99 q 354 57 257 57 m 522 1032 q 513 923 522 963 q 467 860 504 883 q 353 836 431 836 q 239 860 275 836 q 194 922 203 883 q 185 1032 185 961 l 243 1032 q 249 947 243 975 q 278 904 254 919 q 353 889 301 889 q 428 904 404 889 q 458 948 453 919 q 464 1032 464 976 l 522 1032 z "},"ǒ":{"ha":710,"x_min":85,"x_max":625,"o":"m 354 -11 q 171 17 226 -11 q 100 117 115 46 q 85 353 85 189 q 100 590 85 518 q 171 690 115 661 q 354 719 226 719 q 538 690 483 719 q 609 590 593 661 q 625 353 625 518 q 609 117 625 189 q 538 17 593 46 q 354 -11 483 -11 m 354 57 q 490 78 451 57 q 538 153 529 99 q 547 353 547 208 q 538 553 547 497 q 490 630 529 608 q 354 651 451 651 q 219 630 257 651 q 172 553 181 608 q 163 353 163 499 q 172 153 163 208 q 219 78 181 99 q 354 57 257 57 m 310 840 l 182 1024 l 182 1032 l 239 1032 l 354 890 l 471 1032 l 528 1032 l 528 1024 l 400 840 l 310 840 z "},"ô":{"ha":710,"x_min":85,"x_max":625,"o":"m 354 -11 q 171 17 226 -11 q 100 117 115 46 q 85 353 85 189 q 100 590 85 518 q 171 690 115 661 q 354 719 226 719 q 538 690 483 719 q 609 590 593 661 q 625 353 625 518 q 609 117 625 189 q 538 17 593 46 q 354 -11 483 -11 m 354 57 q 490 78 451 57 q 538 153 529 99 q 547 353 547 208 q 538 553 547 497 q 490 630 529 608 q 354 651 451 651 q 219 630 257 651 q 172 553 181 608 q 163 353 163 499 q 172 153 163 208 q 219 78 181 99 q 354 57 257 57 m 182 840 l 182 847 l 310 1032 l 400 1032 l 528 847 l 528 840 l 471 840 l 354 981 l 239 840 l 182 840 z "},"ố":{"ha":710,"x_min":85,"x_max":632,"o":"m 354 -11 q 171 17 226 -11 q 100 117 115 46 q 85 353 85 189 q 100 590 85 518 q 171 690 115 661 q 354 719 226 719 q 538 690 483 719 q 609 590 593 661 q 625 353 625 518 q 609 117 625 189 q 538 17 593 46 q 354 -11 483 -11 m 354 57 q 490 78 451 57 q 538 153 529 99 q 547 353 547 208 q 538 553 547 497 q 490 630 529 608 q 354 651 451 651 q 219 630 257 651 q 172 553 181 608 q 163 353 163 499 q 172 153 163 208 q 219 78 181 99 q 354 57 257 57 m 178 840 l 178 847 l 306 1032 l 396 1032 l 524 847 l 524 840 l 467 840 l 350 981 l 235 840 l 178 840 m 432 1042 l 432 1049 l 544 1236 l 632 1236 l 632 1229 l 490 1042 l 432 1042 z "},"ộ":{"ha":710,"x_min":85,"x_max":625,"o":"m 354 -11 q 171 17 226 -11 q 100 117 115 46 q 85 353 85 189 q 100 590 85 518 q 171 690 115 661 q 354 719 226 719 q 538 690 483 719 q 609 590 593 661 q 625 353 625 518 q 609 117 625 189 q 538 17 593 46 q 354 -11 483 -11 m 354 57 q 490 78 451 57 q 538 153 529 99 q 547 353 547 208 q 538 553 547 497 q 490 630 529 608 q 354 651 451 651 q 219 630 257 651 q 172 553 181 608 q 163 353 163 499 q 172 153 163 208 q 219 78 181 99 q 354 57 257 57 m 307 -197 l 307 -86 l 401 -86 l 401 -197 l 307 -197 m 181 840 l 181 847 l 308 1032 l 399 1032 l 526 847 l 526 840 l 469 840 l 353 981 l 238 840 l 181 840 z "},"ồ":{"ha":710,"x_min":85,"x_max":625,"o":"m 354 -11 q 171 17 226 -11 q 100 117 115 46 q 85 353 85 189 q 100 590 85 518 q 171 690 115 661 q 354 719 226 719 q 538 690 483 719 q 609 590 593 661 q 625 353 625 518 q 609 117 625 189 q 538 17 593 46 q 354 -11 483 -11 m 354 57 q 490 78 451 57 q 538 153 529 99 q 547 353 547 208 q 538 553 547 497 q 490 630 529 608 q 354 651 451 651 q 219 630 257 651 q 172 553 181 608 q 163 353 163 499 q 172 153 163 208 q 219 78 181 99 q 354 57 257 57 m 176 840 l 176 847 l 304 1032 l 394 1032 l 522 847 l 522 840 l 465 840 l 349 981 l 233 840 l 176 840 m 469 1042 l 328 1229 l 328 1236 l 417 1236 l 528 1049 l 528 1042 l 469 1042 z "},"ổ":{"ha":710,"x_min":85,"x_max":625,"o":"m 354 -11 q 171 17 226 -11 q 100 117 115 46 q 85 353 85 189 q 100 590 85 518 q 171 690 115 661 q 354 719 226 719 q 538 690 483 719 q 609 590 593 661 q 625 353 625 518 q 609 117 625 189 q 538 17 593 46 q 354 -11 483 -11 m 354 57 q 490 78 451 57 q 538 153 529 99 q 547 353 547 208 q 538 553 547 497 q 490 630 529 608 q 354 651 451 651 q 219 630 257 651 q 172 553 181 608 q 163 353 163 499 q 172 153 163 208 q 219 78 181 99 q 354 57 257 57 m 181 840 l 181 847 l 308 1032 l 399 1032 l 526 847 l 526 840 l 469 840 l 353 981 l 238 840 l 181 840 m 408 1054 q 420 1099 408 1086 q 465 1124 432 1113 l 493 1132 q 549 1153 536 1143 q 561 1190 561 1164 q 551 1225 561 1214 q 520 1239 542 1236 q 451 1242 499 1242 q 319 1235 399 1242 l 319 1286 q 461 1296 394 1296 q 587 1276 551 1296 q 622 1197 622 1256 q 609 1135 622 1156 q 550 1099 596 1114 l 519 1089 q 480 1075 490 1081 q 467 1063 469 1069 q 464 1039 464 1056 l 408 1039 l 408 1054 z "},"ỗ":{"ha":710,"x_min":85,"x_max":625,"o":"m 354 -11 q 171 17 226 -11 q 100 117 115 46 q 85 353 85 189 q 100 590 85 518 q 171 690 115 661 q 354 719 226 719 q 538 690 483 719 q 609 590 593 661 q 625 353 625 518 q 609 117 625 189 q 538 17 593 46 q 354 -11 483 -11 m 354 57 q 490 78 451 57 q 538 153 529 99 q 547 353 547 208 q 538 553 547 497 q 490 630 529 608 q 354 651 451 651 q 219 630 257 651 q 172 553 181 608 q 163 353 163 499 q 172 153 163 208 q 219 78 181 99 q 354 57 257 57 m 178 840 l 178 847 l 306 1032 l 396 1032 l 524 847 l 524 840 l 467 840 l 350 981 l 235 840 l 178 840 m 571 1272 q 554 1160 571 1190 q 483 1129 538 1129 q 419 1138 451 1129 q 340 1164 386 1147 q 276 1185 301 1178 q 226 1193 250 1193 q 194 1176 201 1193 q 186 1114 186 1160 l 135 1114 q 151 1226 135 1196 q 222 1257 168 1257 q 285 1248 254 1257 q 367 1221 317 1239 q 431 1200 406 1207 q 479 1193 456 1193 q 513 1209 506 1193 q 519 1272 519 1225 l 571 1272 z "},"ȍ":{"ha":710,"x_min":85,"x_max":625,"o":"m 354 -11 q 171 17 226 -11 q 100 117 115 46 q 85 353 85 189 q 100 590 85 518 q 171 690 115 661 q 354 719 226 719 q 538 690 483 719 q 609 590 593 661 q 625 353 625 518 q 609 117 625 189 q 538 17 593 46 q 354 -11 483 -11 m 354 57 q 490 78 451 57 q 538 153 529 99 q 547 353 547 208 q 538 553 547 497 q 490 630 529 608 q 354 651 451 651 q 219 630 257 651 q 172 553 181 608 q 163 353 163 499 q 172 153 163 208 q 219 78 181 99 q 354 57 257 57 m 279 843 l 226 843 l 90 1018 l 90 1025 l 171 1025 l 279 850 l 279 843 m 507 843 l 453 843 l 317 1018 l 317 1025 l 399 1025 l 507 850 l 507 843 z "},"ö":{"ha":710,"x_min":85,"x_max":625,"o":"m 354 -11 q 171 17 226 -11 q 100 117 115 46 q 85 353 85 189 q 100 590 85 518 q 171 690 115 661 q 354 719 226 719 q 538 690 483 719 q 609 590 593 661 q 625 353 625 518 q 609 117 625 189 q 538 17 593 46 q 354 -11 483 -11 m 354 57 q 490 78 451 57 q 538 153 529 99 q 547 353 547 208 q 538 553 547 497 q 490 630 529 608 q 354 651 451 651 q 219 630 257 651 q 172 553 181 608 q 163 353 163 499 q 172 153 163 208 q 219 78 181 99 q 354 57 257 57 m 190 915 l 190 1013 l 271 1013 l 271 915 l 190 915 m 439 915 l 439 1013 l 519 1013 l 519 915 l 439 915 z "},"ọ":{"ha":710,"x_min":85,"x_max":625,"o":"m 354 -11 q 171 17 226 -11 q 100 117 115 46 q 85 353 85 189 q 100 590 85 518 q 171 690 115 661 q 354 719 226 719 q 538 690 483 719 q 609 590 593 661 q 625 353 625 518 q 609 117 625 189 q 538 17 593 46 q 354 -11 483 -11 m 354 57 q 490 78 451 57 q 538 153 529 99 q 547 353 547 208 q 538 553 547 497 q 490 630 529 608 q 354 651 451 651 q 219 630 257 651 q 172 553 181 608 q 163 353 163 499 q 172 153 163 208 q 219 78 181 99 q 354 57 257 57 m 307 -197 l 307 -86 l 401 -86 l 401 -197 l 307 -197 z "},"ò":{"ha":710,"x_min":85,"x_max":625,"o":"m 354 -11 q 171 17 226 -11 q 100 117 115 46 q 85 353 85 189 q 100 590 85 518 q 171 690 115 661 q 354 719 226 719 q 538 690 483 719 q 609 590 593 661 q 625 353 625 518 q 609 117 625 189 q 538 17 593 46 q 354 -11 483 -11 m 354 57 q 490 78 451 57 q 538 153 529 99 q 547 353 547 208 q 538 553 547 497 q 490 630 529 608 q 354 651 451 651 q 219 630 257 651 q 172 553 181 608 q 163 353 163 499 q 172 153 163 208 q 219 78 181 99 q 354 57 257 57 m 344 838 l 203 1025 l 203 1032 l 292 1032 l 403 844 l 403 838 l 344 838 z "},"ỏ":{"ha":710,"x_min":85,"x_max":625,"o":"m 354 -11 q 171 17 226 -11 q 100 117 115 46 q 85 353 85 189 q 100 590 85 518 q 171 690 115 661 q 354 719 226 719 q 538 690 483 719 q 609 590 593 661 q 625 353 625 518 q 609 117 625 189 q 538 17 593 46 q 354 -11 483 -11 m 354 57 q 490 78 451 57 q 538 153 529 99 q 547 353 547 208 q 538 553 547 497 q 490 630 529 608 q 354 651 451 651 q 219 630 257 651 q 172 553 181 608 q 163 353 163 499 q 172 153 163 208 q 219 78 181 99 q 354 57 257 57 m 290 860 q 302 905 290 892 q 347 929 314 918 l 375 938 q 431 959 418 949 q 443 996 443 969 q 433 1031 443 1019 q 402 1044 424 1042 q 333 1047 381 1047 q 201 1040 281 1047 l 201 1092 q 343 1101 276 1101 q 469 1081 433 1101 q 504 1003 504 1061 q 491 940 504 961 q 432 904 478 919 l 401 894 q 362 881 372 886 q 349 868 351 875 q 346 844 346 861 l 290 844 l 290 860 z "},"ơ":{"ha":710,"x_min":85,"x_max":692,"o":"m 692 843 l 692 801 q 683 717 692 746 q 649 676 674 689 q 575 661 625 664 q 615 557 606 625 q 625 353 625 489 q 609 117 625 189 q 538 17 593 46 q 354 -11 483 -11 q 171 17 226 -11 q 100 117 115 46 q 85 353 85 189 q 100 590 85 518 q 171 690 115 661 q 354 719 226 719 q 488 708 442 719 l 557 708 q 617 724 604 708 q 631 788 631 740 l 631 843 l 692 843 m 354 57 q 490 78 451 57 q 538 153 529 99 q 547 353 547 208 q 538 553 547 497 q 490 630 529 608 q 354 651 451 651 q 219 630 257 651 q 172 553 181 608 q 163 353 163 499 q 172 153 163 208 q 219 78 181 99 q 354 57 257 57 z "},"ớ":{"ha":710,"x_min":85,"x_max":692,"o":"m 692 843 l 692 801 q 683 717 692 746 q 649 676 674 689 q 575 661 625 664 q 615 557 606 625 q 625 353 625 489 q 609 117 625 189 q 538 17 593 46 q 354 -11 483 -11 q 171 17 226 -11 q 100 117 115 46 q 85 353 85 189 q 100 590 85 518 q 171 690 115 661 q 354 719 226 719 q 488 708 442 719 l 557 708 q 617 724 604 708 q 631 788 631 740 l 631 843 l 692 843 m 354 57 q 490 78 451 57 q 538 153 529 99 q 547 353 547 208 q 538 553 547 497 q 490 630 529 608 q 354 651 451 651 q 219 630 257 651 q 172 553 181 608 q 163 353 163 499 q 172 153 163 208 q 219 78 181 99 q 354 57 257 57 m 318 838 l 318 844 l 431 1032 l 518 1032 l 518 1025 l 376 838 l 318 838 z "},"ợ":{"ha":710,"x_min":85,"x_max":692,"o":"m 692 843 l 692 801 q 683 717 692 746 q 649 676 674 689 q 575 661 625 664 q 615 557 606 625 q 625 353 625 489 q 609 117 625 189 q 538 17 593 46 q 354 -11 483 -11 q 171 17 226 -11 q 100 117 115 46 q 85 353 85 189 q 100 590 85 518 q 171 690 115 661 q 354 719 226 719 q 488 708 442 719 l 557 708 q 617 724 604 708 q 631 788 631 740 l 631 843 l 692 843 m 354 57 q 490 78 451 57 q 538 153 529 99 q 547 353 547 208 q 538 553 547 497 q 490 630 529 608 q 354 651 451 651 q 219 630 257 651 q 172 553 181 608 q 163 353 163 499 q 172 153 163 208 q 219 78 181 99 q 354 57 257 57 m 307 -197 l 307 -86 l 401 -86 l 401 -197 l 307 -197 z "},"ờ":{"ha":710,"x_min":85,"x_max":692,"o":"m 692 843 l 692 801 q 683 717 692 746 q 649 676 674 689 q 575 661 625 664 q 615 557 606 625 q 625 353 625 489 q 609 117 625 189 q 538 17 593 46 q 354 -11 483 -11 q 171 17 226 -11 q 100 117 115 46 q 85 353 85 189 q 100 590 85 518 q 171 690 115 661 q 354 719 226 719 q 488 708 442 719 l 557 708 q 617 724 604 708 q 631 788 631 740 l 631 843 l 692 843 m 354 57 q 490 78 451 57 q 538 153 529 99 q 547 353 547 208 q 538 553 547 497 q 490 630 529 608 q 354 651 451 651 q 219 630 257 651 q 172 553 181 608 q 163 353 163 499 q 172 153 163 208 q 219 78 181 99 q 354 57 257 57 m 335 838 l 193 1025 l 193 1032 l 282 1032 l 393 844 l 393 838 l 335 838 z "},"ở":{"ha":710,"x_min":85,"x_max":692,"o":"m 692 843 l 692 801 q 683 717 692 746 q 649 676 674 689 q 575 661 625 664 q 615 557 606 625 q 625 353 625 489 q 609 117 625 189 q 538 17 593 46 q 354 -11 483 -11 q 171 17 226 -11 q 100 117 115 46 q 85 353 85 189 q 100 590 85 518 q 171 690 115 661 q 354 719 226 719 q 488 708 442 719 l 557 708 q 617 724 604 708 q 631 788 631 740 l 631 843 l 692 843 m 354 57 q 490 78 451 57 q 538 153 529 99 q 547 353 547 208 q 538 553 547 497 q 490 630 529 608 q 354 651 451 651 q 219 630 257 651 q 172 553 181 608 q 163 353 163 499 q 172 153 163 208 q 219 78 181 99 q 354 57 257 57 m 290 860 q 302 905 290 892 q 347 929 314 918 l 375 938 q 431 959 418 949 q 443 996 443 969 q 433 1031 443 1019 q 402 1044 424 1042 q 333 1047 381 1047 q 201 1040 281 1047 l 201 1092 q 343 1101 276 1101 q 469 1081 433 1101 q 504 1003 504 1061 q 491 940 504 961 q 432 904 478 919 l 401 894 q 362 881 372 886 q 349 868 351 875 q 346 844 346 861 l 290 844 l 290 860 z "},"ỡ":{"ha":710,"x_min":85,"x_max":692,"o":"m 692 843 l 692 801 q 683 717 692 746 q 649 676 674 689 q 575 661 625 664 q 615 557 606 625 q 625 353 625 489 q 609 117 625 189 q 538 17 593 46 q 354 -11 483 -11 q 171 17 226 -11 q 100 117 115 46 q 85 353 85 189 q 100 590 85 518 q 171 690 115 661 q 354 719 226 719 q 488 708 442 719 l 557 708 q 617 724 604 708 q 631 788 631 740 l 631 843 l 692 843 m 354 57 q 490 78 451 57 q 538 153 529 99 q 547 353 547 208 q 538 553 547 497 q 490 630 529 608 q 354 651 451 651 q 219 630 257 651 q 172 553 181 608 q 163 353 163 499 q 172 153 163 208 q 219 78 181 99 q 354 57 257 57 m 571 1032 q 554 919 571 950 q 483 889 538 889 q 419 898 451 889 q 340 924 386 907 q 276 945 301 938 q 226 953 250 953 q 194 936 201 953 q 186 874 186 919 l 135 874 q 151 986 135 956 q 222 1017 168 1017 q 285 1008 254 1017 q 367 981 317 999 q 431 960 406 967 q 479 953 456 953 q 513 969 506 953 q 519 1032 519 985 l 571 1032 z "},"ő":{"ha":710,"x_min":85,"x_max":639,"o":"m 354 -11 q 171 17 226 -11 q 100 117 115 46 q 85 353 85 189 q 100 590 85 518 q 171 690 115 661 q 354 719 226 719 q 538 690 483 719 q 609 590 593 661 q 625 353 625 518 q 609 117 625 189 q 538 17 593 46 q 354 -11 483 -11 m 354 57 q 490 78 451 57 q 538 153 529 99 q 547 353 547 208 q 538 553 547 497 q 490 630 529 608 q 354 651 451 651 q 219 630 257 651 q 172 553 181 608 q 163 353 163 499 q 172 153 163 208 q 219 78 181 99 q 354 57 257 57 m 222 843 l 222 850 l 331 1025 l 413 1025 l 413 1018 l 276 843 l 222 843 m 450 843 l 450 850 l 558 1025 l 639 1025 l 639 1018 l 503 843 l 450 843 z "},"ȏ":{"ha":710,"x_min":85,"x_max":625,"o":"m 354 -11 q 171 17 226 -11 q 100 117 115 46 q 85 353 85 189 q 100 590 85 518 q 171 690 115 661 q 354 719 226 719 q 538 690 483 719 q 609 590 593 661 q 625 353 625 518 q 609 117 625 189 q 538 17 593 46 q 354 -11 483 -11 m 354 57 q 490 78 451 57 q 538 153 529 99 q 547 353 547 208 q 538 553 547 497 q 490 630 529 608 q 354 651 451 651 q 219 630 257 651 q 172 553 181 608 q 163 353 163 499 q 172 153 163 208 q 219 78 181 99 q 354 57 257 57 m 185 844 q 194 953 185 914 q 240 1017 203 993 q 354 1040 276 1040 q 468 1017 432 1040 q 513 954 504 993 q 522 844 522 915 l 464 844 q 458 929 464 901 q 429 972 453 957 q 354 988 406 988 q 278 972 303 988 q 249 928 254 957 q 243 844 243 900 l 185 844 z "},"ō":{"ha":710,"x_min":85,"x_max":625,"o":"m 354 -11 q 171 17 226 -11 q 100 117 115 46 q 85 353 85 189 q 100 590 85 518 q 171 690 115 661 q 354 719 226 719 q 538 690 483 719 q 609 590 593 661 q 625 353 625 518 q 609 117 625 189 q 538 17 593 46 q 354 -11 483 -11 m 354 57 q 490 78 451 57 q 538 153 529 99 q 547 353 547 208 q 538 553 547 497 q 490 630 529 608 q 354 651 451 651 q 219 630 257 651 q 172 553 181 608 q 163 353 163 499 q 172 153 163 208 q 219 78 181 99 q 354 57 257 57 m 206 957 l 206 1031 l 500 1031 l 500 957 l 206 957 z "},"ǫ":{"ha":710,"x_min":85,"x_max":625,"o":"m 354 719 q 538 690 483 719 q 609 590 593 661 q 625 353 625 518 q 613 131 625 201 q 556 29 600 61 q 487 -53 518 1 q 456 -154 456 -108 q 518 -214 456 -214 q 542 -212 532 -214 l 542 -269 q 501 -272 517 -272 q 413 -244 440 -272 q 386 -169 386 -217 q 405 -87 386 -131 q 456 -6 424 -44 q 354 -11 418 -11 q 171 17 226 -11 q 100 117 115 46 q 85 353 85 189 q 100 590 85 518 q 171 690 115 661 q 354 719 226 719 m 354 57 q 490 78 451 57 q 538 153 529 99 q 547 353 547 208 q 538 553 547 497 q 490 630 529 608 q 354 651 451 651 q 219 630 257 651 q 172 553 181 608 q 163 353 163 499 q 172 153 163 208 q 219 78 181 99 q 354 57 257 57 z "},"ø":{"ha":710,"x_min":85,"x_max":625,"o":"m 564 672 q 614 569 603 639 q 625 353 625 500 q 609 117 625 189 q 538 17 593 46 q 354 -11 483 -11 q 201 6 251 -11 l 157 -76 l 85 -76 l 146 36 q 96 138 107 69 q 85 353 85 207 q 100 590 85 518 q 171 690 115 661 q 354 719 226 719 q 507 703 457 719 l 551 785 l 625 785 l 564 672 m 163 353 q 166 190 163 240 q 186 110 169 139 l 472 639 q 354 651 436 651 q 219 630 257 651 q 172 553 181 608 q 163 353 163 499 m 354 57 q 490 78 451 57 q 538 153 529 99 q 547 353 547 208 q 544 517 547 467 q 524 597 540 568 l 236 69 q 354 57 272 57 z "},"ǿ":{"ha":710,"x_min":85,"x_max":625,"o":"m 564 672 q 614 569 603 639 q 625 353 625 500 q 609 117 625 189 q 538 17 593 46 q 354 -11 483 -11 q 201 6 251 -11 l 157 -76 l 85 -76 l 146 36 q 96 138 107 69 q 85 353 85 207 q 100 590 85 518 q 171 690 115 661 q 354 719 226 719 q 507 703 457 719 l 551 785 l 625 785 l 564 672 m 163 353 q 166 190 163 240 q 186 110 169 139 l 472 639 q 354 651 436 651 q 219 630 257 651 q 172 553 181 608 q 163 353 163 499 m 354 57 q 490 78 451 57 q 538 153 529 99 q 547 353 547 208 q 544 517 547 467 q 524 597 540 568 l 236 69 q 354 57 272 57 m 318 838 l 318 844 l 431 1032 l 518 1032 l 518 1025 l 376 838 l 318 838 z "},"õ":{"ha":710,"x_min":85,"x_max":625,"o":"m 354 -11 q 171 17 226 -11 q 100 117 115 46 q 85 353 85 189 q 100 590 85 518 q 171 690 115 661 q 354 719 226 719 q 538 690 483 719 q 609 590 593 661 q 625 353 625 518 q 609 117 625 189 q 538 17 593 46 q 354 -11 483 -11 m 354 57 q 490 78 451 57 q 538 153 529 99 q 547 353 547 208 q 538 553 547 497 q 490 630 529 608 q 354 651 451 651 q 219 630 257 651 q 172 553 181 608 q 163 353 163 499 q 172 153 163 208 q 219 78 181 99 q 354 57 257 57 m 572 1032 q 556 919 572 950 q 485 889 539 889 q 420 898 453 889 q 342 924 388 907 q 277 945 303 938 q 228 953 251 953 q 195 936 203 953 q 188 874 188 919 l 136 874 q 153 986 136 956 q 224 1017 169 1017 q 287 1008 256 1017 q 368 981 318 999 q 432 960 407 967 q 481 953 457 953 q 514 969 507 953 q 521 1032 521 985 l 572 1032 z "},"œ":{"ha":1153,"x_min":85,"x_max":1068,"o":"m 1068 328 l 625 328 q 638 153 625 207 q 695 78 651 100 q 838 57 739 57 q 942 62 885 57 q 1044 75 1000 67 l 1044 8 q 944 -6 1007 0 q 824 -11 882 -11 q 669 10 724 -11 q 588 88 615 32 q 512 10 564 31 q 354 -11 460 -11 q 171 17 226 -11 q 100 117 115 46 q 85 353 85 189 q 100 590 85 518 q 171 690 115 661 q 354 719 226 719 q 511 699 458 719 q 588 624 564 678 q 667 697 613 675 q 822 719 721 719 q 989 687 938 719 q 1054 583 1040 654 q 1068 354 1068 511 l 1068 328 m 354 57 q 490 78 451 57 q 538 153 529 99 q 547 353 547 208 q 538 553 547 497 q 490 630 529 608 q 354 651 451 651 q 219 630 257 651 q 172 553 181 608 q 163 353 163 499 q 172 153 163 208 q 219 78 181 99 q 354 57 257 57 m 818 651 q 690 633 729 651 q 639 562 651 614 q 625 390 626 510 l 992 390 l 992 411 q 977 569 992 519 q 927 635 963 619 q 818 651 892 651 z "},"p":{"ha":728,"x_min":113,"x_max":643,"o":"m 113 708 l 179 708 l 185 603 l 190 603 q 268 696 214 672 q 403 719 322 719 q 554 689 504 719 q 624 583 604 658 q 643 354 643 507 q 624 126 643 203 q 556 19 606 50 q 404 -11 506 -11 q 269 13 321 -11 q 196 93 218 38 l 190 93 l 190 -272 l 113 -272 l 113 708 m 376 60 q 501 80 464 60 q 552 159 539 100 q 565 354 565 218 q 552 549 565 490 q 501 628 539 608 q 376 649 464 649 q 264 625 306 649 q 207 549 222 601 q 193 472 196 514 q 190 354 190 431 q 192 242 190 285 q 203 172 194 200 q 262 85 221 111 q 376 60 303 60 z "},"þ":{"ha":728,"x_min":113,"x_max":643,"o":"m 113 1032 l 190 1032 l 190 613 l 196 613 q 269 695 218 671 q 403 719 319 719 q 554 689 504 719 q 624 583 604 658 q 643 354 643 507 q 624 126 643 203 q 556 19 606 50 q 404 -11 506 -11 q 269 13 321 -11 q 196 93 218 38 l 190 93 l 190 -264 l 113 -264 l 113 1032 m 376 60 q 501 80 464 60 q 552 159 539 100 q 565 354 565 218 q 552 549 565 490 q 501 628 539 608 q 376 649 464 649 q 263 624 304 649 q 206 543 222 600 q 193 470 196 511 q 190 354 190 429 q 201 179 190 221 q 261 87 219 114 q 376 60 303 60 z "},"q":{"ha":728,"x_min":85,"x_max":615,"o":"m 538 93 l 531 93 q 458 13 508 38 q 324 -11 407 -11 q 172 19 222 -11 q 103 126 122 50 q 85 354 85 201 q 104 582 85 506 q 174 689 124 658 q 324 719 224 719 q 459 696 404 719 q 536 603 514 672 l 543 603 l 549 708 l 615 708 l 615 -272 l 538 -272 l 538 93 m 351 60 q 464 84 424 60 q 522 164 504 108 q 535 240 532 196 q 538 354 538 283 q 534 472 538 426 q 518 557 531 517 q 463 626 504 604 q 351 649 421 649 q 226 628 264 649 q 176 549 189 608 q 163 354 163 490 q 176 159 163 218 q 226 80 189 100 q 351 60 264 60 z "},"r":{"ha":438,"x_min":113,"x_max":404,"o":"m 113 708 l 179 708 l 185 568 l 190 568 q 265 687 211 654 q 404 719 318 719 l 404 640 q 273 608 319 640 q 208 512 226 575 q 190 346 190 449 l 190 0 l 113 0 l 113 708 z "},"ŕ":{"ha":438,"x_min":113,"x_max":404,"o":"m 113 708 l 179 708 l 185 568 l 190 568 q 265 687 211 654 q 404 719 318 719 l 404 640 q 273 608 319 640 q 208 512 226 575 q 190 346 190 449 l 190 0 l 113 0 l 113 708 m 183 838 l 183 844 l 296 1032 l 383 1032 l 383 1025 l 242 838 l 183 838 z "},"ř":{"ha":438,"x_min":47,"x_max":404,"o":"m 113 708 l 179 708 l 185 568 l 190 568 q 265 687 211 654 q 404 719 318 719 l 404 640 q 273 608 319 640 q 208 512 226 575 q 190 346 190 449 l 190 0 l 113 0 l 113 708 m 175 840 l 47 1024 l 47 1032 l 104 1032 l 219 890 l 336 1032 l 393 1032 l 393 1024 l 265 840 l 175 840 z "},"ŗ":{"ha":438,"x_min":89,"x_max":404,"o":"m 113 708 l 179 708 l 185 568 l 190 568 q 265 687 211 654 q 404 719 318 719 l 404 640 q 273 608 319 640 q 208 512 226 575 q 190 346 190 449 l 190 0 l 113 0 l 113 708 m 89 -300 q 147 -284 135 -300 q 160 -218 160 -268 l 160 -194 l 121 -194 l 121 -86 l 214 -86 l 214 -193 q 204 -285 214 -254 q 169 -328 194 -315 q 89 -340 143 -340 l 89 -300 z "},"ȑ":{"ha":438,"x_min":-44,"x_max":404,"o":"m 113 708 l 179 708 l 185 568 l 190 568 q 265 687 211 654 q 404 719 318 719 l 404 640 q 273 608 319 640 q 208 512 226 575 q 190 346 190 449 l 190 0 l 113 0 l 113 708 m 144 843 l 92 843 l -44 1018 l -44 1025 l 36 1025 l 144 850 l 144 843 m 372 843 l 318 843 l 182 1018 l 182 1025 l 264 1025 l 372 850 l 372 843 z "},"ṛ":{"ha":438,"x_min":104,"x_max":404,"o":"m 113 708 l 179 708 l 185 568 l 190 568 q 265 687 211 654 q 404 719 318 719 l 404 640 q 273 608 319 640 q 208 512 226 575 q 190 346 190 449 l 190 0 l 113 0 l 113 708 m 104 -197 l 104 -86 l 199 -86 l 199 -197 l 104 -197 z "},"ȓ":{"ha":438,"x_min":50,"x_max":404,"o":"m 113 708 l 179 708 l 185 568 l 190 568 q 265 687 211 654 q 404 719 318 719 l 404 640 q 273 608 319 640 q 208 512 226 575 q 190 346 190 449 l 190 0 l 113 0 l 113 708 m 50 844 q 59 953 50 914 q 105 1017 68 993 q 219 1040 142 1040 q 333 1017 297 1040 q 378 954 369 993 q 388 844 388 915 l 329 844 q 324 929 329 901 q 294 972 318 957 q 219 988 271 988 q 144 972 168 988 q 114 928 119 957 q 108 844 108 900 l 50 844 z "},"s":{"ha":611,"x_min":71,"x_max":540,"o":"m 307 -11 q 194 -6 256 -11 q 90 6 133 -1 l 90 72 q 313 57 208 57 q 409 71 376 57 q 452 112 442 85 q 463 189 463 139 q 456 270 463 246 q 431 303 449 294 q 375 315 414 311 l 206 335 q 99 383 126 344 q 71 515 71 422 q 99 646 71 601 q 179 705 128 690 q 315 719 231 719 q 414 714 360 719 q 506 701 468 708 l 506 635 q 306 651 414 651 q 217 643 250 651 q 166 606 185 635 q 147 522 147 578 q 155 449 147 472 q 180 417 163 426 q 235 404 197 408 l 401 385 q 485 363 457 379 q 527 308 514 347 q 540 192 540 268 q 516 67 540 111 q 442 6 492 24 q 307 -11 392 -11 z "},"ś":{"ha":611,"x_min":71,"x_max":540,"o":"m 307 -11 q 194 -6 256 -11 q 90 6 133 -1 l 90 72 q 313 57 208 57 q 409 71 376 57 q 452 112 442 85 q 463 189 463 139 q 456 270 463 246 q 431 303 449 294 q 375 315 414 311 l 206 335 q 99 383 126 344 q 71 515 71 422 q 99 646 71 601 q 179 705 128 690 q 315 719 231 719 q 414 714 360 719 q 506 701 468 708 l 506 635 q 306 651 414 651 q 217 643 250 651 q 166 606 185 635 q 147 522 147 578 q 155 449 147 472 q 180 417 163 426 q 235 404 197 408 l 401 385 q 485 363 457 379 q 527 308 514 347 q 540 192 540 268 q 516 67 540 111 q 442 6 492 24 q 307 -11 392 -11 m 269 838 l 269 844 l 382 1032 l 469 1032 l 469 1025 l 328 838 l 269 838 z "},"ꞌ":{"ha":160,"x_min":40,"x_max":119,"o":"m 40 401 l 40 1032 l 119 1032 l 119 710 l 93 401 l 40 401 z "},"š":{"ha":611,"x_min":71,"x_max":540,"o":"m 307 -11 q 194 -6 256 -11 q 90 6 133 -1 l 90 72 q 313 57 208 57 q 409 71 376 57 q 452 112 442 85 q 463 189 463 139 q 456 270 463 246 q 431 303 449 294 q 375 315 414 311 l 206 335 q 99 383 126 344 q 71 515 71 422 q 99 646 71 601 q 179 705 128 690 q 315 719 231 719 q 414 714 360 719 q 506 701 468 708 l 506 635 q 306 651 414 651 q 217 643 250 651 q 166 606 185 635 q 147 522 147 578 q 155 449 147 472 q 180 417 163 426 q 235 404 197 408 l 401 385 q 485 363 457 379 q 527 308 514 347 q 540 192 540 268 q 516 67 540 111 q 442 6 492 24 q 307 -11 392 -11 m 265 840 l 138 1024 l 138 1032 l 194 1032 l 310 890 l 426 1032 l 483 1032 l 483 1024 l 356 840 l 265 840 z "},"ş":{"ha":611,"x_min":71,"x_max":540,"o":"m 540 192 q 519 72 540 115 q 453 10 497 29 q 333 -11 408 -8 l 276 -264 l 197 -264 l 197 -257 l 274 -11 q 90 6 157 -6 l 90 72 q 313 57 208 57 q 409 71 376 57 q 452 112 442 85 q 463 189 463 139 q 456 270 463 246 q 431 303 449 294 q 375 315 414 311 l 206 335 q 99 383 126 344 q 71 515 71 422 q 99 646 71 601 q 179 705 128 690 q 315 719 231 719 q 414 714 360 719 q 506 701 468 708 l 506 635 q 306 651 414 651 q 217 643 250 651 q 166 606 185 635 q 147 522 147 578 q 155 449 147 472 q 180 417 163 426 q 235 404 197 408 l 401 385 q 485 363 457 379 q 527 308 514 347 q 540 192 540 268 z "},"ŝ":{"ha":611,"x_min":71,"x_max":540,"o":"m 307 -11 q 194 -6 256 -11 q 90 6 133 -1 l 90 72 q 313 57 208 57 q 409 71 376 57 q 452 112 442 85 q 463 189 463 139 q 456 270 463 246 q 431 303 449 294 q 375 315 414 311 l 206 335 q 99 383 126 344 q 71 515 71 422 q 99 646 71 601 q 179 705 128 690 q 315 719 231 719 q 414 714 360 719 q 506 701 468 708 l 506 635 q 306 651 414 651 q 217 643 250 651 q 166 606 185 635 q 147 522 147 578 q 155 449 147 472 q 180 417 163 426 q 235 404 197 408 l 401 385 q 485 363 457 379 q 527 308 514 347 q 540 192 540 268 q 516 67 540 111 q 442 6 492 24 q 307 -11 392 -11 m 132 840 l 132 847 l 260 1032 l 350 1032 l 478 847 l 478 840 l 421 840 l 304 981 l 189 840 l 132 840 z "},"ș":{"ha":611,"x_min":71,"x_max":540,"o":"m 307 -11 q 194 -6 256 -11 q 90 6 133 -1 l 90 72 q 313 57 208 57 q 409 71 376 57 q 452 112 442 85 q 463 189 463 139 q 456 270 463 246 q 431 303 449 294 q 375 315 414 311 l 206 335 q 99 383 126 344 q 71 515 71 422 q 99 646 71 601 q 179 705 128 690 q 315 719 231 719 q 414 714 360 719 q 506 701 468 708 l 506 635 q 306 651 414 651 q 217 643 250 651 q 166 606 185 635 q 147 522 147 578 q 155 449 147 472 q 180 417 163 426 q 235 404 197 408 l 401 385 q 485 363 457 379 q 527 308 514 347 q 540 192 540 268 q 516 67 540 111 q 442 6 492 24 q 307 -11 392 -11 m 243 -300 q 301 -284 289 -300 q 314 -218 314 -268 l 314 -194 l 275 -194 l 275 -86 l 368 -86 l 368 -193 q 358 -285 368 -254 q 323 -328 349 -315 q 243 -340 297 -340 l 243 -300 z "},"ṣ":{"ha":611,"x_min":71,"x_max":540,"o":"m 307 -11 q 194 -6 256 -11 q 90 6 133 -1 l 90 72 q 313 57 208 57 q 409 71 376 57 q 452 112 442 85 q 463 189 463 139 q 456 270 463 246 q 431 303 449 294 q 375 315 414 311 l 206 335 q 99 383 126 344 q 71 515 71 422 q 99 646 71 601 q 179 705 128 690 q 315 719 231 719 q 414 714 360 719 q 506 701 468 708 l 506 635 q 306 651 414 651 q 217 643 250 651 q 166 606 185 635 q 147 522 147 578 q 155 449 147 472 q 180 417 163 426 q 235 404 197 408 l 401 385 q 485 363 457 379 q 527 308 514 347 q 540 192 540 268 q 516 67 540 111 q 442 6 492 24 q 307 -11 392 -11 m 258 -197 l 258 -86 l 353 -86 l 353 -197 l 258 -197 z "},"ß":{"ha":749,"x_min":113,"x_max":664,"o":"m 315 0 l 315 68 l 388 68 q 521 84 482 68 q 573 151 560 100 q 586 329 586 203 q 569 480 586 428 q 513 552 553 532 q 400 572 474 572 l 356 572 l 356 642 l 400 642 q 536 678 497 642 q 575 803 575 714 q 558 906 575 869 q 499 958 540 943 q 383 974 458 974 q 270 955 311 974 q 209 888 229 936 q 189 747 189 839 l 189 0 l 113 0 l 113 753 q 139 919 113 857 q 225 1012 165 982 q 389 1042 285 1042 q 547 1017 489 1042 q 628 941 604 992 q 653 806 653 890 q 618 673 653 718 q 508 614 583 628 l 508 608 q 626 533 589 594 q 664 338 664 471 q 645 134 664 204 q 573 32 626 64 q 411 0 519 0 l 315 0 z "},"ſ":{"ha":401,"x_min":35,"x_max":399,"o":"m 161 640 l 35 640 l 35 708 l 161 708 l 161 844 q 185 968 161 928 q 257 1020 208 1008 q 399 1032 306 1032 l 399 969 q 299 960 332 969 q 252 928 265 951 q 239 858 239 906 l 239 0 l 161 0 l 161 640 z "},"t":{"ha":422,"x_min":35,"x_max":388,"o":"m 161 0 l 161 640 l 35 640 l 35 708 l 161 708 l 161 914 l 239 914 l 239 708 l 388 708 l 388 640 l 239 640 l 239 0 l 161 0 z "},"ŧ":{"ha":422,"x_min":35,"x_max":388,"o":"m 388 640 l 239 640 l 239 396 l 385 396 l 385 328 l 239 328 l 239 0 l 161 0 l 161 328 l 42 328 l 42 396 l 161 396 l 161 640 l 35 640 l 35 708 l 161 708 l 161 914 l 239 914 l 239 708 l 388 708 l 388 640 z "},"ť":{"ha":446,"x_min":35,"x_max":533,"o":"m 161 0 l 161 640 l 35 640 l 35 708 l 161 708 l 161 914 l 239 914 l 239 708 l 388 708 l 388 640 l 239 640 l 239 0 l 161 0 m 435 624 l 454 842 l 454 956 l 533 956 l 533 842 l 489 624 l 435 624 z "},"ţ":{"ha":422,"x_min":35,"x_max":388,"o":"m 239 708 l 388 708 l 388 640 l 239 640 l 239 0 l 229 0 l 171 -264 l 92 -264 l 92 -257 l 172 0 l 161 0 l 161 640 l 35 640 l 35 708 l 161 708 l 161 914 l 239 914 l 239 708 z "},"ț":{"ha":422,"x_min":35,"x_max":388,"o":"m 161 0 l 161 640 l 35 640 l 35 708 l 161 708 l 161 914 l 239 914 l 239 708 l 388 708 l 388 640 l 239 640 l 239 0 l 161 0 m 138 -300 q 196 -284 183 -300 q 208 -218 208 -268 l 208 -194 l 169 -194 l 169 -86 l 263 -86 l 263 -193 q 253 -285 263 -254 q 217 -328 243 -315 q 138 -340 192 -340 l 138 -300 z "},"ṭ":{"ha":422,"x_min":35,"x_max":388,"o":"m 161 0 l 161 640 l 35 640 l 35 708 l 161 708 l 161 914 l 239 914 l 239 708 l 388 708 l 388 640 l 239 640 l 239 0 l 161 0 m 153 -197 l 153 -86 l 247 -86 l 247 -197 l 153 -197 z "},"u":{"ha":735,"x_min":111,"x_max":624,"o":"m 551 106 l 544 106 q 477 19 525 50 q 331 -11 429 -11 q 190 16 236 -11 q 127 100 143 43 q 111 263 111 157 l 111 708 l 189 708 l 189 286 q 201 136 189 182 q 248 75 214 90 q 358 60 282 60 q 486 94 446 60 q 536 183 526 128 q 546 342 546 239 l 546 708 l 624 708 l 624 0 l 556 0 l 551 106 z "},"ú":{"ha":735,"x_min":111,"x_max":624,"o":"m 551 106 l 544 106 q 477 19 525 50 q 331 -11 429 -11 q 190 16 236 -11 q 127 100 143 43 q 111 263 111 157 l 111 708 l 189 708 l 189 286 q 201 136 189 182 q 248 75 214 90 q 358 60 282 60 q 486 94 446 60 q 536 183 526 128 q 546 342 546 239 l 546 708 l 624 708 l 624 0 l 556 0 l 551 106 m 332 838 l 332 844 l 444 1032 l 532 1032 l 532 1025 l 390 838 l 332 838 z "},"ŭ":{"ha":735,"x_min":111,"x_max":624,"o":"m 551 106 l 544 106 q 477 19 525 50 q 331 -11 429 -11 q 190 16 236 -11 q 127 100 143 43 q 111 263 111 157 l 111 708 l 189 708 l 189 286 q 201 136 189 182 q 248 75 214 90 q 358 60 282 60 q 486 94 446 60 q 536 183 526 128 q 546 342 546 239 l 546 708 l 624 708 l 624 0 l 556 0 l 551 106 m 536 1032 q 527 923 536 963 q 481 860 518 883 q 367 836 444 836 q 253 860 289 836 q 208 922 217 883 q 199 1032 199 961 l 257 1032 q 263 947 257 975 q 292 904 268 919 q 367 889 315 889 q 442 904 418 889 q 472 948 467 919 q 478 1032 478 976 l 536 1032 z "},"ǔ":{"ha":735,"x_min":111,"x_max":624,"o":"m 551 106 l 544 106 q 477 19 525 50 q 331 -11 429 -11 q 190 16 236 -11 q 127 100 143 43 q 111 263 111 157 l 111 708 l 189 708 l 189 286 q 201 136 189 182 q 248 75 214 90 q 358 60 282 60 q 486 94 446 60 q 536 183 526 128 q 546 342 546 239 l 546 708 l 624 708 l 624 0 l 556 0 l 551 106 m 324 840 l 196 1024 l 196 1032 l 253 1032 l 368 890 l 485 1032 l 542 1032 l 542 1024 l 414 840 l 324 840 z "},"û":{"ha":735,"x_min":111,"x_max":624,"o":"m 551 106 l 544 106 q 477 19 525 50 q 331 -11 429 -11 q 190 16 236 -11 q 127 100 143 43 q 111 263 111 157 l 111 708 l 189 708 l 189 286 q 201 136 189 182 q 248 75 214 90 q 358 60 282 60 q 486 94 446 60 q 536 183 526 128 q 546 342 546 239 l 546 708 l 624 708 l 624 0 l 556 0 l 551 106 m 194 840 l 194 847 l 322 1032 l 413 1032 l 540 847 l 540 840 l 483 840 l 367 981 l 251 840 l 194 840 z "},"ȕ":{"ha":735,"x_min":104,"x_max":624,"o":"m 551 106 l 544 106 q 477 19 525 50 q 331 -11 429 -11 q 190 16 236 -11 q 127 100 143 43 q 111 263 111 157 l 111 708 l 189 708 l 189 286 q 201 136 189 182 q 248 75 214 90 q 358 60 282 60 q 486 94 446 60 q 536 183 526 128 q 546 342 546 239 l 546 708 l 624 708 l 624 0 l 556 0 l 551 106 m 293 843 l 240 843 l 104 1018 l 104 1025 l 185 1025 l 293 850 l 293 843 m 521 843 l 467 843 l 331 1018 l 331 1025 l 413 1025 l 521 850 l 521 843 z "},"ü":{"ha":735,"x_min":111,"x_max":624,"o":"m 551 106 l 544 106 q 477 19 525 50 q 331 -11 429 -11 q 190 16 236 -11 q 127 100 143 43 q 111 263 111 157 l 111 708 l 189 708 l 189 286 q 201 136 189 182 q 248 75 214 90 q 358 60 282 60 q 486 94 446 60 q 536 183 526 128 q 546 342 546 239 l 546 708 l 624 708 l 624 0 l 556 0 l 551 106 m 201 915 l 201 1013 l 282 1013 l 282 915 l 201 915 m 450 915 l 450 1013 l 531 1013 l 531 915 l 450 915 z "},"ǘ":{"ha":735,"x_min":111,"x_max":624,"o":"m 551 106 l 544 106 q 477 19 525 50 q 331 -11 429 -11 q 190 16 236 -11 q 127 100 143 43 q 111 263 111 157 l 111 708 l 189 708 l 189 286 q 201 136 189 182 q 248 75 214 90 q 358 60 282 60 q 486 94 446 60 q 536 183 526 128 q 546 342 546 239 l 546 708 l 624 708 l 624 0 l 556 0 l 551 106 m 203 917 l 203 1014 l 283 1014 l 283 917 l 203 917 m 451 917 l 451 1014 l 532 1014 l 532 917 l 451 917 m 335 1060 l 335 1067 l 447 1254 l 535 1254 l 535 1247 l 393 1060 l 335 1060 z "}}}
